<?xml version="1.0" encoding="UTF-8" standalone="no"?>
<!DOCTYPE svg PUBLIC "-//W3C//DTD SVG 1.1//EN" "http://www.w3.org/Graphics/SVG/1.1/DTD/svg11.dtd">
<svg xmlns="http://www.w3.org/2000/svg" xmlns:xlink="http://www.w3.org/1999/xlink" version="1.1" width="380pt" height="200pt" viewBox="0 0 380 200">
<g enable-background="new">
<clipPath id="cp0">
<path transform="matrix(1,0,0,-1,0,200)" d="M 0 0 L 380 0 L 380 200 L 0 200 Z "/>
</clipPath>
<g clip-path="url(#cp0)">
<path transform="matrix(1,0,0,-1,0,200)" d="M 0 0 L 380 0 L 380 200 L 0 200 Z " fill="#ffffff"/>
</g>
<clipPath id="cp1">
<path transform="matrix(1,0,0,-1,0,200)" d="M 218.5 5 L 362.1845 5 L 362.1845 80.5 L 362.6845 80.5 L 362.6845 157.5 L 362.1845 195 L 2 195 L 2 157 L 2 81 L 2 5 L 73.5 5 L 218.5 4.5 Z M 218.5 5 "/>
</clipPath>
<g clip-path="url(#cp1)">
<clipPath id="cp2">
<path transform="matrix(1,0,0,-1,0,200)" d="M 74 169 L 146 169 L 146 195 L 74 195 Z "/>
</clipPath>
<g clip-path="url(#cp2)">
<path transform="matrix(1,0,0,-1,0,200)" d="M 76 169 L 144 169 L 144 192 L 76 192 Z " fill-opacity="0"/>
<text fill="#5e5e5e" xml:space="preserve" transform="matrix(1 0 -0 1 93 16)" font-size="9" font-family="LinLibertineO"><tspan y="0" x="0 4.716 9.252001 11.502001 17.316002 21.429 24.876002 28.944003 33.498">To Cased </tspan></text>
<text fill="#5e5e5e" xml:space="preserve" transform="matrix(1 0 -0 1 93 16)" font-size="9" font-family="LucidaGrande"><tspan y="0" x="35.748">&#x2028;</tspan></text>
<text fill="#5e5e5e" xml:space="preserve" transform="matrix(1 0 -0 1 98 26)" font-size="9" font-family="LinLibertineO"><tspan y="0" x="0 6.3180005 10.755001 13.203001 17.289002 21.096">Object</tspan></text>
</g>
</g>
<clipPath id="cp3">
<path transform="matrix(1,0,0,-1,0,200)" d="M 218.5 5 L 362.1845 5 L 362.1845 80.5 L 362.6845 80.5 L 362.6845 157.5 L 362.1845 195 L 2 195 L 2 157 L 2 81 L 2 5 L 73.5 5 L 218.5 4.5 Z M 218.5 5 "/>
</clipPath>
<g clip-path="url(#cp3)">
<clipPath id="cp4">
<path transform="matrix(1,0,0,-1,0,200)" d="M 146 169 L 218 169 L 218 195 L 146 195 Z "/>
</clipPath>
<g clip-path="url(#cp4)">
<path transform="matrix(1,0,0,-1,0,200)" d="M 148 169 L 216 169 L 216 192 L 148 192 Z " fill-opacity="0"/>
<text fill="#5e5e5e" xml:space="preserve" transform="matrix(1 0 -0 1 158 16)" font-size="9" font-family="LinLibertineO"><tspan y="0" x="0 4.716 9.252001 11.502001 17.757002 22.230004 26.631003 30.654004 34.020006 38.844007 42.912004 47.466005">To Governed </tspan></text>
<text fill="#5e5e5e" xml:space="preserve" transform="matrix(1 0 -0 1 161 26)" font-size="9" font-family="LinLibertineO"><tspan y="0" x="0 4.7790005 8.055001 12.078001 16.812 21.348 24.795 27.234002 30.078001 32.517004 37.053">Preposition</tspan></text>
</g>
</g>
<clipPath id="cp5">
<path transform="matrix(1,0,0,-1,0,200)" d="M 218.5 5 L 362.1845 5 L 362.1845 80.5 L 362.6845 80.5 L 362.6845 157.5 L 362.1845 195 L 2 195 L 2 157 L 2 81 L 2 5 L 73.5 5 L 218.5 4.5 Z M 218.5 5 "/>
</clipPath>
<g clip-path="url(#cp5)">
<clipPath id="cp6">
<path transform="matrix(1,0,0,-1,0,200)" d="M 218 169 L 290 169 L 290 195 L 218 195 Z "/>
</clipPath>
<g clip-path="url(#cp6)">
<path transform="matrix(1,0,0,-1,0,200)" d="M 220 169 L 288 169 L 288 192 L 220 192 Z " fill-opacity="0"/>
<text fill="#5e5e5e" xml:space="preserve" transform="matrix(1 0 -0 1 249 16)" font-size="9" font-family="LinLibertineO"><tspan y="0" x="0 4.716 9.252001">To </tspan></text>
<text fill="#5e5e5e" xml:space="preserve" transform="matrix(1 0 -0 1 249 16)" font-size="9" font-family="LucidaGrande"><tspan y="0" x="11.502">&#x2028;</tspan></text>
<text fill="#5e5e5e" xml:space="preserve" transform="matrix(1 0 -0 1 239 26)" font-size="9" font-family="LinLibertineO"><tspan y="0" x="0 6.147001 10.701001 13.149001 17.874 22.698002 26.505002">Adjunct</tspan></text>
</g>
</g>
<clipPath id="cp7">
<path transform="matrix(1,0,0,-1,0,200)" d="M 218.5 5 L 362.1845 5 L 362.1845 80.5 L 362.6845 80.5 L 362.6845 157.5 L 362.1845 195 L 2 195 L 2 157 L 2 81 L 2 5 L 73.5 5 L 218.5 4.5 Z M 218.5 5 "/>
</clipPath>
<g clip-path="url(#cp7)">
<clipPath id="cp8">
<path transform="matrix(1,0,0,-1,0,200)" d="M 290 169 L 362.18449 169 L 362.18449 195 L 290 195 Z "/>
</clipPath>
<g clip-path="url(#cp8)">
<path transform="matrix(1,0,0,-1,0,200)" d="M 292 169 L 360.18449 169 L 360.18449 192 L 292 192 Z " fill-opacity="0"/>
<text fill="#5e5e5e" xml:space="preserve" transform="matrix(1 0 -0 1 321 16)" font-size="9" font-family="LinLibertineO"><tspan y="0" x="0 4.716 9.252001">To </tspan></text>
<text fill="#5e5e5e" xml:space="preserve" transform="matrix(1 0 -0 1 321 16)" font-size="9" font-family="LucidaGrande"><tspan y="0" x="11.502">&#x2028;</tspan></text>
<text fill="#5e5e5e" xml:space="preserve" transform="matrix(1 0 -0 1 303 26)" font-size="9" font-family="LinLibertineO"><tspan y="0" x="0 5.9490005 10.773001 14.733002 19.143002 23.814003 27.090003 31.113003 34.56 38.007 42.074998">Unexpressed</tspan></text>
</g>
</g>
<clipPath id="cp9">
<path transform="matrix(1,0,0,-1,0,200)" d="M 218.5 5 L 362.1845 5 L 362.1845 80.5 L 362.6845 80.5 L 362.6845 157.5 L 362.1845 195 L 2 195 L 2 157 L 2 81 L 2 5 L 73.5 5 L 218.5 4.5 Z M 218.5 5 "/>
</clipPath>
<g clip-path="url(#cp9)">
<clipPath id="cp10">
<path transform="matrix(1,0,0,-1,0,200)" d="M 74 157.25 L 146 157.25 L 146 169 L 74 169 Z "/>
</clipPath>
<g clip-path="url(#cp10)">
<path transform="matrix(1,0,0,-1,0,200)" d="M 76 157.25 L 144 157.25 L 144 166 L 76 166 Z " fill-opacity="0"/>
<text fill="#5e5e5e" xml:space="preserve" transform="matrix(1 0 -0 1 96 39)" font-size="6" font-family="LinLibertineO"><tspan y="0" x="0 2.1360002 3.6360002 8.13 9.63 12.552 14.052 18.264 21.792 23.424 24.924">[ &#x2026; &#x003e; OBJ ]</tspan></text>
</g>
</g>
<clipPath id="cp11">
<path transform="matrix(1,0,0,-1,0,200)" d="M 218.5 5 L 362.1845 5 L 362.1845 80.5 L 362.6845 80.5 L 362.6845 157.5 L 362.1845 195 L 2 195 L 2 157 L 2 81 L 2 5 L 73.5 5 L 218.5 4.5 Z M 218.5 5 "/>
</clipPath>
<g clip-path="url(#cp11)">
<clipPath id="cp12">
<path transform="matrix(1,0,0,-1,0,200)" d="M 146 157.25 L 218 157.25 L 218 169 L 146 169 Z "/>
</clipPath>
<g clip-path="url(#cp12)">
<path transform="matrix(1,0,0,-1,0,200)" d="M 148 157.25 L 216 157.25 L 216 166 L 148 166 Z " fill-opacity="0"/>
<text fill="#5e5e5e" xml:space="preserve" transform="matrix(1 0 -0 1 169 39)" font-size="6" font-family="LinLibertineO"><tspan y="0" x="0 2.1360002 3.6360002 8.13 9.63 12.552 14.052 17.412 20.94 22.572 24.072">[ &#x2026; &#x003e; PBJ ]</tspan></text>
</g>
</g>
<clipPath id="cp13">
<path transform="matrix(1,0,0,-1,0,200)" d="M 218.5 5 L 362.1845 5 L 362.1845 80.5 L 362.6845 80.5 L 362.6845 157.5 L 362.1845 195 L 2 195 L 2 157 L 2 81 L 2 5 L 73.5 5 L 218.5 4.5 Z M 218.5 5 "/>
</clipPath>
<g clip-path="url(#cp13)">
<clipPath id="cp14">
<path transform="matrix(1,0,0,-1,0,200)" d="M 218 157.5 L 290 157.5 L 290 169 L 218 169 Z "/>
</clipPath>
<g clip-path="url(#cp14)">
<path transform="matrix(1,0,0,-1,0,200)" d="M 220 157.5 L 288 157.5 L 288 166 L 220 166 Z " fill-opacity="0"/>
<text fill="#5e5e5e" xml:space="preserve" transform="matrix(1 0 -0 1 240 39)" font-size="6" font-family="LinLibertineO"><tspan y="0" x="0 2.1360002 3.6360002 8.13 9.63 12.552 14.052 18.222 22.428002 24.060002 25.560002">[ &#x2026; &#x003e; ADJ ]</tspan></text>
</g>
</g>
<clipPath id="cp15">
<path transform="matrix(1,0,0,-1,0,200)" d="M 218.5 5 L 362.1845 5 L 362.1845 80.5 L 362.6845 80.5 L 362.6845 157.5 L 362.1845 195 L 2 195 L 2 157 L 2 81 L 2 5 L 73.5 5 L 218.5 4.5 Z M 218.5 5 "/>
</clipPath>
<g clip-path="url(#cp15)">
<clipPath id="cp16">
<path transform="matrix(1,0,0,-1,0,200)" d="M 290 157.5 L 362.18449 157.5 L 362.18449 169 L 290 169 Z "/>
</clipPath>
<g clip-path="url(#cp16)">
<path transform="matrix(1,0,0,-1,0,200)" d="M 292 157.5 L 360.18449 157.5 L 360.18449 166 L 292 166 Z " fill-opacity="0"/>
<text fill="#5e5e5e" xml:space="preserve" transform="matrix(1 0 -0 1 315 39)" font-size="6" font-family="LinLibertineO"><tspan y="0" x="0 2.1360002 3.6360002 8.13 9.63 12.552 14.052 18.264 19.764">[ &#x2026; &#x003e; &#x00d8; ]</tspan></text>
</g>
</g>
<clipPath id="cp17">
<path transform="matrix(1,0,0,-1,0,200)" d="M 218.5 5 L 362.1845 5 L 362.1845 80.5 L 362.6845 80.5 L 362.6845 157.5 L 362.1845 195 L 2 195 L 2 157 L 2 81 L 2 5 L 73.5 5 L 218.5 4.5 Z M 218.5 5 "/>
</clipPath>
<g clip-path="url(#cp17)">
<clipPath id="cp18">
<path transform="matrix(1,0,0,-1,0,200)" d="M 2 131 L 73.75 131 L 73.75 157 L 2 157 Z "/>
</clipPath>
<g clip-path="url(#cp18)">
<path transform="matrix(1,0,0,-1,0,200)" d="M 4 131 L 71.75 131 L 71.75 154 L 4 154 Z " fill-opacity="0"/>
<text fill="#5e5e5e" xml:space="preserve" transform="matrix(1 0 -0 1 16 54)" font-size="9" font-family="LinLibertineO"><tspan y="0" x="0 4.293 7.5690004 12.1050009 19.125 21.375 27.189 31.301999 34.748998 38.816995 43.370996">From Cased </tspan></text>
<text fill="#5e5e5e" xml:space="preserve" transform="matrix(1 0 -0 1 26 64)" font-size="9" font-family="LinLibertineO"><tspan y="0" x="0 6.3180005 10.755001 13.203001 17.289002 21.096">Object</tspan></text>
</g>
</g>
<clipPath id="cp19">
<path transform="matrix(1,0,0,-1,0,200)" d="M 218.5 5 L 362.1845 5 L 362.1845 80.5 L 362.6845 80.5 L 362.6845 157.5 L 362.1845 195 L 2 195 L 2 157 L 2 81 L 2 5 L 73.5 5 L 218.5 4.5 Z M 218.5 5 "/>
</clipPath>
<g clip-path="url(#cp19)">
<clipPath id="cp20">
<path transform="matrix(1,0,0,-1,0,200)" d="M 74.25 131 L 145.75 131 L 145.75 156.75 L 74.25 156.75 Z "/>
</clipPath>
<g clip-path="url(#cp20)">
<path transform="matrix(1,0,0,-1,0,200)" d="M 76.25 131 L 143.75 131 L 143.75 153.75 L 76.25 153.75 Z " fill-opacity="0"/>
<text xml:space="preserve" transform="matrix(1 0 -0 1 101 54)" font-size="9" font-family="LinLibertineO"><tspan y="0" x="0 5.814 9.927 13.374001 17.397002">Case </tspan></text>
<text xml:space="preserve" transform="matrix(1 0 -0 1 101 54)" font-size="9" font-family="LucidaGrande"><tspan y="0" x="19.647">&#x2028;</tspan></text>
<text xml:space="preserve" transform="matrix(1 0 -0 1 96 64)" font-size="9" font-family="LinLibertineO"><tspan y="0" x="0 5.814 10.602 14.715 19.539002 23.904002">Change</tspan></text>
</g>
</g>
<clipPath id="cp21">
<path transform="matrix(1,0,0,-1,0,200)" d="M 218.5 5 L 362.1845 5 L 362.1845 80.5 L 362.6845 80.5 L 362.6845 157.5 L 362.1845 195 L 2 195 L 2 157 L 2 81 L 2 5 L 73.5 5 L 218.5 4.5 Z M 218.5 5 "/>
</clipPath>
<g clip-path="url(#cp21)">
<clipPath id="cp22">
<path transform="matrix(1,0,0,-1,0,200)" d="M 146.25 131 L 217.5 131 L 217.5 156.75 L 146.25 156.75 Z "/>
</clipPath>
<g clip-path="url(#cp22)">
<path transform="matrix(1,0,0,-1,0,200)" d="M 148.25 131 L 215.5 131 L 215.5 153.75 L 148.25 153.75 Z " fill-opacity="0"/>
<text xml:space="preserve" transform="matrix(1 0 -0 1 168 54)" font-size="7" font-family="LinLibertineO"><tspan y="0" x="0 4.8650004 8.344001 11.767001 14.896002 17.514002 21.266003 24.430003">Governed</tspan></text>
<text xml:space="preserve" transform="matrix(1 0 -0 1 168 54)" font-size="9" font-family="LinLibertineO"><tspan y="0" x="27.972"> </tspan></text>
<text xml:space="preserve" transform="matrix(1 0 -0 1 160 64)" font-size="9" font-family="LinLibertineO"><tspan y="0" x="0 6.2550008 11.079 13.923 16.362 21.078001 25.191002 28.638003 32.085004 34.524003 38.925004">Antipassive</tspan></text>
</g>
</g>
<clipPath id="cp23">
<path transform="matrix(1,0,0,-1,0,200)" d="M 218.5 5 L 362.1845 5 L 362.1845 80.5 L 362.6845 80.5 L 362.6845 157.5 L 362.1845 195 L 2 195 L 2 157 L 2 81 L 2 5 L 73.5 5 L 218.5 4.5 Z M 218.5 5 "/>
</clipPath>
<g clip-path="url(#cp23)">
<clipPath id="cp24">
<path transform="matrix(1,0,0,-1,0,200)" d="M 218.5 131 L 289.5 131 L 289.5 156.5 L 218.5 156.5 Z "/>
</clipPath>
<g clip-path="url(#cp24)">
<path transform="matrix(1,0,0,-1,0,200)" d="M 220.5 131 L 287.5 131 L 287.5 148.5 L 220.5 148.5 Z " fill-opacity="0"/>
<text xml:space="preserve" transform="matrix(1 0 -0 1 232 59)" font-size="9" font-family="LinLibertineOB" font-weight="bold"><tspan y="0" x="0 6.2910006 11.358001 14.337001 16.911002 21.663 25.947 29.556 33.165 35.739004 40.437005">Antipassive</tspan></text>
</g>
</g>
<clipPath id="cp25">
<path transform="matrix(1,0,0,-1,0,200)" d="M 218.5 5 L 362.1845 5 L 362.1845 80.5 L 362.6845 80.5 L 362.6845 157.5 L 362.1845 195 L 2 195 L 2 157 L 2 81 L 2 5 L 73.5 5 L 218.5 4.5 Z M 218.5 5 "/>
</clipPath>
<g clip-path="url(#cp25)">
<clipPath id="cp26">
<path transform="matrix(1,0,0,-1,0,200)" d="M 290.5 131 L 361.68449 131 L 361.68449 156.5 L 290.5 156.5 Z "/>
</clipPath>
<g clip-path="url(#cp26)">
<path transform="matrix(1,0,0,-1,0,200)" d="M 292.5 131 L 359.68449 131 L 359.68449 148.5 L 292.5 148.5 Z " fill-opacity="0"/>
<text xml:space="preserve" transform="matrix(1 0 -0 1 304 59)" font-size="9" font-family="LinLibertineOB" font-weight="bold"><tspan y="0" x="0 6.5070006 10.719 15.39 19.935002 22.536002 26.748002 30.663002 33.642004 36.216005 40.914007">Deobjective</tspan></text>
</g>
</g>
<clipPath id="cp27">
<path transform="matrix(1,0,0,-1,0,200)" d="M 218.5 5 L 362.1845 5 L 362.1845 80.5 L 362.6845 80.5 L 362.6845 157.5 L 362.1845 195 L 2 195 L 2 157 L 2 81 L 2 5 L 73.5 5 L 218.5 4.5 Z M 218.5 5 "/>
</clipPath>
<g clip-path="url(#cp27)">
<clipPath id="cp28">
<path transform="matrix(1,0,0,-1,0,200)" d="M 2 119 L 73.75 119 L 73.75 131 L 2 131 Z "/>
</clipPath>
<g clip-path="url(#cp28)">
<path transform="matrix(1,0,0,-1,0,200)" d="M 4 119 L 71.75 119 L 71.75 128 L 4 128 Z " fill-opacity="0"/>
<text fill="#5e5e5e" xml:space="preserve" transform="matrix(1 0 -0 1 24 77)" font-size="6" font-family="LinLibertineO"><tspan y="0" x="0 2.1360002 3.6360002 7.848 11.375999 13.007999 14.507999 17.43 18.93 23.424 24.924">[ OBJ &#x003e; &#x2026; ]</tspan></text>
</g>
</g>
<clipPath id="cp29">
<path transform="matrix(1,0,0,-1,0,200)" d="M 218.5 5 L 362.1845 5 L 362.1845 80.5 L 362.6845 80.5 L 362.6845 157.5 L 362.1845 195 L 2 195 L 2 157 L 2 81 L 2 5 L 73.5 5 L 218.5 4.5 Z M 218.5 5 "/>
</clipPath>
<g clip-path="url(#cp29)">
<clipPath id="cp30">
<path transform="matrix(1,0,0,-1,0,200)" d="M 74.25 119.25 L 145.75 119.25 L 145.75 131 L 74.25 131 Z "/>
</clipPath>
<g clip-path="url(#cp30)">
<path transform="matrix(1,0,0,-1,0,200)" d="M 76.25 119.25 L 143.75 119.25 L 143.75 128 L 76.25 128 Z " fill-opacity="0"/>
<text xml:space="preserve" transform="matrix(1 0 -0 1 94 77)" font-size="6" font-family="LinLibertineO"><tspan y="0" x="0 2.1360002 3.6360002 7.848 11.375999 13.007999 14.507999 17.43 18.93 23.142 26.67 28.302 29.802">[ OBJ &#x003e; OBJ ]</tspan></text>
</g>
</g>
<clipPath id="cp31">
<path transform="matrix(1,0,0,-1,0,200)" d="M 218.5 5 L 362.1845 5 L 362.1845 80.5 L 362.6845 80.5 L 362.6845 157.5 L 362.1845 195 L 2 195 L 2 157 L 2 81 L 2 5 L 73.5 5 L 218.5 4.5 Z M 218.5 5 "/>
</clipPath>
<g clip-path="url(#cp31)">
<clipPath id="cp32">
<path transform="matrix(1,0,0,-1,0,200)" d="M 146.25 119.25 L 217.5 119.25 L 217.5 131 L 146.25 131 Z "/>
</clipPath>
<g clip-path="url(#cp32)">
<path transform="matrix(1,0,0,-1,0,200)" d="M 148.25 119.25 L 215.5 119.25 L 215.5 128 L 148.25 128 Z " fill-opacity="0"/>
<text xml:space="preserve" transform="matrix(1 0 -0 1 166 77)" font-size="6" font-family="LinLibertineO"><tspan y="0" x="0 2.1360002 3.6360002 7.848 11.375999 13.007999 14.507999 17.43 18.93 22.29 25.818 27.45 28.95">[ OBJ &#x003e; PBJ ]</tspan></text>
</g>
</g>
<clipPath id="cp33">
<path transform="matrix(1,0,0,-1,0,200)" d="M 218.5 5 L 362.1845 5 L 362.1845 80.5 L 362.6845 80.5 L 362.6845 157.5 L 362.1845 195 L 2 195 L 2 157 L 2 81 L 2 5 L 73.5 5 L 218.5 4.5 Z M 218.5 5 "/>
</clipPath>
<g clip-path="url(#cp33)">
<clipPath id="cp34">
<path transform="matrix(1,0,0,-1,0,200)" d="M 218.5 119.5 L 289.5 119.5 L 289.5 131 L 218.5 131 Z "/>
</clipPath>
<g clip-path="url(#cp34)">
<path transform="matrix(1,0,0,-1,0,200)" d="M 220.5 119.5 L 287.5 119.5 L 287.5 128 L 220.5 128 Z " fill-opacity="0"/>
<text xml:space="preserve" transform="matrix(1 0 -0 1 238 77)" font-size="6" font-family="LinLibertineO"><tspan y="0" x="0 2.1360002 3.6360002 7.848 11.375999 13.007999 14.507999 17.43 18.93 23.1 27.306 28.938 30.438">[ OBJ &#x003e; ADJ ]</tspan></text>
</g>
</g>
<clipPath id="cp35">
<path transform="matrix(1,0,0,-1,0,200)" d="M 218.5 5 L 362.1845 5 L 362.1845 80.5 L 362.6845 80.5 L 362.6845 157.5 L 362.1845 195 L 2 195 L 2 157 L 2 81 L 2 5 L 73.5 5 L 218.5 4.5 Z M 218.5 5 "/>
</clipPath>
<g clip-path="url(#cp35)">
<clipPath id="cp36">
<path transform="matrix(1,0,0,-1,0,200)" d="M 290.5 119.5 L 361.68449 119.5 L 361.68449 131 L 290.5 131 Z "/>
</clipPath>
<g clip-path="url(#cp36)">
<path transform="matrix(1,0,0,-1,0,200)" d="M 292.5 119.5 L 359.68449 119.5 L 359.68449 128 L 292.5 128 Z " fill-opacity="0"/>
<text xml:space="preserve" transform="matrix(1 0 -0 1 313 77)" font-size="6" font-family="LinLibertineO"><tspan y="0" x="0 2.1360002 3.6360002 7.848 11.375999 13.007999 14.507999 17.43 18.93 23.142 24.642">[ OBJ &#x003e; &#x00d8; ]</tspan></text>
</g>
</g>
<clipPath id="cp37">
<path transform="matrix(1,0,0,-1,0,200)" d="M 218.5 5 L 362.1845 5 L 362.1845 80.5 L 362.6845 80.5 L 362.6845 157.5 L 362.1845 195 L 2 195 L 2 157 L 2 81 L 2 5 L 73.5 5 L 218.5 4.5 Z M 218.5 5 "/>
</clipPath>
<g clip-path="url(#cp37)">
<clipPath id="cp38">
<path transform="matrix(1,0,0,-1,0,200)" d="M 2 93 L 73.75 93 L 73.75 119 L 2 119 Z "/>
</clipPath>
<g clip-path="url(#cp38)">
<path transform="matrix(1,0,0,-1,0,200)" d="M 4 93 L 71.75 93 L 71.75 116 L 4 116 Z " fill-opacity="0"/>
<text fill="#5e5e5e" xml:space="preserve" transform="matrix(1 0 -0 1 9 92)" font-size="9" font-family="LinLibertineO"><tspan y="0" x="0 4.293 7.5690004 12.1050009 19.125 21.375 27.630002 32.103 36.504 40.527 43.893 48.717004 52.785 57.339">From Governed </tspan></text>
<text fill="#5e5e5e" xml:space="preserve" transform="matrix(1 0 -0 1 17 102)" font-size="9" font-family="LinLibertineO"><tspan y="0" x="0 4.7790005 8.055001 12.078001 16.812 21.348 24.795 27.234002 30.078001 32.517004 37.053">Preposition</tspan></text>
</g>
</g>
<clipPath id="cp39">
<path transform="matrix(1,0,0,-1,0,200)" d="M 218.5 5 L 362.1845 5 L 362.1845 80.5 L 362.6845 80.5 L 362.6845 157.5 L 362.1845 195 L 2 195 L 2 157 L 2 81 L 2 5 L 73.5 5 L 218.5 4.5 Z M 218.5 5 "/>
</clipPath>
<g clip-path="url(#cp39)">
<clipPath id="cp40">
<path transform="matrix(1,0,0,-1,0,200)" d="M 74.25 93 L 145.75 93 L 145.75 118.75 L 74.25 118.75 Z "/>
</clipPath>
<g clip-path="url(#cp40)">
<path transform="matrix(1,0,0,-1,0,200)" d="M 76.25 93 L 143.75 93 L 143.75 115.75 L 76.25 115.75 Z " fill-opacity="0"/>
<text xml:space="preserve" transform="matrix(1 0 -0 1 96 92)" font-size="7" font-family="LinLibertineO"><tspan y="0" x="0 4.8650004 8.344001 11.767001 14.896002 17.514002 21.266003 24.430003">Governed</tspan></text>
<text xml:space="preserve" transform="matrix(1 0 -0 1 96 92)" font-size="9" font-family="LinLibertineO"><tspan y="0" x="27.972"> </tspan></text>
<text xml:space="preserve" transform="matrix(1 0 -0 1 89 102)" font-size="9" font-family="LinLibertineO"><tspan y="0" x="0 6.2550008 10.926001 15.597001 17.973002 20.412003 24.219002 28.332 31.176 33.615 38.016004">Applicative</tspan></text>
</g>
</g>
<clipPath id="cp41">
<path transform="matrix(1,0,0,-1,0,200)" d="M 218.5 5 L 362.1845 5 L 362.1845 80.5 L 362.6845 80.5 L 362.6845 157.5 L 362.1845 195 L 2 195 L 2 157 L 2 81 L 2 5 L 73.5 5 L 218.5 4.5 Z M 218.5 5 "/>
</clipPath>
<g clip-path="url(#cp41)">
<clipPath id="cp42">
<path transform="matrix(1,0,0,-1,0,200)" d="M 146.25 93 L 217.75 93 L 217.75 118.75 L 146.25 118.75 Z "/>
</clipPath>
<g clip-path="url(#cp42)">
<path transform="matrix(1,0,0,-1,0,200)" d="M 148.25 93 L 215.75 93 L 215.75 115.75 L 148.25 115.75 Z " fill-opacity="0"/>
<text xml:space="preserve" transform="matrix(1 0 -0 1 161 92)" font-size="9" font-family="LinLibertineO"><tspan y="0" x="0 4.7790005 8.055001 12.078001 16.812 21.348 24.795 27.234002 30.078001 32.517004 37.053 41.877004">Preposition </tspan></text>
<text xml:space="preserve" transform="matrix(1 0 -0 1 168 102)" font-size="9" font-family="LinLibertineO"><tspan y="0" x="0 5.814 10.602 14.715 19.539002 23.904002">Change</tspan></text>
</g>
</g>
<clipPath id="cp43">
<path transform="matrix(1,0,0,-1,0,200)" d="M 218.5 5 L 362.1845 5 L 362.1845 80.5 L 362.6845 80.5 L 362.6845 157.5 L 362.1845 195 L 2 195 L 2 157 L 2 81 L 2 5 L 73.5 5 L 218.5 4.5 Z M 218.5 5 "/>
</clipPath>
<g clip-path="url(#cp43)">
<clipPath id="cp44">
<path transform="matrix(1,0,0,-1,0,200)" d="M 290.5 93 L 361.68449 93 L 361.68449 118.5 L 290.5 118.5 Z "/>
</clipPath>
<g clip-path="url(#cp44)">
<path transform="matrix(1,0,0,-1,0,200)" d="M 292.5 93 L 359.68449 93 L 359.68449 110.5 L 292.5 110.5 Z " fill-opacity="0"/>
<text xml:space="preserve" transform="matrix(1 0 -0 1 306 97)" font-size="9" font-family="LinLibertineOB" font-weight="bold"><tspan y="0" x="0 6.5070006 10.656 13.257 17.991002 21.906002 26.190003 29.169003 31.743002 36.441">Delocative</tspan></text>
</g>
</g>
<clipPath id="cp45">
<path transform="matrix(1,0,0,-1,0,200)" d="M 218.5 5 L 362.1845 5 L 362.1845 80.5 L 362.6845 80.5 L 362.6845 157.5 L 362.1845 195 L 2 195 L 2 157 L 2 81 L 2 5 L 73.5 5 L 218.5 4.5 Z M 218.5 5 "/>
</clipPath>
<g clip-path="url(#cp45)">
<clipPath id="cp46">
<path transform="matrix(1,0,0,-1,0,200)" d="M 2 81 L 73.75 81 L 73.75 93 L 2 93 Z "/>
</clipPath>
<g clip-path="url(#cp46)">
<path transform="matrix(1,0,0,-1,0,200)" d="M 4 81 L 71.75 81 L 71.75 90 L 4 90 Z " fill-opacity="0"/>
<text fill="#5e5e5e" xml:space="preserve" transform="matrix(1 0 -0 1 25 115)" font-size="6" font-family="LinLibertineO"><tspan y="0" x="0 2.1360002 3.6360002 6.9960005 10.524 12.156 13.656 16.578001 18.078001 22.572 24.072">[ PBJ &#x003e; &#x2026; ]</tspan></text>
</g>
</g>
<clipPath id="cp47">
<path transform="matrix(1,0,0,-1,0,200)" d="M 218.5 5 L 362.1845 5 L 362.1845 80.5 L 362.6845 80.5 L 362.6845 157.5 L 362.1845 195 L 2 195 L 2 157 L 2 81 L 2 5 L 73.5 5 L 218.5 4.5 Z M 218.5 5 "/>
</clipPath>
<g clip-path="url(#cp47)">
<clipPath id="cp48">
<path transform="matrix(1,0,0,-1,0,200)" d="M 74.25 81.5 L 145.75 81.5 L 145.75 93 L 74.25 93 Z "/>
</clipPath>
<g clip-path="url(#cp48)">
<path transform="matrix(1,0,0,-1,0,200)" d="M 76.25 81.5 L 143.75 81.5 L 143.75 90 L 76.25 90 Z " fill-opacity="0"/>
<text xml:space="preserve" transform="matrix(1 0 -0 1 94 115)" font-size="6" font-family="LinLibertineO"><tspan y="0" x="0 2.1360002 3.6360002 6.9960005 10.524 12.156 13.656 16.578001 18.078001 22.29 25.818 27.45 28.95">[ PBJ &#x003e; OBJ ]</tspan></text>
</g>
</g>
<clipPath id="cp49">
<path transform="matrix(1,0,0,-1,0,200)" d="M 218.5 5 L 362.1845 5 L 362.1845 80.5 L 362.6845 80.5 L 362.6845 157.5 L 362.1845 195 L 2 195 L 2 157 L 2 81 L 2 5 L 73.5 5 L 218.5 4.5 Z M 218.5 5 "/>
</clipPath>
<g clip-path="url(#cp49)">
<clipPath id="cp50">
<path transform="matrix(1,0,0,-1,0,200)" d="M 146.25 81.25 L 217.75 81.25 L 217.75 93 L 146.25 93 Z "/>
</clipPath>
<g clip-path="url(#cp50)">
<path transform="matrix(1,0,0,-1,0,200)" d="M 148.25 81.25 L 215.75 81.25 L 215.75 90 L 148.25 90 Z " fill-opacity="0"/>
<text xml:space="preserve" transform="matrix(1 0 -0 1 167 115)" font-size="6" font-family="LinLibertineO"><tspan y="0" x="0 2.1360002 3.6360002 6.9960005 10.524 12.156 13.656 16.578001 18.078001 21.438002 24.966002 26.598002 28.098002">[ PBJ &#x003e; PBJ ]</tspan></text>
</g>
</g>
<clipPath id="cp51">
<path transform="matrix(1,0,0,-1,0,200)" d="M 218.5 5 L 362.1845 5 L 362.1845 80.5 L 362.6845 80.5 L 362.6845 157.5 L 362.1845 195 L 2 195 L 2 157 L 2 81 L 2 5 L 73.5 5 L 218.5 4.5 Z M 218.5 5 "/>
</clipPath>
<g clip-path="url(#cp51)">
<clipPath id="cp52">
<path transform="matrix(1,0,0,-1,0,200)" d="M 218.25 81.25 L 289.5 81.25 L 289.5 93 L 218.25 93 Z "/>
</clipPath>
<g clip-path="url(#cp52)">
<path transform="matrix(1,0,0,-1,0,200)" d="M 220.25 81.25 L 287.5 81.25 L 287.5 90 L 220.25 90 Z " fill-opacity="0"/>
<text xml:space="preserve" transform="matrix(1 0 -0 1 238 115)" font-size="6" font-family="LinLibertineO"><tspan y="0" x="0 2.1360002 3.6360002 6.9960005 10.524 12.156 13.656 16.578001 18.078001 22.248002 26.454003 28.086003 29.586003">[ PBJ &#x003e; ADJ ]</tspan></text>
</g>
</g>
<clipPath id="cp53">
<path transform="matrix(1,0,0,-1,0,200)" d="M 218.5 5 L 362.1845 5 L 362.1845 80.5 L 362.6845 80.5 L 362.6845 157.5 L 362.1845 195 L 2 195 L 2 157 L 2 81 L 2 5 L 73.5 5 L 218.5 4.5 Z M 218.5 5 "/>
</clipPath>
<g clip-path="url(#cp53)">
<clipPath id="cp54">
<path transform="matrix(1,0,0,-1,0,200)" d="M 290.5 81.5 L 361.68449 81.5 L 361.68449 93 L 290.5 93 Z "/>
</clipPath>
<g clip-path="url(#cp54)">
<path transform="matrix(1,0,0,-1,0,200)" d="M 292.5 81.5 L 359.68449 81.5 L 359.68449 90 L 292.5 90 Z " fill-opacity="0"/>
<text xml:space="preserve" transform="matrix(1 0 -0 1 313 115)" font-size="6" font-family="LinLibertineO"><tspan y="0" x="0 2.1360002 3.6360002 6.9960005 10.524 12.156 13.656 16.578001 18.078001 22.29 23.79">[ PBJ &#x003e; &#x00d8; ]</tspan></text>
</g>
</g>
<clipPath id="cp55">
<path transform="matrix(1,0,0,-1,0,200)" d="M 218.5 5 L 362.1845 5 L 362.1845 80.5 L 362.6845 80.5 L 362.6845 157.5 L 362.1845 195 L 2 195 L 2 157 L 2 81 L 2 5 L 73.5 5 L 218.5 4.5 Z M 218.5 5 "/>
</clipPath>
<g clip-path="url(#cp55)">
<clipPath id="cp56">
<path transform="matrix(1,0,0,-1,0,200)" d="M 2 55 L 73.5 55 L 73.5 81 L 2 81 Z "/>
</clipPath>
<g clip-path="url(#cp56)">
<path transform="matrix(1,0,0,-1,0,200)" d="M 4 55 L 71.5 55 L 71.5 78 L 4 78 Z " fill-opacity="0"/>
<text fill="#5e5e5e" xml:space="preserve" transform="matrix(1 0 -0 1 28 130)" font-size="9" font-family="LinLibertineO"><tspan y="0" x="0 4.293 7.5690004 12.1050009">From</tspan></text>
<text fill="#5e5e5e" xml:space="preserve" transform="matrix(1 0 -0 1 28 130)" font-size="9" font-family="LucidaGrande"><tspan y="0" x="19.125">&#x2028;</tspan></text>
<text fill="#5e5e5e" xml:space="preserve" transform="matrix(1 0 -0 1 23 140)" font-size="9" font-family="LinLibertineO"><tspan y="0" x="0 6.147001 10.701001 13.149001 17.874 22.698002 26.505002">Adjunct</tspan></text>
</g>
</g>
<clipPath id="cp57">
<path transform="matrix(1,0,0,-1,0,200)" d="M 218.5 5 L 362.1845 5 L 362.1845 80.5 L 362.6845 80.5 L 362.6845 157.5 L 362.1845 195 L 2 195 L 2 157 L 2 81 L 2 5 L 73.5 5 L 218.5 4.5 Z M 218.5 5 "/>
</clipPath>
<g clip-path="url(#cp57)">
<clipPath id="cp58">
<path transform="matrix(1,0,0,-1,0,200)" d="M 74.5 55 L 145.5 55 L 145.5 80.5 L 74.5 80.5 Z "/>
</clipPath>
<g clip-path="url(#cp58)">
<path transform="matrix(1,0,0,-1,0,200)" d="M 76.5 55 L 143.5 55 L 143.5 72.5 L 76.5 72.5 Z " fill-opacity="0"/>
<text xml:space="preserve" transform="matrix(1 0 -0 1 88 135)" font-size="9" font-family="LinLibertineOB" font-weight="bold"><tspan y="0" x="0 6.2910006 10.998 15.705 18.306 20.88 24.795 29.079 32.058004 34.632005 39.330007">Applicative</tspan></text>
</g>
</g>
<clipPath id="cp59">
<path transform="matrix(1,0,0,-1,0,200)" d="M 218.5 5 L 362.1845 5 L 362.1845 80.5 L 362.6845 80.5 L 362.6845 157.5 L 362.1845 195 L 2 195 L 2 157 L 2 81 L 2 5 L 73.5 5 L 218.5 4.5 Z M 218.5 5 "/>
</clipPath>
<g clip-path="url(#cp59)">
<clipPath id="cp60">
<path transform="matrix(1,0,0,-1,0,200)" d="M 218.25 55 L 289.75 55 L 289.75 80.75 L 218.25 80.75 Z "/>
</clipPath>
<g clip-path="url(#cp60)">
<path transform="matrix(1,0,0,-1,0,200)" d="M 220.25 55 L 287.75 55 L 287.75 77.75 L 220.25 77.75 Z " fill-opacity="0"/>
<text xml:space="preserve" transform="matrix(1 0 -0 1 239 130)" font-size="9" font-family="LinLibertineO"><tspan y="0" x="0 6.147001 10.701001 13.149001 17.874 22.698002 26.505002">Adjunct</tspan></text>
<text xml:space="preserve" transform="matrix(1 0 -0 1 239 130)" font-size="9" font-family="LucidaGrande"><tspan y="0" x="29.349">&#x2028;</tspan></text>
<text xml:space="preserve" transform="matrix(1 0 -0 1 240 140)" font-size="9" font-family="LinLibertineO"><tspan y="0" x="0 5.814 10.602 14.715 19.539002 23.904002">Change</tspan></text>
</g>
</g>
<clipPath id="cp61">
<path transform="matrix(1,0,0,-1,0,200)" d="M 218.5 5 L 362.1845 5 L 362.1845 80.5 L 362.6845 80.5 L 362.6845 157.5 L 362.1845 195 L 2 195 L 2 157 L 2 81 L 2 5 L 73.5 5 L 218.5 4.5 Z M 218.5 5 "/>
</clipPath>
<g clip-path="url(#cp61)">
<clipPath id="cp62">
<path transform="matrix(1,0,0,-1,0,200)" d="M 2 43 L 73.5 43 L 73.5 55 L 2 55 Z "/>
</clipPath>
<g clip-path="url(#cp62)">
<path transform="matrix(1,0,0,-1,0,200)" d="M 4 43 L 71.5 43 L 71.5 52 L 4 52 Z " fill-opacity="0"/>
<text fill="#5e5e5e" xml:space="preserve" transform="matrix(1 0 -0 1 24 153)" font-size="6" font-family="LinLibertineO"><tspan y="0" x="0 2.1360002 3.6360002 7.806 12.012001 13.644001 15.144001 18.066002 19.566002 24.060002 25.560002">[ ADJ &#x003e; &#x2026; ]</tspan></text>
</g>
</g>
<clipPath id="cp63">
<path transform="matrix(1,0,0,-1,0,200)" d="M 218.5 5 L 362.1845 5 L 362.1845 80.5 L 362.6845 80.5 L 362.6845 157.5 L 362.1845 195 L 2 195 L 2 157 L 2 81 L 2 5 L 73.5 5 L 218.5 4.5 Z M 218.5 5 "/>
</clipPath>
<g clip-path="url(#cp63)">
<clipPath id="cp64">
<path transform="matrix(1,0,0,-1,0,200)" d="M 74.5 43.5 L 145.5 43.5 L 145.5 55 L 74.5 55 Z "/>
</clipPath>
<g clip-path="url(#cp64)">
<path transform="matrix(1,0,0,-1,0,200)" d="M 76.5 43.5 L 143.5 43.5 L 143.5 52 L 76.5 52 Z " fill-opacity="0"/>
<text xml:space="preserve" transform="matrix(1 0 -0 1 94 153)" font-size="6" font-family="LinLibertineO"><tspan y="0" x="0 2.1360002 3.6360002 7.806 12.012001 13.644001 15.144001 18.066002 19.566002 23.778002 27.306002 28.938002 30.438002">[ ADJ &#x003e; OBJ ]</tspan></text>
</g>
</g>
<clipPath id="cp65">
<path transform="matrix(1,0,0,-1,0,200)" d="M 218.5 5 L 362.1845 5 L 362.1845 80.5 L 362.6845 80.5 L 362.6845 157.5 L 362.1845 195 L 2 195 L 2 157 L 2 81 L 2 5 L 73.5 5 L 218.5 4.5 Z M 218.5 5 "/>
</clipPath>
<g clip-path="url(#cp65)">
<clipPath id="cp66">
<path transform="matrix(1,0,0,-1,0,200)" d="M 146.5 43.5 L 217.75 43.5 L 217.75 55 L 146.5 55 Z "/>
</clipPath>
<g clip-path="url(#cp66)">
<path transform="matrix(1,0,0,-1,0,200)" d="M 148.5 43.5 L 215.75 43.5 L 215.75 52 L 148.5 52 Z " fill-opacity="0"/>
<text xml:space="preserve" transform="matrix(1 0 -0 1 166 153)" font-size="6" font-family="LinLibertineO"><tspan y="0" x="0 2.1360002 3.6360002 7.806 12.012001 13.644001 15.144001 18.066002 19.566002 22.926003 26.454003 28.086003 29.586003">[ ADJ &#x003e; PBJ ]</tspan></text>
</g>
</g>
<clipPath id="cp67">
<path transform="matrix(1,0,0,-1,0,200)" d="M 218.5 5 L 362.1845 5 L 362.1845 80.5 L 362.6845 80.5 L 362.6845 157.5 L 362.1845 195 L 2 195 L 2 157 L 2 81 L 2 5 L 73.5 5 L 218.5 4.5 Z M 218.5 5 "/>
</clipPath>
<g clip-path="url(#cp67)">
<clipPath id="cp68">
<path transform="matrix(1,0,0,-1,0,200)" d="M 218.25 43.25 L 289.75 43.25 L 289.75 55 L 218.25 55 Z "/>
</clipPath>
<g clip-path="url(#cp68)">
<path transform="matrix(1,0,0,-1,0,200)" d="M 220.25 43.25 L 287.75 43.25 L 287.75 52 L 220.25 52 Z " fill-opacity="0"/>
<text xml:space="preserve" transform="matrix(1 0 -0 1 237 153)" font-size="6" font-family="LinLibertineO"><tspan y="0" x="0 2.1360002 3.6360002 7.806 12.012001 13.644001 15.144001 18.066002 19.566002 23.736002 27.942002 29.574002 31.074002">[ ADJ &#x003e; ADJ ]</tspan></text>
</g>
</g>
<clipPath id="cp69">
<path transform="matrix(1,0,0,-1,0,200)" d="M 218.5 5 L 362.1845 5 L 362.1845 80.5 L 362.6845 80.5 L 362.6845 157.5 L 362.1845 195 L 2 195 L 2 157 L 2 81 L 2 5 L 73.5 5 L 218.5 4.5 Z M 218.5 5 "/>
</clipPath>
<g clip-path="url(#cp69)">
<clipPath id="cp70">
<path transform="matrix(1,0,0,-1,0,200)" d="M 2 17 L 73.5 17 L 73.5 43 L 2 43 Z "/>
</clipPath>
<g clip-path="url(#cp70)">
<path transform="matrix(1,0,0,-1,0,200)" d="M 4 17 L 71.5 17 L 71.5 40 L 4 40 Z " fill-opacity="0"/>
<text fill="#5e5e5e" xml:space="preserve" transform="matrix(1 0 -0 1 28 168)" font-size="9" font-family="LinLibertineO"><tspan y="0" x="0 4.293 7.5690004 12.1050009 19.125">From </tspan></text>
<text fill="#5e5e5e" xml:space="preserve" transform="matrix(1 0 -0 1 14 178)" font-size="9" font-family="LinLibertineO"><tspan y="0" x="0 5.9490005 10.773001 14.733002 19.143002 23.814003 27.090003 31.113003 34.56 38.007 42.074998">Unexpressed</tspan></text>
</g>
</g>
<clipPath id="cp71">
<path transform="matrix(1,0,0,-1,0,200)" d="M 218.5 5 L 362.1845 5 L 362.1845 80.5 L 362.6845 80.5 L 362.6845 157.5 L 362.1845 195 L 2 195 L 2 157 L 2 81 L 2 5 L 73.5 5 L 218.5 4.5 Z M 218.5 5 "/>
</clipPath>
<g clip-path="url(#cp71)">
<clipPath id="cp72">
<path transform="matrix(1,0,0,-1,0,200)" d="M 74.5 17 L 145.5 17 L 145.5 42.5 L 74.5 42.5 Z "/>
</clipPath>
<g clip-path="url(#cp72)">
<path transform="matrix(1,0,0,-1,0,200)" d="M 76.5 17 L 143.5 17 L 143.5 34.5 L 76.5 34.5 Z " fill-opacity="0"/>
<text xml:space="preserve" transform="matrix(1 0 -0 1 92 173)" font-size="9" font-family="LinLibertineOB" font-weight="bold"><tspan y="0" x="0 6.57 11.115 13.716 17.928 21.843 24.822 27.396 32.094">Objective</tspan></text>
</g>
</g>
<clipPath id="cp73">
<path transform="matrix(1,0,0,-1,0,200)" d="M 218.5 5 L 362.1845 5 L 362.1845 80.5 L 362.6845 80.5 L 362.6845 157.5 L 362.1845 195 L 2 195 L 2 157 L 2 81 L 2 5 L 73.5 5 L 218.5 4.5 Z M 218.5 5 "/>
</clipPath>
<g clip-path="url(#cp73)">
<clipPath id="cp74">
<path transform="matrix(1,0,0,-1,0,200)" d="M 146.5 17 L 217.5 17 L 217.5 42.5 L 146.5 42.5 Z "/>
</clipPath>
<g clip-path="url(#cp74)">
<path transform="matrix(1,0,0,-1,0,200)" d="M 148.5 17 L 215.5 17 L 215.5 34.5 L 148.5 34.5 Z " fill-opacity="0"/>
<text xml:space="preserve" transform="matrix(1 0 -0 1 166 173)" font-size="9" font-family="LinLibertineOB" font-weight="bold"><tspan y="0" x="0 4.8420007 9.576 13.491 17.775 20.754 23.328 28.026">Locative</tspan></text>
</g>
</g>
<clipPath id="cp75">
<path transform="matrix(1,0,0,-1,0,200)" d="M 218.5 5 L 362.1845 5 L 362.1845 80.5 L 362.6845 80.5 L 362.6845 157.5 L 362.1845 195 L 2 195 L 2 157 L 2 81 L 2 5 L 73.5 5 L 218.5 4.5 Z M 218.5 5 "/>
</clipPath>
<g clip-path="url(#cp75)">
<clipPath id="cp76">
<path transform="matrix(1,0,0,-1,0,200)" d="M 2 5 L 73.5 5 L 73.5 17 L 2 17 Z "/>
</clipPath>
<g clip-path="url(#cp76)">
<path transform="matrix(1,0,0,-1,0,200)" d="M 4 5 L 71.5 5 L 71.5 14 L 4 14 Z " fill-opacity="0"/>
<text fill="#5e5e5e" xml:space="preserve" transform="matrix(1 0 -0 1 27 191)" font-size="6" font-family="LinLibertineO"><tspan y="0" x="0 2.1360002 3.6360002 7.848 9.348 12.2699999 13.7699999 18.264 19.764">[ &#x00d8; &#x003e; &#x2026; ]</tspan></text>
</g>
</g>
<clipPath id="cp77">
<path transform="matrix(1,0,0,-1,0,200)" d="M 218.5 5 L 362.1845 5 L 362.1845 80.5 L 362.6845 80.5 L 362.6845 157.5 L 362.1845 195 L 2 195 L 2 157 L 2 81 L 2 5 L 73.5 5 L 218.5 4.5 Z M 218.5 5 "/>
</clipPath>
<g clip-path="url(#cp77)">
<clipPath id="cp78">
<path transform="matrix(1,0,0,-1,0,200)" d="M 74.5 5.5 L 145.5 5.5 L 145.5 17 L 74.5 17 Z "/>
</clipPath>
<g clip-path="url(#cp78)">
<path transform="matrix(1,0,0,-1,0,200)" d="M 76.5 5.5 L 143.5 5.5 L 143.5 14 L 76.5 14 Z " fill-opacity="0"/>
<text xml:space="preserve" transform="matrix(1 0 -0 1 97 191)" font-size="6" font-family="LinLibertineO"><tspan y="0" x="0 2.1360002 3.6360002 7.848 9.348 12.2699999 13.7699999 17.981999 21.509999 23.141999 24.641999">[ &#x00d8; &#x003e; OBJ ]</tspan></text>
</g>
</g>
<clipPath id="cp79">
<path transform="matrix(1,0,0,-1,0,200)" d="M 218.5 5 L 362.1845 5 L 362.1845 80.5 L 362.6845 80.5 L 362.6845 157.5 L 362.1845 195 L 2 195 L 2 157 L 2 81 L 2 5 L 73.5 5 L 218.5 4.5 Z M 218.5 5 "/>
</clipPath>
<g clip-path="url(#cp79)">
<clipPath id="cp80">
<path transform="matrix(1,0,0,-1,0,200)" d="M 146.5 5.5 L 217.5 5.5 L 217.5 17 L 146.5 17 Z "/>
</clipPath>
<g clip-path="url(#cp80)">
<path transform="matrix(1,0,0,-1,0,200)" d="M 148.5 5.5 L 215.5 5.5 L 215.5 14 L 148.5 14 Z " fill-opacity="0"/>
<text xml:space="preserve" transform="matrix(1 0 -0 1 169 191)" font-size="6" font-family="LinLibertineO"><tspan y="0" x="0 2.1360002 3.6360002 7.848 9.348 12.2699999 13.7699999 17.13 20.657999 22.289999 23.789999">[ &#x00d8; &#x003e; PBJ ]</tspan></text>
</g>
</g>
<clipPath id="cp81">
<path transform="matrix(1,0,0,-1,0,200)" d="M 218.5 5 L 362.1845 5 L 362.1845 80.5 L 362.6845 80.5 L 362.6845 157.5 L 362.1845 195 L 2 195 L 2 157 L 2 81 L 2 5 L 73.5 5 L 218.5 4.5 Z M 218.5 5 "/>
</clipPath>
<g clip-path="url(#cp81)">
<clipPath id="cp82">
<path transform="matrix(1,0,0,-1,0,200)" d="M 0 0 L 380 0 L 380 200 L 0 200 Z "/>
</clipPath>
<g clip-path="url(#cp82)">
<path transform="matrix(1,0,0,1,1,4)" stroke-width=".5" stroke-linecap="butt" stroke-miterlimit="4" stroke-linejoin="miter" fill="none" stroke="#7f7f7f" d="M 145 38.5 L 145 77 "/>
<path transform="matrix(1,0,0,1,1,4)" stroke-width=".5" stroke-linecap="butt" stroke-miterlimit="4" stroke-linejoin="miter" fill="none" stroke="#7f7f7f" d="M 145 77 L 145 114.5 "/>
<path transform="matrix(1,0,0,1,1,4)" stroke-width="1" stroke-linecap="butt" stroke-miterlimit="4" stroke-linejoin="miter" fill="none" stroke="#000000" d="M 145 114.5 L 145 153 "/>
<path transform="matrix(1,0,0,1,1,4)" stroke-width="1" stroke-linecap="butt" stroke-miterlimit="4" stroke-linejoin="miter" fill="none" stroke="#000000" d="M 145 153 L 145 191.5 "/>
<path transform="matrix(1,0,0,1,1,4)" stroke-width="1" stroke-linecap="butt" stroke-miterlimit="4" stroke-linejoin="miter" fill="none" stroke="#000000" d="M 217 38.5 L 217 77.5 "/>
<path transform="matrix(1,0,0,1,1,4)" stroke-width=".5" stroke-linecap="butt" stroke-miterlimit="4" stroke-linejoin="miter" fill="none" stroke="#7f7f7f" d="M 217 77.5 L 217 115 "/>
<path transform="matrix(1,0,0,1,1,4)" stroke-width=".5" stroke-linecap="butt" stroke-miterlimit="4" stroke-linejoin="miter" fill="none" stroke="#7f7f7f" d="M 217 115 L 217 152.5 "/>
<path transform="matrix(1,0,0,1,1,4)" stroke-width="1" stroke-linecap="butt" stroke-miterlimit="4" stroke-linejoin="miter" fill="none" stroke="#000000" d="M 217 152.5 L 217 191.5 "/>
<path transform="matrix(1,0,0,1,1,4)" stroke-width="1" stroke-linecap="butt" stroke-miterlimit="4" stroke-linejoin="miter" fill="none" stroke="#000000" d="M 289 38.5 L 289 77 "/>
<path transform="matrix(1,0,0,1,1,4)" stroke-width="1" stroke-linecap="butt" stroke-miterlimit="4" stroke-linejoin="miter" fill="none" stroke="#000000" d="M 289 77 L 289 115.5 "/>
<path transform="matrix(1,0,0,1,1,4)" stroke-width=".5" stroke-linecap="butt" stroke-miterlimit="4" stroke-linejoin="miter" fill="none" stroke="#7f7f7f" d="M 289 115.5 L 289 153.5 "/>
<path transform="matrix(1,0,0,1,1,4)" stroke-width=".5" stroke-linecap="butt" stroke-miterlimit="4" stroke-linejoin="miter" fill="none" stroke="#7f7f7f" d="M 72.5 77 L 145 77 "/>
<path transform="matrix(1,0,0,1,1,4)" stroke-width=".5" stroke-linecap="butt" stroke-miterlimit="4" stroke-linejoin="miter" fill="none" stroke="#7f7f7f" d="M 145 77 L 216.5 77 "/>
<path transform="matrix(1,0,0,1,1,4)" stroke-width="1" stroke-linecap="butt" stroke-miterlimit="4" stroke-linejoin="miter" fill="none" stroke="#000000" d="M 216.5 77 L 289 77 "/>
<path transform="matrix(1,0,0,1,1,4)" stroke-width="1" stroke-linecap="butt" stroke-miterlimit="4" stroke-linejoin="miter" fill="none" stroke="#000000" d="M 289 77 L 361.6845 77 "/>
<path transform="matrix(1,0,0,1,1,4)" stroke-width="1" stroke-linecap="butt" stroke-miterlimit="4" stroke-linejoin="miter" fill="none" stroke="#000000" d="M 72.5 115 L 145.5 115 "/>
<path transform="matrix(1,0,0,1,1,4)" stroke-width=".5" stroke-linecap="butt" stroke-miterlimit="4" stroke-linejoin="miter" fill="none" stroke="#7f7f7f" d="M 145.5 115 L 217 115 "/>
<path transform="matrix(1,0,0,1,1,4)" stroke-width=".5" stroke-linecap="butt" stroke-miterlimit="4" stroke-linejoin="miter" fill="none" stroke="#7f7f7f" d="M 217 115 L 288.5 115 "/>
<path transform="matrix(1,0,0,1,1,4)" stroke-width="1" stroke-linecap="butt" stroke-miterlimit="4" stroke-linejoin="miter" fill="none" stroke="#000000" d="M 288.5 115 L 361.6845 115 "/>
<path transform="matrix(1,0,0,1,1,4)" stroke-width="1" stroke-linecap="butt" stroke-miterlimit="4" stroke-linejoin="miter" fill="none" stroke="#000000" d="M 72.5 153 L 145 153 "/>
<path transform="matrix(1,0,0,1,1,4)" stroke-width="1" stroke-linecap="butt" stroke-miterlimit="4" stroke-linejoin="miter" fill="none" stroke="#000000" d="M 145 153 L 217.5 153 "/>
<path transform="matrix(1,0,0,1,1,4)" stroke-width=".5" stroke-linecap="butt" stroke-miterlimit="4" stroke-linejoin="miter" fill="none" stroke="#7f7f7f" d="M 217.5 153 L 289.5 153 "/>
<path transform="matrix(1,0,0,1,1,4)" stroke-width=".5" stroke-linecap="butt" stroke-miterlimit="4" stroke-linejoin="miter" fill="none" stroke="#7f7f7f" d="M 73 38.5 L 73 77 "/>
<path transform="matrix(1,0,0,1,1,4)" stroke-width=".5" stroke-linecap="butt" stroke-miterlimit="4" stroke-linejoin="miter" fill="none" stroke="#7f7f7f" d="M 73 77 L 73 114.5 "/>
<path transform="matrix(1,0,0,1,1,4)" stroke-width="1" stroke-linecap="butt" stroke-miterlimit="4" stroke-linejoin="miter" fill="none" stroke="#000000" d="M 73 114.5 L 73 153 "/>
<path transform="matrix(1,0,0,1,1,4)" stroke-width="1" stroke-linecap="butt" stroke-miterlimit="4" stroke-linejoin="miter" fill="none" stroke="#000000" d="M 73 153 L 73 191.5 "/>
<path transform="matrix(1,0,0,1,1,4)" stroke-width=".5" stroke-linecap="butt" stroke-miterlimit="4" stroke-linejoin="miter" fill="none" stroke="#7f7f7f" d="M 72.5 39 L 145 39 "/>
<path transform="matrix(1,0,0,1,1,4)" stroke-width=".5" stroke-linecap="butt" stroke-miterlimit="4" stroke-linejoin="miter" fill="none" stroke="#7f7f7f" d="M 145 39 L 216.5 39 "/>
<path transform="matrix(1,0,0,1,1,4)" stroke-width="1" stroke-linecap="butt" stroke-miterlimit="4" stroke-linejoin="miter" fill="none" stroke="#000000" d="M 216.5 39 L 361.6845 39 "/>
<path transform="matrix(1,0,0,1,1,4)" stroke-width="1" stroke-linecap="butt" stroke-miterlimit="4" stroke-linejoin="miter" fill="none" stroke="#000000" d="M 361.1845 38.5 L 361.1845 77 "/>
<path transform="matrix(1,0,0,1,1,4)" stroke-width="1" stroke-linecap="butt" stroke-miterlimit="4" stroke-linejoin="miter" fill="none" stroke="#000000" d="M 361.1845 77 L 361.1845 115.5 "/>
<path transform="matrix(1,0,0,1,1,4)" stroke-width="1" stroke-linecap="butt" stroke-miterlimit="4" stroke-linejoin="miter" fill="none" stroke="#000000" d="M 72.5 191 L 145 191 "/>
<path transform="matrix(1,0,0,1,1,4)" stroke-width="1" stroke-linecap="butt" stroke-miterlimit="4" stroke-linejoin="miter" fill="none" stroke="#000000" d="M 145 191 L 217.5 191 "/>
</g>
</g>
</g>
</svg>
