<?xml version="1.0" encoding="UTF-8" standalone="no"?>
<!DOCTYPE svg PUBLIC "-//W3C//DTD SVG 1.1//EN" "http://www.w3.org/Graphics/SVG/1.1/DTD/svg11.dtd">
<svg xmlns="http://www.w3.org/2000/svg" xmlns:xlink="http://www.w3.org/1999/xlink" version="1.1" width="380pt" height="200pt" viewBox="0 0 380 200">
<g enable-background="new">
<clipPath id="cp0">
<path transform="matrix(1,0,0,-1,0,200)" d="M 0 0 L 380 0 L 380 200 L 0 200 Z "/>
</clipPath>
<g clip-path="url(#cp0)">
<path transform="matrix(1,0,0,-1,0,200)" d="M 0 200 L 380 200 L 380 0 L 0 0 Z " fill="#ffffff"/>
<g id="Layer-1" data-name="P">
<g id="Layer-2" data-name="P">
<g id="Layer-3" data-name="P">
<g id="Layer-4" data-name="P">
</g>
<clipPath id="cp1">
<path transform="matrix(1,0,0,-1,0,200)" d="M 146.5 4.75 L 362.4345 4.75 L 362.4345 42.5 L 362.6845 42.5 L 362.6845 157.5 L 362.1845 195 L 2 195 L 2 157 L 2 43 L 2 5 L 73.5 5 L 146.5 4.5 Z M 146.5 4.75 "/>
</clipPath>
<g clip-path="url(#cp1)">
<clipPath id="cp2">
<path transform="matrix(1,0,0,-1,0,200)" d="M 0 0 L 380 0 L 380 200 L 0 200 Z "/>
</clipPath>
<g clip-path="url(#cp2)">
<path transform="matrix(1,0,0,-1,0,200)" d="M 2 195 L 74 195 L 74 169 L 2 169 Z " fill="#d665c8" fill-opacity="0"/>
</g>
<g id="Layer-4" data-name="P">
</g>
</g>
<clipPath id="cp3">
<path transform="matrix(1,0,0,-1,0,200)" d="M 146.5 4.75 L 362.4345 4.75 L 362.4345 42.5 L 362.6845 42.5 L 362.6845 157.5 L 362.1845 195 L 2 195 L 2 157 L 2 43 L 2 5 L 73.5 5 L 146.5 4.5 Z M 146.5 4.75 "/>
</clipPath>
<g clip-path="url(#cp3)">
<clipPath id="cp4">
<path transform="matrix(1,0,0,-1,0,200)" d="M 74 169 L 146 169 L 146 195 L 74 195 Z "/>
</clipPath>
<g clip-path="url(#cp4)">
<path transform="matrix(1,0,0,-1,0,200)" d="M 76 192 L 144 192 L 144 169 L 76 169 Z " fill-opacity="0"/>
<g id="Layer-5" data-name="P">
<text fill="#5e5e5e" xml:space="preserve" transform="matrix(1 0 -0 1 93.1655 15.7859959)" font-size="9" font-family="LinLibertineO"><tspan y="0" x="0 4.806 9.342001 11.592001 17.406002 21.519001 25.029002 29.115002 33.669004 35.919004">To Cased  </tspan></text>
<text fill="#5e5e5e" xml:space="preserve" transform="matrix(1 0 -0 1 98.0075 25.785996)" font-size="9" font-family="LinLibertineO"><tspan y="0" x="0 6.3180005 10.755001 13.203001 17.289002 21.141003">Object</tspan></text>
</g>
</g>
<g id="Layer-4" data-name="P">
</g>
</g>
<clipPath id="cp5">
<path transform="matrix(1,0,0,-1,0,200)" d="M 146.5 4.75 L 362.4345 4.75 L 362.4345 42.5 L 362.6845 42.5 L 362.6845 157.5 L 362.1845 195 L 2 195 L 2 157 L 2 43 L 2 5 L 73.5 5 L 146.5 4.5 Z M 146.5 4.75 "/>
</clipPath>
<g clip-path="url(#cp5)">
<clipPath id="cp6">
<path transform="matrix(1,0,0,-1,0,200)" d="M 146 169 L 218 169 L 218 195 L 146 195 Z "/>
</clipPath>
<g clip-path="url(#cp6)">
<path transform="matrix(1,0,0,-1,0,200)" d="M 148 192 L 216 192 L 216 169 L 148 169 Z " fill-opacity="0"/>
<g id="Layer-5" data-name="P">
<text fill="#5e5e5e" xml:space="preserve" transform="matrix(1 0 -0 1 158.24 15.7859959)" font-size="9" font-family="LinLibertineO"><tspan y="0" x="0 4.806 9.342001 11.592001 17.757002 22.230004 26.631003 30.654004 34.002004 38.880006 42.966005 47.520006">To Governed </tspan></text>
<text fill="#5e5e5e" xml:space="preserve" transform="matrix(1 0 -0 1 160.958 25.785996)" font-size="9" font-family="LinLibertineO"><tspan y="0" x="0 4.869 8.145 12.168001 16.902 21.438 24.948 27.387001 30.231 32.670003 37.206">Preposition</tspan></text>
</g>
</g>
<g id="Layer-4" data-name="P">
</g>
</g>
<clipPath id="cp7">
<path transform="matrix(1,0,0,-1,0,200)" d="M 146.5 4.75 L 362.4345 4.75 L 362.4345 42.5 L 362.6845 42.5 L 362.6845 157.5 L 362.1845 195 L 2 195 L 2 157 L 2 43 L 2 5 L 73.5 5 L 146.5 4.5 Z M 146.5 4.75 "/>
</clipPath>
<g clip-path="url(#cp7)">
<clipPath id="cp8">
<path transform="matrix(1,0,0,-1,0,200)" d="M 218 169 L 290 169 L 290 195 L 218 195 Z "/>
</clipPath>
<g clip-path="url(#cp8)">
<path transform="matrix(1,0,0,-1,0,200)" d="M 220 192 L 288 192 L 288 169 L 220 169 Z " fill-opacity="0"/>
<g id="Layer-5" data-name="P">
<text fill="#5e5e5e" xml:space="preserve" transform="matrix(1 0 -0 1 249.329 15.7859959)" font-size="9" font-family="LinLibertineO"><tspan y="0" x="0 4.806 9.342001 11.592001">To  </tspan></text>
<text fill="#5e5e5e" xml:space="preserve" transform="matrix(1 0 -0 1 239.249 25.785996)" font-size="9" font-family="LinLibertineO"><tspan y="0" x="0 6.147001 10.701001 13.149001 17.928002 22.806002 26.658">Adjunct</tspan></text>
</g>
</g>
<g id="Layer-4" data-name="P">
</g>
</g>
<clipPath id="cp9">
<path transform="matrix(1,0,0,-1,0,200)" d="M 146.5 4.75 L 362.4345 4.75 L 362.4345 42.5 L 362.6845 42.5 L 362.6845 157.5 L 362.1845 195 L 2 195 L 2 157 L 2 43 L 2 5 L 73.5 5 L 146.5 4.5 Z M 146.5 4.75 "/>
</clipPath>
<g clip-path="url(#cp9)">
<clipPath id="cp10">
<path transform="matrix(1,0,0,-1,0,200)" d="M 290 169 L 362.18449 169 L 362.18449 195 L 290 195 Z "/>
</clipPath>
<g clip-path="url(#cp10)">
<path transform="matrix(1,0,0,-1,0,200)" d="M 292 192 L 360.1845 192 L 360.1845 169 L 292 169 Z " fill-opacity="0"/>
<g id="Layer-5" data-name="P">
<text fill="#5e5e5e" xml:space="preserve" transform="matrix(1 0 -0 1 321.4212 15.7859959)" font-size="9" font-family="LinLibertineO"><tspan y="0" x="0 4.806 9.342001 11.592001">To  </tspan></text>
<text fill="#5e5e5e" xml:space="preserve" transform="matrix(1 0 -0 1 302.6787 25.785996)" font-size="9" font-family="LinLibertineO"><tspan y="0" x="0 5.9490005 10.827001 14.787001 19.197 23.868 27.144 31.167 34.677003 38.187005 42.273004">Unexpressed</tspan></text>
</g>
</g>
</g>
<g id="Layer-3" data-name="P">
<g id="Layer-4" data-name="P">
</g>
</g>
<clipPath id="cp11">
<path transform="matrix(1,0,0,-1,0,200)" d="M 146.5 4.75 L 362.4345 4.75 L 362.4345 42.5 L 362.6845 42.5 L 362.6845 157.5 L 362.1845 195 L 2 195 L 2 157 L 2 43 L 2 5 L 73.5 5 L 146.5 4.5 Z M 146.5 4.75 "/>
</clipPath>
<g clip-path="url(#cp11)">
<clipPath id="cp12">
<path transform="matrix(1,0,0,-1,0,200)" d="M 0 0 L 380 0 L 380 200 L 0 200 Z "/>
</clipPath>
<g clip-path="url(#cp12)">
<path transform="matrix(1,0,0,-1,0,200)" d="M 2 169 L 74 169 L 74 157 L 2 157 Z " fill="#cce832" fill-opacity="0"/>
</g>
<g id="Layer-4" data-name="P">
</g>
</g>
<clipPath id="cp13">
<path transform="matrix(1,0,0,-1,0,200)" d="M 146.5 4.75 L 362.4345 4.75 L 362.4345 42.5 L 362.6845 42.5 L 362.6845 157.5 L 362.1845 195 L 2 195 L 2 157 L 2 43 L 2 5 L 73.5 5 L 146.5 4.5 Z M 146.5 4.75 "/>
</clipPath>
<g clip-path="url(#cp13)">
<clipPath id="cp14">
<path transform="matrix(1,0,0,-1,0,200)" d="M 74 157.5 L 146 157.5 L 146 169 L 74 169 Z "/>
</clipPath>
<g clip-path="url(#cp14)">
<path transform="matrix(1,0,0,-1,0,200)" d="M 76 166 L 144 166 L 144 157.5 L 76 157.5 Z " fill-opacity="0"/>
<g id="Layer-5" data-name="P">
<text fill="#5e5e5e" xml:space="preserve" transform="matrix(1 0 -0 1 88.796 38.524003)" font-size="6" font-family="LinLibertineO"><tspan y="0" x="0 2.1360002 3.6360002 8.13 9.63 12.93 14.43 17.34 20.868 22.8 24.3 27.599999 29.099999 33.311998 36.839998 38.771997 40.271997">[ &#x2026; &#x003e; SBJ &#x003e; OBJ ]</tspan></text>
</g>
</g>
<g id="Layer-4" data-name="P">
</g>
</g>
<clipPath id="cp15">
<path transform="matrix(1,0,0,-1,0,200)" d="M 146.5 4.75 L 362.4345 4.75 L 362.4345 42.5 L 362.6845 42.5 L 362.6845 157.5 L 362.1845 195 L 2 195 L 2 157 L 2 43 L 2 5 L 73.5 5 L 146.5 4.5 Z M 146.5 4.75 "/>
</clipPath>
<g clip-path="url(#cp15)">
<clipPath id="cp16">
<path transform="matrix(1,0,0,-1,0,200)" d="M 146 157.5 L 218 157.5 L 218 169 L 146 169 Z "/>
</clipPath>
<g clip-path="url(#cp16)">
<path transform="matrix(1,0,0,-1,0,200)" d="M 148 166 L 216 166 L 216 157.5 L 148 157.5 Z " fill-opacity="0"/>
<g id="Layer-5" data-name="P">
<text fill="#5e5e5e" xml:space="preserve" transform="matrix(1 0 -0 1 161.279 38.524003)" font-size="6" font-family="LinLibertineO"><tspan y="0" x="0 2.1360002 3.6360002 8.13 9.63 12.93 14.43 17.34 20.868 22.8 24.3 27.599999 29.099999 32.345998 35.873998 37.805997 39.305997">[ &#x2026; &#x003e; SBJ &#x003e; PBJ ]</tspan></text>
</g>
</g>
<g id="Layer-4" data-name="P">
</g>
</g>
<clipPath id="cp17">
<path transform="matrix(1,0,0,-1,0,200)" d="M 146.5 4.75 L 362.4345 4.75 L 362.4345 42.5 L 362.6845 42.5 L 362.6845 157.5 L 362.1845 195 L 2 195 L 2 157 L 2 43 L 2 5 L 73.5 5 L 146.5 4.5 Z M 146.5 4.75 "/>
</clipPath>
<g clip-path="url(#cp17)">
<clipPath id="cp18">
<path transform="matrix(1,0,0,-1,0,200)" d="M 218 157.5 L 290 157.5 L 290 169 L 218 169 Z "/>
</clipPath>
<g clip-path="url(#cp18)">
<path transform="matrix(1,0,0,-1,0,200)" d="M 220 166 L 288 166 L 288 157.5 L 220 157.5 Z " fill-opacity="0"/>
<g id="Layer-5" data-name="P">
<text fill="#5e5e5e" xml:space="preserve" transform="matrix(1 0 -0 1 232.478 38.524003)" font-size="6" font-family="LinLibertineO"><tspan y="0" x="0 2.1360002 3.6360002 8.13 9.63 12.93 14.43 17.34 20.868 22.8 24.3 27.599999 29.099999 33.269998 37.475999 39.407999 40.907999">[ &#x2026; &#x003e; SBJ &#x003e; ADJ ]</tspan></text>
</g>
</g>
<g id="Layer-4" data-name="P">
</g>
</g>
<clipPath id="cp19">
<path transform="matrix(1,0,0,-1,0,200)" d="M 146.5 4.75 L 362.4345 4.75 L 362.4345 42.5 L 362.6845 42.5 L 362.6845 157.5 L 362.1845 195 L 2 195 L 2 157 L 2 43 L 2 5 L 73.5 5 L 146.5 4.5 Z M 146.5 4.75 "/>
</clipPath>
<g clip-path="url(#cp19)">
<clipPath id="cp20">
<path transform="matrix(1,0,0,-1,0,200)" d="M 290 157.5 L 362.18449 157.5 L 362.18449 169 L 290 169 Z "/>
</clipPath>
<g clip-path="url(#cp20)">
<path transform="matrix(1,0,0,-1,0,200)" d="M 292 166 L 360.1845 166 L 360.1845 157.5 L 292 157.5 Z " fill-opacity="0"/>
<g id="Layer-5" data-name="P">
<text fill="#5e5e5e" xml:space="preserve" transform="matrix(1 0 -0 1 307.6182 38.524003)" font-size="6" font-family="LinLibertineO"><tspan y="0" x="0 2.1360002 3.6360002 8.13 9.63 12.93 14.43 17.34 20.868 22.8 24.3 27.599999 29.099999 33.311998 34.811998">[ &#x2026; &#x003e; SBJ &#x003e; &#x00d8; ]</tspan></text>
</g>
</g>
</g>
</g>
<g id="Layer-2" data-name="P">
<g id="Layer-3" data-name="P">
<g id="Layer-4" data-name="P">
</g>
</g>
<clipPath id="cp21">
<path transform="matrix(1,0,0,-1,0,200)" d="M 146.5 4.75 L 362.4345 4.75 L 362.4345 42.5 L 362.6845 42.5 L 362.6845 157.5 L 362.1845 195 L 2 195 L 2 157 L 2 43 L 2 5 L 73.5 5 L 146.5 4.5 Z M 146.5 4.75 "/>
</clipPath>
<g clip-path="url(#cp21)">
<clipPath id="cp22">
<path transform="matrix(1,0,0,-1,0,200)" d="M 2 131 L 73.5 131 L 73.5 157 L 2 157 Z "/>
</clipPath>
<g clip-path="url(#cp22)">
<path transform="matrix(1,0,0,-1,0,200)" d="M 4 154 L 71.5 154 L 71.5 131 L 4 131 Z " fill-opacity="0"/>
<g id="Layer-5" data-name="P">
<text fill="#5e5e5e" xml:space="preserve" transform="matrix(1 0 -0 1 15.943 53.785997)" font-size="9" font-family="LinLibertineO"><tspan y="0" x="0 4.3650004 7.6410005 12.177 19.287 21.537 27.351002 31.464 34.974 39.059999 43.614">From Cased </tspan></text>
<text fill="#5e5e5e" xml:space="preserve" transform="matrix(1 0 -0 1 25.7575 63.785997)" font-size="9" font-family="LinLibertineO"><tspan y="0" x="0 6.3180005 10.755001 13.203001 17.289002 21.141003">Object</tspan></text>
</g>
</g>
<g id="Layer-4" data-name="P">
</g>
</g>
<clipPath id="cp23">
<path transform="matrix(1,0,0,-1,0,200)" d="M 146.5 4.75 L 362.4345 4.75 L 362.4345 42.5 L 362.6845 42.5 L 362.6845 157.5 L 362.1845 195 L 2 195 L 2 157 L 2 43 L 2 5 L 73.5 5 L 146.5 4.5 Z M 146.5 4.75 "/>
</clipPath>
<g clip-path="url(#cp23)">
<clipPath id="cp24">
<path transform="matrix(1,0,0,-1,0,200)" d="M 74.5 131 L 145.5 131 L 145.5 156.5 L 74.5 156.5 Z "/>
</clipPath>
<g clip-path="url(#cp24)">
<path transform="matrix(1,0,0,-1,0,200)" d="M 76.5 148.5 L 143.5 148.5 L 143.5 131 L 76.5 131 Z " fill-opacity="0"/>
<g id="Layer-5" data-name="P">
<text xml:space="preserve" transform="matrix(1 0 -0 1 91.19 59.285997)" font-size="9" font-family="LinLibertineOB" font-weight="bold"><tspan y="0" x="0 3.3030003 8.847001 13.536002 17.937003 21.789002 25.632002 28.530003 33.219007">Inversive</tspan></text>
</g>
</g>
<g id="Layer-4" data-name="P">
</g>
</g>
<clipPath id="cp25">
<path transform="matrix(1,0,0,-1,0,200)" d="M 146.5 4.75 L 362.4345 4.75 L 362.4345 42.5 L 362.6845 42.5 L 362.6845 157.5 L 362.1845 195 L 2 195 L 2 157 L 2 43 L 2 5 L 73.5 5 L 146.5 4.5 Z M 146.5 4.75 "/>
</clipPath>
<g clip-path="url(#cp25)">
<clipPath id="cp26">
<path transform="matrix(1,0,0,-1,0,200)" d="M 146.5 131 L 217.5 131 L 217.5 156.5 L 146.5 156.5 Z "/>
</clipPath>
<g clip-path="url(#cp26)">
<path transform="matrix(1,0,0,-1,0,200)" d="M 148.5 148.5 L 215.5 148.5 L 215.5 131 L 148.5 131 Z " fill-opacity="0"/>
<g id="Layer-5" data-name="P">
<text xml:space="preserve" transform="matrix(1 0 -0 1 159.185 59.285997)" font-size="9" font-family="LinLibertineOB" font-weight="bold"><tspan y="0" x="0 6.354 11.313 16.857 21.546 25.946999 29.799 33.642 36.539999 41.229">Conversive</tspan></text>
</g>
</g>
<g id="Layer-4" data-name="P">
</g>
</g>
<clipPath id="cp27">
<path transform="matrix(1,0,0,-1,0,200)" d="M 146.5 4.75 L 362.4345 4.75 L 362.4345 42.5 L 362.6845 42.5 L 362.6845 157.5 L 362.1845 195 L 2 195 L 2 157 L 2 43 L 2 5 L 73.5 5 L 146.5 4.5 Z M 146.5 4.75 "/>
</clipPath>
<g clip-path="url(#cp27)">
<clipPath id="cp28">
<path transform="matrix(1,0,0,-1,0,200)" d="M 218.5 131 L 289.5 131 L 289.5 156.5 L 218.5 156.5 Z "/>
</clipPath>
<g clip-path="url(#cp28)">
<path transform="matrix(1,0,0,-1,0,200)" d="M 220.5 148.5 L 287.5 148.5 L 287.5 131 L 220.5 131 Z " fill-opacity="0"/>
<g id="Layer-5" data-name="P">
<text xml:space="preserve" transform="matrix(1 0 -0 1 239.123 59.285997)" font-size="9" font-family="LinLibertineOB" font-weight="bold"><tspan y="0" x="0 5.526 10.08 13.923 17.766 20.664002 25.353003">Passive</tspan></text>
</g>
</g>
<g id="Layer-4" data-name="P">
</g>
</g>
<clipPath id="cp29">
<path transform="matrix(1,0,0,-1,0,200)" d="M 146.5 4.75 L 362.4345 4.75 L 362.4345 42.5 L 362.6845 42.5 L 362.6845 157.5 L 362.1845 195 L 2 195 L 2 157 L 2 43 L 2 5 L 73.5 5 L 146.5 4.5 Z M 146.5 4.75 "/>
</clipPath>
<g clip-path="url(#cp29)">
<clipPath id="cp30">
<path transform="matrix(1,0,0,-1,0,200)" d="M 290.5 131 L 361.68449 131 L 361.68449 156.5 L 290.5 156.5 Z "/>
</clipPath>
<g clip-path="url(#cp30)">
<path transform="matrix(1,0,0,-1,0,200)" d="M 292.5 148.5 L 359.6845 148.5 L 359.6845 131 L 292.5 131 Z " fill-opacity="0"/>
<g id="Layer-5" data-name="P">
<text xml:space="preserve" transform="matrix(1 0 -0 1 298.1067 59.285997)" font-size="9" font-family="LinLibertineOB" font-weight="bold"><tspan y="0" x="0 6.66 12.204 15.426001 18.324002 22.428002 26.982003 32.364004 36.207 40.761 43.983 46.881 51.570005">Anticausative</tspan></text>
</g>
</g>
</g>
<g id="Layer-3" data-name="P">
<g id="Layer-4" data-name="P">
</g>
</g>
<clipPath id="cp31">
<path transform="matrix(1,0,0,-1,0,200)" d="M 146.5 4.75 L 362.4345 4.75 L 362.4345 42.5 L 362.6845 42.5 L 362.6845 157.5 L 362.1845 195 L 2 195 L 2 157 L 2 43 L 2 5 L 73.5 5 L 146.5 4.5 Z M 146.5 4.75 "/>
</clipPath>
<g clip-path="url(#cp31)">
<clipPath id="cp32">
<path transform="matrix(1,0,0,-1,0,200)" d="M 2 119 L 73.5 119 L 73.5 131 L 2 131 Z "/>
</clipPath>
<g clip-path="url(#cp32)">
<path transform="matrix(1,0,0,-1,0,200)" d="M 4 128 L 71.5 128 L 71.5 119 L 4 119 Z " fill-opacity="0"/>
<g id="Layer-5" data-name="P">
<text fill="#5e5e5e" xml:space="preserve" transform="matrix(1 0 -0 1 17.296 76.524)" font-size="6" font-family="LinLibertineO"><tspan y="0" x="0 2.1360002 3.6360002 7.848 11.375999 13.308 14.808 18.108 21.018 24.546 26.478 27.978 31.278 32.778 37.272 38.772">[ OBJ &#x003e;SBJ &#x003e; &#x2026; ]</tspan></text>
</g>
</g>
<g id="Layer-4" data-name="P">
</g>
</g>
<clipPath id="cp33">
<path transform="matrix(1,0,0,-1,0,200)" d="M 146.5 4.75 L 362.4345 4.75 L 362.4345 42.5 L 362.6845 42.5 L 362.6845 157.5 L 362.1845 195 L 2 195 L 2 157 L 2 43 L 2 5 L 73.5 5 L 146.5 4.5 Z M 146.5 4.75 "/>
</clipPath>
<g clip-path="url(#cp33)">
<clipPath id="cp34">
<path transform="matrix(1,0,0,-1,0,200)" d="M 74.5 119.5 L 145.5 119.5 L 145.5 131 L 74.5 131 Z "/>
</clipPath>
<g clip-path="url(#cp34)">
<path transform="matrix(1,0,0,-1,0,200)" d="M 76.5 128 L 143.5 128 L 143.5 119.5 L 76.5 119.5 Z " fill-opacity="0"/>
<g id="Layer-5" data-name="P">
<text xml:space="preserve" transform="matrix(1 0 -0 1 86.207 76.524)" font-size="6" font-family="LinLibertineO"><tspan y="0" x="0 2.1360002 3.6360002 7.848 11.375999 13.308 14.808 18.108 19.608 22.518 26.046 27.978 29.478 32.778 34.278 38.489999 42.017999 43.949998 45.449998">[ OBJ &#x003e; SBJ &#x003e; OBJ ]</tspan></text>
</g>
</g>
<g id="Layer-4" data-name="P">
</g>
</g>
<clipPath id="cp35">
<path transform="matrix(1,0,0,-1,0,200)" d="M 146.5 4.75 L 362.4345 4.75 L 362.4345 42.5 L 362.6845 42.5 L 362.6845 157.5 L 362.1845 195 L 2 195 L 2 157 L 2 43 L 2 5 L 73.5 5 L 146.5 4.5 Z M 146.5 4.75 "/>
</clipPath>
<g clip-path="url(#cp35)">
<clipPath id="cp36">
<path transform="matrix(1,0,0,-1,0,200)" d="M 146.5 119.5 L 217.5 119.5 L 217.5 131 L 146.5 131 Z "/>
</clipPath>
<g clip-path="url(#cp36)">
<path transform="matrix(1,0,0,-1,0,200)" d="M 148.5 128 L 215.5 128 L 215.5 119.5 L 148.5 119.5 Z " fill-opacity="0"/>
<g id="Layer-5" data-name="P">
<text xml:space="preserve" transform="matrix(1 0 -0 1 158.69 76.524)" font-size="6" font-family="LinLibertineO"><tspan y="0" x="0 2.1360002 3.6360002 7.848 11.375999 13.308 14.808 18.108 19.608 22.518 26.046 27.978 29.478 32.778 34.278 37.524 41.052 42.983999 44.483999">[ OBJ &#x003e; SBJ &#x003e; PBJ ]</tspan></text>
</g>
</g>
<g id="Layer-4" data-name="P">
</g>
</g>
<clipPath id="cp37">
<path transform="matrix(1,0,0,-1,0,200)" d="M 146.5 4.75 L 362.4345 4.75 L 362.4345 42.5 L 362.6845 42.5 L 362.6845 157.5 L 362.1845 195 L 2 195 L 2 157 L 2 43 L 2 5 L 73.5 5 L 146.5 4.5 Z M 146.5 4.75 "/>
</clipPath>
<g clip-path="url(#cp37)">
<clipPath id="cp38">
<path transform="matrix(1,0,0,-1,0,200)" d="M 218.5 119.5 L 289.5 119.5 L 289.5 131 L 218.5 131 Z "/>
</clipPath>
<g clip-path="url(#cp38)">
<path transform="matrix(1,0,0,-1,0,200)" d="M 220.5 128 L 287.5 128 L 287.5 119.5 L 220.5 119.5 Z " fill-opacity="0"/>
<g id="Layer-5" data-name="P">
<text xml:space="preserve" transform="matrix(1 0 -0 1 229.889 76.524)" font-size="6" font-family="LinLibertineO"><tspan y="0" x="0 2.1360002 3.6360002 7.848 11.375999 13.308 14.808 18.108 19.608 22.518 26.046 27.978 29.478 32.778 34.278 38.447999 42.654 44.586 46.086">[ OBJ &#x003e; SBJ &#x003e; ADJ ]</tspan></text>
</g>
</g>
<g id="Layer-4" data-name="P">
</g>
</g>
<clipPath id="cp39">
<path transform="matrix(1,0,0,-1,0,200)" d="M 146.5 4.75 L 362.4345 4.75 L 362.4345 42.5 L 362.6845 42.5 L 362.6845 157.5 L 362.1845 195 L 2 195 L 2 157 L 2 43 L 2 5 L 73.5 5 L 146.5 4.5 Z M 146.5 4.75 "/>
</clipPath>
<g clip-path="url(#cp39)">
<clipPath id="cp40">
<path transform="matrix(1,0,0,-1,0,200)" d="M 290.5 119.5 L 361.68449 119.5 L 361.68449 131 L 290.5 131 Z "/>
</clipPath>
<g clip-path="url(#cp40)">
<path transform="matrix(1,0,0,-1,0,200)" d="M 292.5 128 L 359.6845 128 L 359.6845 119.5 L 292.5 119.5 Z " fill-opacity="0"/>
<g id="Layer-5" data-name="P">
<text xml:space="preserve" transform="matrix(1 0 -0 1 305.0292 76.524)" font-size="6" font-family="LinLibertineO"><tspan y="0" x="0 2.1360002 3.6360002 7.848 11.375999 13.308 14.808 18.108 19.608 22.518 26.046 27.978 29.478 32.778 34.278 38.489999 39.989999">[ OBJ &#x003e; SBJ &#x003e; &#x00d8; ]</tspan></text>
</g>
</g>
</g>
<g id="Layer-3" data-name="P">
<g id="Layer-4" data-name="P">
</g>
</g>
<clipPath id="cp41">
<path transform="matrix(1,0,0,-1,0,200)" d="M 146.5 4.75 L 362.4345 4.75 L 362.4345 42.5 L 362.6845 42.5 L 362.6845 157.5 L 362.1845 195 L 2 195 L 2 157 L 2 43 L 2 5 L 73.5 5 L 146.5 4.5 Z M 146.5 4.75 "/>
</clipPath>
<g clip-path="url(#cp41)">
<clipPath id="cp42">
<path transform="matrix(1,0,0,-1,0,200)" d="M 2 93 L 73.75 93 L 73.75 119 L 2 119 Z "/>
</clipPath>
<g clip-path="url(#cp42)">
<path transform="matrix(1,0,0,-1,0,200)" d="M 4 116 L 71.75 116 L 71.75 93 L 4 93 Z " fill-opacity="0"/>
<g id="Layer-5" data-name="P">
<text fill="#5e5e5e" xml:space="preserve" transform="matrix(1 0 -0 1 9.1425 91.786)" font-size="9" font-family="LinLibertineO"><tspan y="0" x="0 4.3650004 7.6410005 12.177 19.287 21.537 27.702002 32.175004 36.576005 40.599004 43.947004 48.825006 52.911005 57.465005">From Governed </tspan></text>
<text fill="#5e5e5e" xml:space="preserve" transform="matrix(1 0 -0 1 16.833 101.786)" font-size="9" font-family="LinLibertineO"><tspan y="0" x="0 4.869 8.145 12.168001 16.902 21.438 24.948 27.387001 30.231 32.670003 37.206">Preposition</tspan></text>
</g>
</g>
<g id="Layer-4" data-name="P">
</g>
</g>
<clipPath id="cp43">
<path transform="matrix(1,0,0,-1,0,200)" d="M 146.5 4.75 L 362.4345 4.75 L 362.4345 42.5 L 362.6845 42.5 L 362.6845 157.5 L 362.1845 195 L 2 195 L 2 157 L 2 43 L 2 5 L 73.5 5 L 146.5 4.5 Z M 146.5 4.75 "/>
</clipPath>
<g clip-path="url(#cp43)">
<clipPath id="cp44">
<path transform="matrix(1,0,0,-1,0,200)" d="M 74.25 93 L 145.75 93 L 145.75 118.5 L 74.25 118.5 Z "/>
</clipPath>
<g clip-path="url(#cp44)">
<path transform="matrix(1,0,0,-1,0,200)" d="M 76.25 115.5 L 143.75 115.5 L 143.75 93 L 76.25 93 Z " fill-opacity="0"/>
<g id="Layer-5" data-name="P">
<text xml:space="preserve" transform="matrix(1 0 -0 1 93.4175 92.286)" font-size="9" font-family="LinLibertineO"><tspan y="0" x="0 5.283 9.243 13.644 17.667 21.015 24.525 28.611 33.165">Reversed </tspan></text>
<text xml:space="preserve" transform="matrix(1 0 -0 1 89.3135 102.286)" font-size="9" font-family="LinLibertineO"><tspan y="0" x="0 5.814 10.35 15.228001 19.629 23.652 27 30.51 32.949 37.350004">Conversive</tspan></text>
</g>
</g>
<g id="Layer-4" data-name="P">
</g>
</g>
<clipPath id="cp45">
<path transform="matrix(1,0,0,-1,0,200)" d="M 146.5 4.75 L 362.4345 4.75 L 362.4345 42.5 L 362.6845 42.5 L 362.6845 157.5 L 362.1845 195 L 2 195 L 2 157 L 2 43 L 2 5 L 73.5 5 L 146.5 4.5 Z M 146.5 4.75 "/>
</clipPath>
<g clip-path="url(#cp45)">
<clipPath id="cp46">
<path transform="matrix(1,0,0,-1,0,200)" d="M 146.25 93 L 217.75 93 L 217.75 118.5 L 146.25 118.5 Z "/>
</clipPath>
<g clip-path="url(#cp46)">
<path transform="matrix(1,0,0,-1,0,200)" d="M 148.25 115.5 L 215.75 115.5 L 215.75 93 L 148.25 93 Z " fill-opacity="0"/>
<g id="Layer-5" data-name="P">
<text xml:space="preserve" transform="matrix(1 0 -0 1 165.634 92.286)" font-size="7" font-family="LinLibertineO"><tspan y="0" x="0 3.7870002 6.335 9.464001 13.146001 16.674002 19.404002 21.301 23.513 25.41 28.938">Preposition</tspan></text>
<text xml:space="preserve" transform="matrix(1 0 -0 1 165.634 92.286)" font-size="9" font-family="LinLibertineO"><tspan y="0" x="32.732"> </tspan></text>
<text xml:space="preserve" transform="matrix(1 0 -0 1 165.152 102.286)" font-size="9" font-family="LinLibertineO"><tspan y="0" x="0 2.673 7.5510008 11.952001 15.975 19.323 22.833 25.272 29.672999">Inversive</tspan></text>
</g>
</g>
<g id="Layer-4" data-name="P">
</g>
</g>
<clipPath id="cp47">
<path transform="matrix(1,0,0,-1,0,200)" d="M 146.5 4.75 L 362.4345 4.75 L 362.4345 42.5 L 362.6845 42.5 L 362.6845 157.5 L 362.1845 195 L 2 195 L 2 157 L 2 43 L 2 5 L 73.5 5 L 146.5 4.5 Z M 146.5 4.75 "/>
</clipPath>
<g clip-path="url(#cp47)">
<clipPath id="cp48">
<path transform="matrix(1,0,0,-1,0,200)" d="M 0 0 L 380 0 L 380 200 L 0 200 Z "/>
</clipPath>
<g clip-path="url(#cp48)">
<path transform="matrix(1,0,0,-1,0,200)" d="M 218 119 L 290 119 L 290 93 L 218 93 Z " fill="#55c447" fill-opacity="0"/>
</g>
<g id="Layer-4" data-name="P">
</g>
</g>
<clipPath id="cp49">
<path transform="matrix(1,0,0,-1,0,200)" d="M 146.5 4.75 L 362.4345 4.75 L 362.4345 42.5 L 362.6845 42.5 L 362.6845 157.5 L 362.1845 195 L 2 195 L 2 157 L 2 43 L 2 5 L 73.5 5 L 146.5 4.5 Z M 146.5 4.75 "/>
</clipPath>
<g clip-path="url(#cp49)">
<clipPath id="cp50">
<path transform="matrix(1,0,0,-1,0,200)" d="M 290.5 93 L 361.68449 93 L 361.68449 118.5 L 290.5 118.5 Z "/>
</clipPath>
<g clip-path="url(#cp50)">
<path transform="matrix(1,0,0,-1,0,200)" d="M 292.5 110.5 L 359.6845 110.5 L 359.6845 93 L 292.5 93 Z " fill-opacity="0"/>
<g id="Layer-5" data-name="P">
<text xml:space="preserve" transform="matrix(1 0 -0 1 303.6147 97.286)" font-size="9" font-family="LinLibertineOB" font-weight="bold"><tspan y="0" x="0 4.905 9.459001 14.337001 18.189002 21.087002 25.191002 29.745003 32.967004 35.865 40.554006">Fabricative</tspan></text>
</g>
</g>
</g>
<g id="Layer-3" data-name="P">
<g id="Layer-4" data-name="P">
</g>
</g>
<clipPath id="cp51">
<path transform="matrix(1,0,0,-1,0,200)" d="M 146.5 4.75 L 362.4345 4.75 L 362.4345 42.5 L 362.6845 42.5 L 362.6845 157.5 L 362.1845 195 L 2 195 L 2 157 L 2 43 L 2 5 L 73.5 5 L 146.5 4.5 Z M 146.5 4.75 "/>
</clipPath>
<g clip-path="url(#cp51)">
<clipPath id="cp52">
<path transform="matrix(1,0,0,-1,0,200)" d="M 2 81 L 73.75 81 L 73.75 93 L 2 93 Z "/>
</clipPath>
<g clip-path="url(#cp52)">
<path transform="matrix(1,0,0,-1,0,200)" d="M 4 90 L 71.75 90 L 71.75 81 L 4 81 Z " fill-opacity="0"/>
<g id="Layer-5" data-name="P">
<text fill="#5e5e5e" xml:space="preserve" transform="matrix(1 0 -0 1 17.154 114.524)" font-size="6" font-family="LinLibertineO"><tspan y="0" x="0 2.1360002 3.6360002 6.882 10.41 12.342 13.842 17.142 18.642 21.552 25.08 27.012001 28.512001 31.812 33.312 37.806 39.306">[ PBJ &#x003e; SBJ &#x003e; &#x2026; ]</tspan></text>
</g>
</g>
<g id="Layer-4" data-name="P">
</g>
</g>
<clipPath id="cp53">
<path transform="matrix(1,0,0,-1,0,200)" d="M 146.5 4.75 L 362.4345 4.75 L 362.4345 42.5 L 362.6845 42.5 L 362.6845 157.5 L 362.1845 195 L 2 195 L 2 157 L 2 43 L 2 5 L 73.5 5 L 146.5 4.5 Z M 146.5 4.75 "/>
</clipPath>
<g clip-path="url(#cp53)">
<clipPath id="cp54">
<path transform="matrix(1,0,0,-1,0,200)" d="M 74.25 81.25 L 145.75 81.25 L 145.75 93 L 74.25 93 Z "/>
</clipPath>
<g clip-path="url(#cp54)">
<path transform="matrix(1,0,0,-1,0,200)" d="M 76.25 90 L 143.75 90 L 143.75 81.25 L 76.25 81.25 Z " fill-opacity="0"/>
<g id="Layer-5" data-name="P">
<text xml:space="preserve" transform="matrix(1 0 -0 1 86.69 114.524)" font-size="6" font-family="LinLibertineO"><tspan y="0" x="0 2.1360002 3.6360002 6.882 10.41 12.342 13.842 17.142 18.642 21.552 25.08 27.012001 28.512001 31.812 33.312 37.524003 41.052003 42.984 44.484">[ PBJ &#x003e; SBJ &#x003e; OBJ ]</tspan></text>
</g>
</g>
<g id="Layer-4" data-name="P">
</g>
</g>
<clipPath id="cp55">
<path transform="matrix(1,0,0,-1,0,200)" d="M 146.5 4.75 L 362.4345 4.75 L 362.4345 42.5 L 362.6845 42.5 L 362.6845 157.5 L 362.1845 195 L 2 195 L 2 157 L 2 43 L 2 5 L 73.5 5 L 146.5 4.5 Z M 146.5 4.75 "/>
</clipPath>
<g clip-path="url(#cp55)">
<clipPath id="cp56">
<path transform="matrix(1,0,0,-1,0,200)" d="M 146.25 81.25 L 217.75 81.25 L 217.75 93 L 146.25 93 Z "/>
</clipPath>
<g clip-path="url(#cp56)">
<path transform="matrix(1,0,0,-1,0,200)" d="M 148.25 90 L 215.75 90 L 215.75 81.25 L 148.25 81.25 Z " fill-opacity="0"/>
<g id="Layer-5" data-name="P">
<text xml:space="preserve" transform="matrix(1 0 -0 1 159.173 114.524)" font-size="6" font-family="LinLibertineO"><tspan y="0" x="0 2.1360002 3.6360002 6.882 10.41 12.342 13.842 17.142 18.642 21.552 25.08 27.012001 28.512001 31.812 33.312 36.558 40.086 42.017999 43.517999">[ PBJ &#x003e; SBJ &#x003e; PBJ ]</tspan></text>
</g>
</g>
<g id="Layer-4" data-name="P">
</g>
</g>
<clipPath id="cp57">
<path transform="matrix(1,0,0,-1,0,200)" d="M 146.5 4.75 L 362.4345 4.75 L 362.4345 42.5 L 362.6845 42.5 L 362.6845 157.5 L 362.1845 195 L 2 195 L 2 157 L 2 43 L 2 5 L 73.5 5 L 146.5 4.5 Z M 146.5 4.75 "/>
</clipPath>
<g clip-path="url(#cp57)">
<clipPath id="cp58">
<path transform="matrix(1,0,0,-1,0,200)" d="M 218.25 81.25 L 289.5 81.25 L 289.5 93 L 218.25 93 Z "/>
</clipPath>
<g clip-path="url(#cp58)">
<path transform="matrix(1,0,0,-1,0,200)" d="M 220.25 90 L 287.5 90 L 287.5 81.25 L 220.25 81.25 Z " fill-opacity="0"/>
<g id="Layer-5" data-name="P">
<text xml:space="preserve" transform="matrix(1 0 -0 1 230.247 114.524)" font-size="6" font-family="LinLibertineO"><tspan y="0" x="0 2.1360002 3.6360002 6.882 10.41 12.342 13.842 17.142 18.642 21.552 25.08 27.012001 28.512001 31.812 33.312 37.482004 41.688005 43.620004 45.120004">[ PBJ &#x003e; SBJ &#x003e; ADJ ]</tspan></text>
</g>
</g>
<g id="Layer-4" data-name="P">
</g>
</g>
<clipPath id="cp59">
<path transform="matrix(1,0,0,-1,0,200)" d="M 146.5 4.75 L 362.4345 4.75 L 362.4345 42.5 L 362.6845 42.5 L 362.6845 157.5 L 362.1845 195 L 2 195 L 2 157 L 2 43 L 2 5 L 73.5 5 L 146.5 4.5 Z M 146.5 4.75 "/>
</clipPath>
<g clip-path="url(#cp59)">
<clipPath id="cp60">
<path transform="matrix(1,0,0,-1,0,200)" d="M 290.5 81.5 L 361.68449 81.5 L 361.68449 93 L 290.5 93 Z "/>
</clipPath>
<g clip-path="url(#cp60)">
<path transform="matrix(1,0,0,-1,0,200)" d="M 292.5 90 L 359.6845 90 L 359.6845 81.5 L 292.5 81.5 Z " fill-opacity="0"/>
<g id="Layer-5" data-name="P">
<text xml:space="preserve" transform="matrix(1 0 -0 1 305.5122 114.524)" font-size="6" font-family="LinLibertineO"><tspan y="0" x="0 2.1360002 3.6360002 6.882 10.41 12.342 13.842 17.142 18.642 21.552 25.08 27.012001 28.512001 31.812 33.312 37.524003 39.024003">[ PBJ &#x003e; SBJ &#x003e; &#x00d8; ]</tspan></text>
</g>
</g>
</g>
<g id="Layer-3" data-name="P">
<g id="Layer-4" data-name="P">
</g>
</g>
<clipPath id="cp61">
<path transform="matrix(1,0,0,-1,0,200)" d="M 146.5 4.75 L 362.4345 4.75 L 362.4345 42.5 L 362.6845 42.5 L 362.6845 157.5 L 362.1845 195 L 2 195 L 2 157 L 2 43 L 2 5 L 73.5 5 L 146.5 4.5 Z M 146.5 4.75 "/>
</clipPath>
<g clip-path="url(#cp61)">
<clipPath id="cp62">
<path transform="matrix(1,0,0,-1,0,200)" d="M 2 55 L 73.75 55 L 73.75 81 L 2 81 Z "/>
</clipPath>
<g clip-path="url(#cp62)">
<path transform="matrix(1,0,0,-1,0,200)" d="M 4 78 L 71.75 78 L 71.75 55 L 4 55 Z " fill-opacity="0"/>
<g id="Layer-5" data-name="P">
<text fill="#5e5e5e" xml:space="preserve" transform="matrix(1 0 -0 1 28.2315 129.78601)" font-size="9" font-family="LinLibertineO"><tspan y="0" x="0 4.3650004 7.6410005 12.177 19.287">From </tspan></text>
<text fill="#5e5e5e" xml:space="preserve" transform="matrix(1 0 -0 1 23.124 139.786)" font-size="9" font-family="LinLibertineO"><tspan y="0" x="0 6.147001 10.701001 13.149001 17.928002 22.806002 26.658">Adjunct</tspan></text>
</g>
</g>
<g id="Layer-4" data-name="P">
</g>
</g>
<clipPath id="cp63">
<path transform="matrix(1,0,0,-1,0,200)" d="M 146.5 4.75 L 362.4345 4.75 L 362.4345 42.5 L 362.6845 42.5 L 362.6845 157.5 L 362.1845 195 L 2 195 L 2 157 L 2 43 L 2 5 L 73.5 5 L 146.5 4.5 Z M 146.5 4.75 "/>
</clipPath>
<g clip-path="url(#cp63)">
<clipPath id="cp64">
<path transform="matrix(1,0,0,-1,0,200)" d="M 74.25 55 L 145.75 55 L 145.75 80.75 L 74.25 80.75 Z "/>
</clipPath>
<g clip-path="url(#cp64)">
<path transform="matrix(1,0,0,-1,0,200)" d="M 76.25 77.75 L 143.75 77.75 L 143.75 55 L 76.25 55 Z " fill-opacity="0"/>
<g id="Layer-5" data-name="P">
<text xml:space="preserve" transform="matrix(1 0 -0 1 93.4175 130.03601)" font-size="9" font-family="LinLibertineO"><tspan y="0" x="0 5.283 9.243 13.644 17.667 21.015 24.525 28.611 33.165 35.415">Reversed  </tspan></text>
<text xml:space="preserve" transform="matrix(1 0 -0 1 96.5675 140.036)" font-size="9" font-family="LinLibertineO"><tspan y="0" x="0 4.869 8.982 12.492001 16.002 18.441002 22.842001">Passive</tspan></text>
</g>
</g>
<g id="Layer-4" data-name="P">
</g>
</g>
<clipPath id="cp65">
<path transform="matrix(1,0,0,-1,0,200)" d="M 146.5 4.75 L 362.4345 4.75 L 362.4345 42.5 L 362.6845 42.5 L 362.6845 157.5 L 362.1845 195 L 2 195 L 2 157 L 2 43 L 2 5 L 73.5 5 L 146.5 4.5 Z M 146.5 4.75 "/>
</clipPath>
<g clip-path="url(#cp65)">
<clipPath id="cp66">
<path transform="matrix(1,0,0,-1,0,200)" d="M 0 0 L 380 0 L 380 200 L 0 200 Z "/>
</clipPath>
<g clip-path="url(#cp66)">
<path transform="matrix(1,0,0,-1,0,200)" d="M 146 81 L 218 81 L 218 55 L 146 55 Z " fill="#8d7aa0" fill-opacity="0"/>
</g>
<g id="Layer-4" data-name="P">
</g>
</g>
<clipPath id="cp67">
<path transform="matrix(1,0,0,-1,0,200)" d="M 146.5 4.75 L 362.4345 4.75 L 362.4345 42.5 L 362.6845 42.5 L 362.6845 157.5 L 362.1845 195 L 2 195 L 2 157 L 2 43 L 2 5 L 73.5 5 L 146.5 4.5 Z M 146.5 4.75 "/>
</clipPath>
<g clip-path="url(#cp67)">
<clipPath id="cp68">
<path transform="matrix(1,0,0,-1,0,200)" d="M 218.25 55 L 289.5 55 L 289.5 80.75 L 218.25 80.75 Z "/>
</clipPath>
<g clip-path="url(#cp68)">
<path transform="matrix(1,0,0,-1,0,200)" d="M 220.25 77.75 L 287.5 77.75 L 287.5 55 L 220.25 55 Z " fill-opacity="0"/>
<g id="Layer-5" data-name="P">
<text xml:space="preserve" transform="matrix(1 0 -0 1 242.402 130.03601)" font-size="7" font-family="LinLibertineO"><tspan y="0" x="0 4.781 8.323 10.227 13.944 17.738 20.734002">Adjunct</tspan></text>
<text xml:space="preserve" transform="matrix(1 0 -0 1 242.402 130.03601)" font-size="9" font-family="LinLibertineO"><tspan y="0" x="22.946"> </tspan></text>
<text xml:space="preserve" transform="matrix(1 0 -0 1 228.8685 140.036)" font-size="9" font-family="LinLibertineO"><tspan y="0" x="0 5.814 10.35 17.460001 24.570002 29.349003 32.193006 36.306005 39.150007 41.589006 45.990007">Commutative</tspan></text>
</g>
</g>
<g id="Layer-4" data-name="P">
</g>
</g>
<clipPath id="cp69">
<path transform="matrix(1,0,0,-1,0,200)" d="M 146.5 4.75 L 362.4345 4.75 L 362.4345 42.5 L 362.6845 42.5 L 362.6845 157.5 L 362.1845 195 L 2 195 L 2 157 L 2 43 L 2 5 L 73.5 5 L 146.5 4.5 Z M 146.5 4.75 "/>
</clipPath>
<g clip-path="url(#cp69)">
<clipPath id="cp70">
<path transform="matrix(1,0,0,-1,0,200)" d="M 290.5 55 L 361.68449 55 L 361.68449 80.5 L 290.5 80.5 Z "/>
</clipPath>
<g clip-path="url(#cp70)">
<path transform="matrix(1,0,0,-1,0,200)" d="M 292.5 72.5 L 359.6845 72.5 L 359.6845 55 L 292.5 55 Z " fill-opacity="0"/>
<g id="Layer-5" data-name="P">
<text xml:space="preserve" transform="matrix(1 0 -0 1 301.3692 135.28601)" font-size="9" font-family="LinLibertineOB" font-weight="bold"><tspan y="0" x="0 6.354 11.313 16.857 20.961 23.859002 26.784 29.682002 34.236 37.458 40.356 45.045003">Conciliative</tspan></text>
</g>
</g>
</g>
<g id="Layer-3" data-name="P">
<g id="Layer-4" data-name="P">
</g>
</g>
<clipPath id="cp71">
<path transform="matrix(1,0,0,-1,0,200)" d="M 146.5 4.75 L 362.4345 4.75 L 362.4345 42.5 L 362.6845 42.5 L 362.6845 157.5 L 362.1845 195 L 2 195 L 2 157 L 2 43 L 2 5 L 73.5 5 L 146.5 4.5 Z M 146.5 4.75 "/>
</clipPath>
<g clip-path="url(#cp71)">
<clipPath id="cp72">
<path transform="matrix(1,0,0,-1,0,200)" d="M 2 43 L 73.75 43 L 73.75 55 L 2 55 Z "/>
</clipPath>
<g clip-path="url(#cp72)">
<path transform="matrix(1,0,0,-1,0,200)" d="M 4 52 L 71.75 52 L 71.75 43 L 4 43 Z " fill-opacity="0"/>
<g id="Layer-5" data-name="P">
<text fill="#5e5e5e" xml:space="preserve" transform="matrix(1 0 -0 1 16.353 152.524)" font-size="6" font-family="LinLibertineO"><tspan y="0" x="0 2.1360002 3.6360002 7.806 12.012001 13.944001 15.444001 18.744002 20.244002 23.154002 26.682002 28.614003 30.114003 33.414 34.914 39.408 40.908">[ ADJ &#x003e; SBJ &#x003e; &#x2026; ]</tspan></text>
</g>
</g>
<g id="Layer-4" data-name="P">
</g>
</g>
<clipPath id="cp73">
<path transform="matrix(1,0,0,-1,0,200)" d="M 146.5 4.75 L 362.4345 4.75 L 362.4345 42.5 L 362.6845 42.5 L 362.6845 157.5 L 362.1845 195 L 2 195 L 2 157 L 2 43 L 2 5 L 73.5 5 L 146.5 4.5 Z M 146.5 4.75 "/>
</clipPath>
<g clip-path="url(#cp73)">
<clipPath id="cp74">
<path transform="matrix(1,0,0,-1,0,200)" d="M 74.25 43.5 L 145.75 43.5 L 145.75 55 L 74.25 55 Z "/>
</clipPath>
<g clip-path="url(#cp74)">
<path transform="matrix(1,0,0,-1,0,200)" d="M 76.25 52 L 143.75 52 L 143.75 43.5 L 76.25 43.5 Z " fill-opacity="0"/>
<g id="Layer-5" data-name="P">
<text xml:space="preserve" transform="matrix(1 0 -0 1 85.889 152.524)" font-size="6" font-family="LinLibertineO"><tspan y="0" x="0 2.1360002 3.6360002 7.806 12.012001 13.944001 15.444001 18.744002 20.244002 23.154002 26.682002 28.614003 30.114003 33.414 34.914 39.126 42.654 44.586 46.086">[ ADJ &#x003e; SBJ &#x003e; OBJ ]</tspan></text>
</g>
</g>
<g id="Layer-4" data-name="P">
</g>
</g>
<clipPath id="cp75">
<path transform="matrix(1,0,0,-1,0,200)" d="M 146.5 4.75 L 362.4345 4.75 L 362.4345 42.5 L 362.6845 42.5 L 362.6845 157.5 L 362.1845 195 L 2 195 L 2 157 L 2 43 L 2 5 L 73.5 5 L 146.5 4.5 Z M 146.5 4.75 "/>
</clipPath>
<g clip-path="url(#cp75)">
<clipPath id="cp76">
<path transform="matrix(1,0,0,-1,0,200)" d="M 146.25 43.25 L 217.75 43.25 L 217.75 55 L 146.25 55 Z "/>
</clipPath>
<g clip-path="url(#cp76)">
<path transform="matrix(1,0,0,-1,0,200)" d="M 148.25 52 L 215.75 52 L 215.75 43.25 L 148.25 43.25 Z " fill-opacity="0"/>
<g id="Layer-5" data-name="P">
<text xml:space="preserve" transform="matrix(1 0 -0 1 158.372 152.524)" font-size="6" font-family="LinLibertineO"><tspan y="0" x="0 2.1360002 3.6360002 7.806 12.012001 13.944001 15.444001 18.744002 20.244002 23.154002 26.682002 28.614003 30.114003 33.414 34.914 38.16 41.688 43.62 45.12">[ ADJ &#x003e; SBJ &#x003e; PBJ ]</tspan></text>
</g>
</g>
<g id="Layer-4" data-name="P">
</g>
</g>
<clipPath id="cp77">
<path transform="matrix(1,0,0,-1,0,200)" d="M 146.5 4.75 L 362.4345 4.75 L 362.4345 42.5 L 362.6845 42.5 L 362.6845 157.5 L 362.1845 195 L 2 195 L 2 157 L 2 43 L 2 5 L 73.5 5 L 146.5 4.5 Z M 146.5 4.75 "/>
</clipPath>
<g clip-path="url(#cp77)">
<clipPath id="cp78">
<path transform="matrix(1,0,0,-1,0,200)" d="M 218.25 43.25 L 289.5 43.25 L 289.5 55 L 218.25 55 Z "/>
</clipPath>
<g clip-path="url(#cp78)">
<path transform="matrix(1,0,0,-1,0,200)" d="M 220.25 52 L 287.5 52 L 287.5 43.25 L 220.25 43.25 Z " fill-opacity="0"/>
<g id="Layer-5" data-name="P">
<text xml:space="preserve" transform="matrix(1 0 -0 1 229.446 152.524)" font-size="6" font-family="LinLibertineO"><tspan y="0" x="0 2.1360002 3.6360002 7.806 12.012001 13.944001 15.444001 18.744002 20.244002 23.154002 26.682002 28.614003 30.114003 33.414 34.914 39.084 43.29 45.222 46.722">[ ADJ &#x003e; SBJ &#x003e; ADJ ]</tspan></text>
</g>
</g>
<g id="Layer-4" data-name="P">
</g>
</g>
<clipPath id="cp79">
<path transform="matrix(1,0,0,-1,0,200)" d="M 146.5 4.75 L 362.4345 4.75 L 362.4345 42.5 L 362.6845 42.5 L 362.6845 157.5 L 362.1845 195 L 2 195 L 2 157 L 2 43 L 2 5 L 73.5 5 L 146.5 4.5 Z M 146.5 4.75 "/>
</clipPath>
<g clip-path="url(#cp79)">
<clipPath id="cp80">
<path transform="matrix(1,0,0,-1,0,200)" d="M 290.5 43.5 L 361.68449 43.5 L 361.68449 55 L 290.5 55 Z "/>
</clipPath>
<g clip-path="url(#cp80)">
<path transform="matrix(1,0,0,-1,0,200)" d="M 292.5 52 L 359.6845 52 L 359.6845 43.5 L 292.5 43.5 Z " fill-opacity="0"/>
<g id="Layer-5" data-name="P">
<text xml:space="preserve" transform="matrix(1 0 -0 1 304.7112 152.524)" font-size="6" font-family="LinLibertineO"><tspan y="0" x="0 2.1360002 3.6360002 7.806 12.012001 13.944001 15.444001 18.744002 20.244002 23.154002 26.682002 28.614003 30.114003 33.414 34.914 39.126 40.626">[ ADJ &#x003e; SBJ &#x003e; &#x00d8; ]</tspan></text>
</g>
</g>
</g>
<g id="Layer-3" data-name="P">
<g id="Layer-4" data-name="P">
</g>
</g>
<clipPath id="cp81">
<path transform="matrix(1,0,0,-1,0,200)" d="M 146.5 4.75 L 362.4345 4.75 L 362.4345 42.5 L 362.6845 42.5 L 362.6845 157.5 L 362.1845 195 L 2 195 L 2 157 L 2 43 L 2 5 L 73.5 5 L 146.5 4.5 Z M 146.5 4.75 "/>
</clipPath>
<g clip-path="url(#cp81)">
<clipPath id="cp82">
<path transform="matrix(1,0,0,-1,0,200)" d="M 2 17 L 73.5 17 L 73.5 43 L 2 43 Z "/>
</clipPath>
<g clip-path="url(#cp82)">
<path transform="matrix(1,0,0,-1,0,200)" d="M 4 40 L 71.5 40 L 71.5 17 L 4 17 Z " fill-opacity="0"/>
<g id="Layer-5" data-name="P">
<text fill="#5e5e5e" xml:space="preserve" transform="matrix(1 0 -0 1 28.1065 167.786)" font-size="9" font-family="LinLibertineO"><tspan y="0" x="0 4.3650004 7.6410005 12.177 19.287">From </tspan></text>
<text fill="#5e5e5e" xml:space="preserve" transform="matrix(1 0 -0 1 14.3365 177.786)" font-size="9" font-family="LinLibertineO"><tspan y="0" x="0 5.9490005 10.827001 14.787001 19.197 23.868 27.144 31.167 34.677003 38.187005 42.273004">Unexpressed</tspan></text>
</g>
</g>
<g id="Layer-4" data-name="P">
</g>
</g>
<clipPath id="cp83">
<path transform="matrix(1,0,0,-1,0,200)" d="M 146.5 4.75 L 362.4345 4.75 L 362.4345 42.5 L 362.6845 42.5 L 362.6845 157.5 L 362.1845 195 L 2 195 L 2 157 L 2 43 L 2 5 L 73.5 5 L 146.5 4.5 Z M 146.5 4.75 "/>
</clipPath>
<g clip-path="url(#cp83)">
<clipPath id="cp84">
<path transform="matrix(1,0,0,-1,0,200)" d="M 74.5 17 L 145.5 17 L 145.5 42.5 L 74.5 42.5 Z "/>
</clipPath>
<g clip-path="url(#cp84)">
<path transform="matrix(1,0,0,-1,0,200)" d="M 76.5 34.5 L 143.5 34.5 L 143.5 17 L 76.5 17 Z " fill-opacity="0"/>
<g id="Layer-5" data-name="P">
<text xml:space="preserve" transform="matrix(1 0 -0 1 91.9595 173.286)" font-size="9" font-family="LinLibertineOB" font-weight="bold"><tspan y="0" x="0 6.66 11.556 16.317002 20.871003 24.093003 26.991003 31.680003">Novative</tspan></text>
</g>
</g>
<g id="Layer-4" data-name="P">
</g>
</g>
<clipPath id="cp85">
<path transform="matrix(1,0,0,-1,0,200)" d="M 146.5 4.75 L 362.4345 4.75 L 362.4345 42.5 L 362.6845 42.5 L 362.6845 157.5 L 362.1845 195 L 2 195 L 2 157 L 2 43 L 2 5 L 73.5 5 L 146.5 4.5 Z M 146.5 4.75 "/>
</clipPath>
<g clip-path="url(#cp85)">
<clipPath id="cp86">
<path transform="matrix(1,0,0,-1,0,200)" d="M 146.5 17 L 217.75 17 L 217.75 42.75 L 146.5 42.75 Z "/>
</clipPath>
<g clip-path="url(#cp86)">
<path transform="matrix(1,0,0,-1,0,200)" d="M 148.5 39.75 L 215.75 39.75 L 215.75 17 L 148.5 17 Z " fill-opacity="0"/>
<g id="Layer-5" data-name="P">
<text xml:space="preserve" transform="matrix(1 0 -0 1 165.5965 168.036)" font-size="9" font-family="LinLibertineO"><tspan y="0" x="0 6.2910006 10.764001 15.237001 19.350003 22.194003 24.633004 29.034003 33.057004">Novative </tspan></text>
<text xml:space="preserve" transform="matrix(1 0 -0 1 152.909 178.036)" font-size="9" font-family="LinLibertineO"><tspan y="0" x="0"> </tspan></text>
<text xml:space="preserve" transform="matrix(1 0 -0 1 152.909 178.036)" font-size="7" font-family="LinLibertineO"><tspan y="0" x="2.25 5.3300006 8.76 10.972 14.101 17.895 21.437 24.615 28.157 29.907 34.814 37.943 43.473 47.001 49.213 51.11 54.638">extended Demotion</tspan></text>
</g>
</g>
<g id="Layer-4" data-name="P">
</g>
</g>
<clipPath id="cp87">
<path transform="matrix(1,0,0,-1,0,200)" d="M 146.5 4.75 L 362.4345 4.75 L 362.4345 42.5 L 362.6845 42.5 L 362.6845 157.5 L 362.1845 195 L 2 195 L 2 157 L 2 43 L 2 5 L 73.5 5 L 146.5 4.5 Z M 146.5 4.75 "/>
</clipPath>
<g clip-path="url(#cp87)">
<clipPath id="cp88">
<path transform="matrix(1,0,0,-1,0,200)" d="M 218.25 17 L 289.75 17 L 289.75 42.75 L 218.25 42.75 Z "/>
</clipPath>
<g clip-path="url(#cp88)">
<path transform="matrix(1,0,0,-1,0,200)" d="M 220.25 39.75 L 287.75 39.75 L 287.75 17 L 220.25 17 Z " fill-opacity="0"/>
<g id="Layer-5" data-name="P">
<text xml:space="preserve" transform="matrix(1 0 -0 1 237.4715 168.036)" font-size="9" font-family="LinLibertineO"><tspan y="0" x="0 6.2910006 10.764001 15.237001 19.350003 22.194003 24.633004 29.034003 33.057004">Novative </tspan></text>
<text xml:space="preserve" transform="matrix(1 0 -0 1 226.2085 178.036)" font-size="9" font-family="LinLibertineO"><tspan y="0" x="0"> </tspan></text>
<text xml:space="preserve" transform="matrix(1 0 -0 1 226.2085 178.036)" font-size="7" font-family="LinLibertineO"><tspan y="0" x="2.25 5.3300006 8.76 10.972 13.52 16.649 22.179 25.308 27.058 31.965 35.094 40.624 44.152 46.364004 48.261 51.789">extreme Demotion</tspan></text>
</g>
</g>
<g id="Layer-4" data-name="P">
</g>
</g>
<clipPath id="cp89">
<path transform="matrix(1,0,0,-1,0,200)" d="M 146.5 4.75 L 362.4345 4.75 L 362.4345 42.5 L 362.6845 42.5 L 362.6845 157.5 L 362.1845 195 L 2 195 L 2 157 L 2 43 L 2 5 L 73.5 5 L 146.5 4.5 Z M 146.5 4.75 "/>
</clipPath>
<g clip-path="url(#cp89)">
<clipPath id="cp90">
<path transform="matrix(1,0,0,-1,0,200)" d="M 290.25 17 L 361.93449 17 L 361.93449 42.5 L 290.25 42.5 Z "/>
</clipPath>
<g clip-path="url(#cp90)">
<path transform="matrix(1,0,0,-1,0,200)" d="M 292.25 34.5 L 359.9345 34.5 L 359.9345 17 L 292.25 17 Z " fill-opacity="0"/>
<g id="Layer-5" data-name="P">
<text xml:space="preserve" transform="matrix(1 0 -0 1 301.0857 173.286)" font-size="9" font-family="LinLibertineO"><tspan y="0" x="0 5.814 10.35 17.460001 24.570002 29.349003 32.193006 36.306005 39.150007 41.589006 45.990007">Commutative</tspan></text>
</g>
</g>
</g>
<g id="Layer-3" data-name="P">
<g id="Layer-4" data-name="P">
</g>
</g>
<clipPath id="cp91">
<path transform="matrix(1,0,0,-1,0,200)" d="M 146.5 4.75 L 362.4345 4.75 L 362.4345 42.5 L 362.6845 42.5 L 362.6845 157.5 L 362.1845 195 L 2 195 L 2 157 L 2 43 L 2 5 L 73.5 5 L 146.5 4.5 Z M 146.5 4.75 "/>
</clipPath>
<g clip-path="url(#cp91)">
<clipPath id="cp92">
<path transform="matrix(1,0,0,-1,0,200)" d="M 2 5 L 73.5 5 L 73.5 17 L 2 17 Z "/>
</clipPath>
<g clip-path="url(#cp92)">
<path transform="matrix(1,0,0,-1,0,200)" d="M 4 14 L 71.5 14 L 71.5 5 L 4 5 Z " fill-opacity="0"/>
<g id="Layer-5" data-name="P">
<text fill="#5e5e5e" xml:space="preserve" transform="matrix(1 0 -0 1 19.276 190.524)" font-size="6" font-family="LinLibertineO"><tspan y="0" x="0 2.1360002 3.6360002 7.848 9.348 12.648 14.148 17.058 20.586 22.518002 24.018002 27.318 28.818 33.312 34.812">[ &#x00d8; &#x003e; SBJ &#x003e; &#x2026; ]</tspan></text>
</g>
</g>
<g id="Layer-4" data-name="P">
</g>
</g>
<clipPath id="cp93">
<path transform="matrix(1,0,0,-1,0,200)" d="M 146.5 4.75 L 362.4345 4.75 L 362.4345 42.5 L 362.6845 42.5 L 362.6845 157.5 L 362.1845 195 L 2 195 L 2 157 L 2 43 L 2 5 L 73.5 5 L 146.5 4.5 Z M 146.5 4.75 "/>
</clipPath>
<g clip-path="url(#cp93)">
<clipPath id="cp94">
<path transform="matrix(1,0,0,-1,0,200)" d="M 74.5 5.5 L 145.5 5.5 L 145.5 17 L 74.5 17 Z "/>
</clipPath>
<g clip-path="url(#cp94)">
<path transform="matrix(1,0,0,-1,0,200)" d="M 76.5 14 L 143.5 14 L 143.5 5.5 L 76.5 5.5 Z " fill-opacity="0"/>
<g id="Layer-5" data-name="P">
<text xml:space="preserve" transform="matrix(1 0 -0 1 88.937 190.524)" font-size="6" font-family="LinLibertineO"><tspan y="0" x="0 2.1360002 3.6360002 7.848 9.348 12.648 14.148 17.058 20.586 22.518002 24.018002 27.318 28.818 33.03 36.558 38.489999 39.989999">[ &#x00d8; &#x003e; SBJ &#x003e; OBJ ]</tspan></text>
</g>
</g>
<g id="Layer-4" data-name="P">
</g>
</g>
<clipPath id="cp95">
<path transform="matrix(1,0,0,-1,0,200)" d="M 146.5 4.75 L 362.4345 4.75 L 362.4345 42.5 L 362.6845 42.5 L 362.6845 157.5 L 362.1845 195 L 2 195 L 2 157 L 2 43 L 2 5 L 73.5 5 L 146.5 4.5 Z M 146.5 4.75 "/>
</clipPath>
<g clip-path="url(#cp95)">
<clipPath id="cp96">
<path transform="matrix(1,0,0,-1,0,200)" d="M 146.5 5.25 L 217.75 5.25 L 217.75 17 L 146.5 17 Z "/>
</clipPath>
<g clip-path="url(#cp96)">
<path transform="matrix(1,0,0,-1,0,200)" d="M 148.5 14 L 215.75 14 L 215.75 5.25 L 148.5 5.25 Z " fill-opacity="0"/>
<g id="Layer-5" data-name="P">
<text xml:space="preserve" transform="matrix(1 0 -0 1 161.545 190.524)" font-size="6" font-family="LinLibertineO"><tspan y="0" x="0 2.1360002 3.6360002 7.848 9.348 12.648 14.148 17.058 20.586 22.518002 24.018002 27.318 28.818 32.064 35.592 37.524 39.024">[ &#x00d8; &#x003e; SBJ &#x003e; PBJ ]</tspan></text>
</g>
</g>
<g id="Layer-4" data-name="P">
</g>
</g>
<clipPath id="cp97">
<path transform="matrix(1,0,0,-1,0,200)" d="M 146.5 4.75 L 362.4345 4.75 L 362.4345 42.5 L 362.6845 42.5 L 362.6845 157.5 L 362.1845 195 L 2 195 L 2 157 L 2 43 L 2 5 L 73.5 5 L 146.5 4.5 Z M 146.5 4.75 "/>
</clipPath>
<g clip-path="url(#cp97)">
<clipPath id="cp98">
<path transform="matrix(1,0,0,-1,0,200)" d="M 218.25 5.25 L 289.75 5.25 L 289.75 17 L 218.25 17 Z "/>
</clipPath>
<g clip-path="url(#cp98)">
<path transform="matrix(1,0,0,-1,0,200)" d="M 220.25 14 L 287.75 14 L 287.75 5.25 L 220.25 5.25 Z " fill-opacity="0"/>
<g id="Layer-5" data-name="P">
<text xml:space="preserve" transform="matrix(1 0 -0 1 232.619 190.524)" font-size="6" font-family="LinLibertineO"><tspan y="0" x="0 2.1360002 3.6360002 7.848 9.348 12.648 14.148 17.058 20.586 22.518002 24.018002 27.318 28.818 32.988 37.194 39.126 40.626">[ &#x00d8; &#x003e; SBJ &#x003e; ADJ ]</tspan></text>
</g>
</g>
<g id="Layer-4" data-name="P">
</g>
</g>
<clipPath id="cp99">
<path transform="matrix(1,0,0,-1,0,200)" d="M 146.5 4.75 L 362.4345 4.75 L 362.4345 42.5 L 362.6845 42.5 L 362.6845 157.5 L 362.1845 195 L 2 195 L 2 157 L 2 43 L 2 5 L 73.5 5 L 146.5 4.5 Z M 146.5 4.75 "/>
</clipPath>
<g clip-path="url(#cp99)">
<clipPath id="cp100">
<path transform="matrix(1,0,0,-1,0,200)" d="M 290.25 5.25 L 361.93449 5.25 L 361.93449 17 L 290.25 17 Z "/>
</clipPath>
<g clip-path="url(#cp100)">
<path transform="matrix(1,0,0,-1,0,200)" d="M 292.25 14 L 359.9345 14 L 359.9345 5.25 L 292.25 5.25 Z " fill-opacity="0"/>
<g id="Layer-5" data-name="P">
<text xml:space="preserve" transform="matrix(1 0 -0 1 307.7592 190.524)" font-size="6" font-family="LinLibertineO"><tspan y="0" x="0 2.1360002 3.6360002 7.848 9.348 12.648 14.148 17.058 20.586 22.518002 24.018002 27.318 28.818 33.03 34.53">[ &#x00d8; &#x003e; SBJ &#x003e; &#x00d8; ]</tspan></text>
</g>
</g>
</g>
</g>
</g>
<clipPath id="cp101">
<path transform="matrix(1,0,0,-1,0,200)" d="M 146.5 4.75 L 362.4345 4.75 L 362.4345 42.5 L 362.6845 42.5 L 362.6845 157.5 L 362.1845 195 L 2 195 L 2 157 L 2 43 L 2 5 L 73.5 5 L 146.5 4.5 Z M 146.5 4.75 "/>
</clipPath>
<g clip-path="url(#cp101)">
<clipPath id="cp102">
<path transform="matrix(1,0,0,-1,0,200)" d="M 0 0 L 380 0 L 380 200 L 0 200 Z "/>
</clipPath>
<g clip-path="url(#cp102)">
<path transform="matrix(1,0,0,1,1,4)" stroke-width="1" stroke-linecap="butt" stroke-miterlimit="4" stroke-linejoin="miter" fill="none" stroke="#000000" d="M 145 38.5 L 145 77.5 "/>
<path transform="matrix(1,0,0,1,1,4)" stroke-width=".5" stroke-linecap="butt" stroke-miterlimit="4" stroke-linejoin="miter" fill="none" stroke="#7f7f7f" d="M 145 77.5 L 145 115 "/>
<path transform="matrix(1,0,0,1,1,4)" stroke-width=".5" stroke-linecap="butt" stroke-miterlimit="4" stroke-linejoin="miter" fill="none" stroke="#7f7f7f" d="M 145 115 L 145 152.5 "/>
<path transform="matrix(1,0,0,1,1,4)" stroke-width="1" stroke-linecap="butt" stroke-miterlimit="4" stroke-linejoin="miter" fill="none" stroke="#000000" d="M 145 152.5 L 145 191.5 "/>
<path transform="matrix(1,0,0,1,1,4)" stroke-width="1" stroke-linecap="butt" stroke-miterlimit="4" stroke-linejoin="miter" fill="none" stroke="#000000" d="M 217 38.5 L 217 77.5 "/>
<path transform="matrix(1,0,0,1,1,4)" stroke-width=".5" stroke-linecap="butt" stroke-miterlimit="4" stroke-linejoin="miter" fill="none" stroke="#7f7f7f" d="M 217 77.5 L 217 153 "/>
<path transform="matrix(1,0,0,1,1,4)" stroke-width=".5" stroke-linecap="butt" stroke-miterlimit="4" stroke-linejoin="miter" fill="none" stroke="#7f7f7f" d="M 217 153 L 217 179 "/>
<path transform="matrix(1,0,0,1,1,4)" stroke-width=".5" stroke-linecap="butt" stroke-miterlimit="4" stroke-linejoin="miter" fill="none" stroke="#7f7f7f" d="M 217 179 L 217 191.5 "/>
<path transform="matrix(1,0,0,1,1,4)" stroke-width="1" stroke-linecap="butt" stroke-miterlimit="4" stroke-linejoin="miter" fill="none" stroke="#000000" d="M 289 38.5 L 289 77 "/>
<path transform="matrix(1,0,0,1,1,4)" stroke-width="1" stroke-linecap="butt" stroke-miterlimit="4" stroke-linejoin="miter" fill="none" stroke="#000000" d="M 289 77 L 289 115 "/>
<path transform="matrix(1,0,0,1,1,4)" stroke-width="1" stroke-linecap="butt" stroke-miterlimit="4" stroke-linejoin="miter" fill="none" stroke="#000000" d="M 289 115 L 289 153.5 "/>
<path transform="matrix(1,0,0,1,1,4)" stroke-width=".5" stroke-linecap="butt" stroke-miterlimit="4" stroke-linejoin="miter" fill="none" stroke="#7f7f7f" d="M 289 153.5 L 289 179 "/>
<path transform="matrix(1,0,0,1,1,4)" stroke-width=".5" stroke-linecap="butt" stroke-miterlimit="4" stroke-linejoin="miter" fill="none" stroke="#7f7f7f" d="M 289 179 L 289 191.5 "/>
<path transform="matrix(1,0,0,1,1,4)" stroke-width="1" stroke-linecap="butt" stroke-miterlimit="4" stroke-linejoin="miter" fill="none" stroke="#000000" d="M 72.5 77 L 145 77 "/>
<path transform="matrix(1,0,0,1,1,4)" stroke-width="1" stroke-linecap="butt" stroke-miterlimit="4" stroke-linejoin="miter" fill="none" stroke="#000000" d="M 145 77 L 289 77 "/>
<path transform="matrix(1,0,0,1,1,4)" stroke-width="1" stroke-linecap="butt" stroke-miterlimit="4" stroke-linejoin="miter" fill="none" stroke="#000000" d="M 289 77 L 361.6845 77 "/>
<path transform="matrix(1,0,0,1,1,4)" stroke-width=".5" stroke-linecap="butt" stroke-miterlimit="4" stroke-linejoin="miter" fill="none" stroke="#7f7f7f" d="M 72.5 115 L 145 115 "/>
<path transform="matrix(1,0,0,1,1,4)" stroke-width=".5" stroke-linecap="butt" stroke-miterlimit="4" stroke-linejoin="miter" fill="none" stroke="#7f7f7f" d="M 145 115 L 288.5 115 "/>
<path transform="matrix(1,0,0,1,1,4)" stroke-width="1" stroke-linecap="butt" stroke-miterlimit="4" stroke-linejoin="miter" fill="none" stroke="#000000" d="M 288.5 115 L 361.6845 115 "/>
<path transform="matrix(1,0,0,1,1,4)" stroke-width="1" stroke-linecap="butt" stroke-miterlimit="4" stroke-linejoin="miter" fill="none" stroke="#000000" d="M 72.5 153 L 145.5 153 "/>
<path transform="matrix(1,0,0,1,1,4)" stroke-width=".5" stroke-linecap="butt" stroke-miterlimit="4" stroke-linejoin="miter" fill="none" stroke="#7f7f7f" d="M 145.5 153 L 217 153 "/>
<path transform="matrix(1,0,0,1,1,4)" stroke-width=".5" stroke-linecap="butt" stroke-miterlimit="4" stroke-linejoin="miter" fill="none" stroke="#7f7f7f" d="M 217 153 L 288.5 153 "/>
<path transform="matrix(1,0,0,1,1,4)" stroke-width="1" stroke-linecap="butt" stroke-miterlimit="4" stroke-linejoin="miter" fill="none" stroke="#000000" d="M 288.5 153 L 361.6845 153 "/>
<path transform="matrix(1,0,0,1,1,4)" stroke-width="1" stroke-linecap="butt" stroke-miterlimit="4" stroke-linejoin="miter" fill="none" stroke="#000000" d="M 73 38.5 L 73 77.5 "/>
<path transform="matrix(1,0,0,1,1,4)" stroke-width=".5" stroke-linecap="butt" stroke-miterlimit="4" stroke-linejoin="miter" fill="none" stroke="#7f7f7f" d="M 73 77.5 L 73 115 "/>
<path transform="matrix(1,0,0,1,1,4)" stroke-width=".5" stroke-linecap="butt" stroke-miterlimit="4" stroke-linejoin="miter" fill="none" stroke="#7f7f7f" d="M 73 115 L 73 152.5 "/>
<path transform="matrix(1,0,0,1,1,4)" stroke-width="1" stroke-linecap="butt" stroke-miterlimit="4" stroke-linejoin="miter" fill="none" stroke="#000000" d="M 73 152.5 L 73 191.5 "/>
<path transform="matrix(1,0,0,1,1,4)" stroke-width="1" stroke-linecap="butt" stroke-miterlimit="4" stroke-linejoin="miter" fill="none" stroke="#000000" d="M 72.5 39 L 145 39 "/>
<path transform="matrix(1,0,0,1,1,4)" stroke-width="1" stroke-linecap="butt" stroke-miterlimit="4" stroke-linejoin="miter" fill="none" stroke="#000000" d="M 145 39 L 361.6845 39 "/>
<path transform="matrix(1,0,0,1,1,4)" stroke-width="1" stroke-linecap="butt" stroke-miterlimit="4" stroke-linejoin="miter" fill="none" stroke="#000000" d="M 361.1845 38.5 L 361.1845 77 "/>
<path transform="matrix(1,0,0,1,1,4)" stroke-width="1" stroke-linecap="butt" stroke-miterlimit="4" stroke-linejoin="miter" fill="none" stroke="#000000" d="M 361.1845 77 L 361.1845 115 "/>
<path transform="matrix(1,0,0,1,1,4)" stroke-width="1" stroke-linecap="butt" stroke-miterlimit="4" stroke-linejoin="miter" fill="none" stroke="#000000" d="M 361.1845 115 L 361.1845 153.5 "/>
<path transform="matrix(1,0,0,1,1,4)" stroke-width=".5" stroke-linecap="butt" stroke-miterlimit="4" stroke-linejoin="miter" fill="none" stroke="#7f7f7f" d="M 361.1845 153.5 L 361.1845 191.5 "/>
<path transform="matrix(1,0,0,1,1,4)" stroke-width="1" stroke-linecap="butt" stroke-miterlimit="4" stroke-linejoin="miter" fill="none" stroke="#000000" d="M 72.5 191 L 145.5 191 "/>
<path transform="matrix(1,0,0,1,1,4)" stroke-width=".5" stroke-linecap="butt" stroke-miterlimit="4" stroke-linejoin="miter" fill="none" stroke="#7f7f7f" d="M 145.5 191 L 217 191 "/>
<path transform="matrix(1,0,0,1,1,4)" stroke-width=".5" stroke-linecap="butt" stroke-miterlimit="4" stroke-linejoin="miter" fill="none" stroke="#7f7f7f" d="M 217 191 L 289 191 "/>
<path transform="matrix(1,0,0,1,1,4)" stroke-width=".5" stroke-linecap="butt" stroke-miterlimit="4" stroke-linejoin="miter" fill="none" stroke="#7f7f7f" d="M 289 191 L 361.6845 191 "/>
</g>
</g>
</g>
</g>
</g>
</svg>
