<?xml version="1.0" standalone="no"?>
<!DOCTYPE svg PUBLIC "-//W3C//DTD SVG 20010904//EN"
 "http://www.w3.org/TR/2001/REC-SVG-20010904/DTD/svg10.dtd">
<svg version="1.0" xmlns="http://www.w3.org/2000/svg"
 width="1292.000000pt" height="1250.000000pt" viewBox="0 0 1292.000000 1250.000000"
 preserveAspectRatio="xMidYMid meet">
<metadata>
Created by potrace 1.16, written by Peter Selinger 2001-2019
</metadata>
<g transform="translate(0.000000,1250.000000) scale(0.100000,-0.100000)"
fill="#000000" stroke="none">
<path d="M332 12168 l3 -23 6108 -3 6107 -2 0 25 0 25 -6111 0 -6110 0 3 -22z"/>
<path d="M3920 11780 c-10 -6 -11 -10 -2 -10 9 0 12 -30 12 -114 0 -82 -4
-116 -12 -119 -7 -3 7 -6 32 -6 34 -1 41 2 32 11 -8 8 -12 52 -12 130 0 106
-2 118 -17 118 -10 0 -25 -5 -33 -10z"/>
<path d="M5410 11780 c-10 -6 -11 -10 -2 -10 9 0 12 -30 12 -114 0 -82 -4
-116 -12 -119 -7 -3 7 -6 32 -6 34 -1 41 2 32 11 -8 8 -12 52 -12 130 0 106
-2 118 -17 118 -10 0 -25 -5 -33 -10z"/>
<path d="M9980 11780 c-10 -6 -11 -10 -2 -10 9 0 12 -30 12 -114 0 -82 -4
-116 -12 -119 -7 -3 7 -6 32 -6 34 -1 41 2 32 11 -8 8 -12 52 -12 130 0 106
-2 118 -17 118 -10 0 -25 -5 -33 -10z"/>
<path d="M2114 11766 c-62 -27 -95 -98 -74 -161 17 -52 52 -75 117 -75 72 0
93 12 93 53 0 18 5 38 12 45 9 9 2 12 -32 12 -36 -1 -41 -3 -27 -11 22 -13 24
-74 1 -83 -34 -13 -72 -5 -97 20 -68 67 -33 194 52 194 37 0 71 -23 71 -48 0
-7 5 -12 10 -12 12 0 13 30 2 47 -9 14 -56 33 -80 33 -9 -1 -31 -7 -48 -14z"/>
<path d="M8164 11766 c-62 -27 -95 -98 -74 -161 17 -52 52 -75 117 -75 72 0
93 12 93 53 0 18 5 38 12 45 9 9 2 12 -32 12 -36 -1 -41 -3 -27 -11 22 -13 24
-74 1 -83 -34 -13 -72 -5 -97 20 -68 67 -33 194 52 194 37 0 71 -23 71 -48 0
-7 5 -12 10 -12 12 0 13 30 2 47 -9 14 -56 33 -80 33 -9 -1 -31 -7 -48 -14z"/>
<path d="M3507 11764 c-9 -10 2 -24 19 -24 8 0 14 7 14 15 0 15 -21 21 -33 9z"/>
<path d="M4133 11763 c17 -4 18 -13 12 -91 -4 -48 -13 -99 -20 -114 -13 -28
-13 -28 23 -28 32 0 34 1 18 13 -16 11 -17 22 -9 97 l8 85 39 -97 c22 -54 42
-98 45 -98 3 0 24 44 46 97 l40 96 8 -83 c8 -75 6 -86 -9 -97 -15 -11 -11 -13
31 -13 41 0 46 2 32 13 -24 17 -38 204 -16 218 10 6 7 9 -12 9 -24 0 -31 -9
-65 -90 -21 -49 -41 -90 -44 -90 -4 0 -22 39 -41 88 -34 85 -36 87 -69 89 -19
1 -27 -1 -17 -4z"/>
<path d="M9557 11764 c-9 -10 2 -24 19 -24 8 0 14 7 14 15 0 15 -21 21 -33 9z"/>
<path d="M10173 11759 c14 -8 17 -25 17 -110 0 -94 -1 -100 -22 -109 -16 -6 5
-9 73 -9 l97 -1 5 28 c7 36 0 41 -19 14 -12 -17 -25 -22 -60 -22 l-44 0 0 50
c0 49 1 50 30 50 17 0 33 -7 39 -17 8 -14 10 -10 10 22 0 22 -3 34 -6 28 -2
-7 -20 -13 -39 -13 -35 0 -35 0 -32 43 3 39 5 42 35 45 23 2 35 -3 47 -19 18
-26 31 -20 21 10 -6 19 -14 21 -88 21 -61 -1 -77 -3 -64 -11z"/>
<path d="M11367 11764 c-9 -10 2 -24 19 -24 8 0 14 7 14 15 0 15 -21 21 -33 9z"/>
<path d="M3393 11743 c-7 -3 -13 -15 -13 -28 0 -13 -6 -26 -12 -28 -10 -4 -10
-6 0 -6 8 -1 12 -20 12 -60 0 -33 3 -66 6 -75 6 -16 30 -21 58 -10 23 9 19 21
-6 20 -21 -1 -23 4 -26 61 -3 61 -2 62 25 66 l28 4 -27 2 c-22 1 -27 6 -30 29
-2 18 -8 27 -15 25z"/>
<path d="M9453 11743 c-7 -3 -13 -15 -13 -28 0 -13 -6 -26 -12 -28 -10 -4 -10
-6 0 -6 8 -1 12 -20 12 -60 0 -33 3 -66 6 -75 6 -16 30 -21 58 -10 23 9 19 21
-6 20 -21 -1 -23 4 -26 61 -3 61 -2 62 25 66 l28 4 -27 2 c-22 1 -27 6 -30 29
-2 18 -8 27 -15 25z"/>
<path d="M2372 11684 c-13 -9 -22 -11 -22 -5 0 6 -11 11 -25 11 -25 0 -33 -14
-15 -25 6 -3 10 -30 10 -60 0 -41 -4 -56 -17 -64 -14 -8 -7 -10 32 -10 39 0
46 2 33 10 -13 7 -18 23 -18 59 0 50 11 67 43 62 10 -2 17 3 17 12 0 23 -15
27 -38 10z"/>
<path d="M2470 11687 c-29 -14 -40 -47 -16 -47 9 0 16 8 16 20 0 25 45 28 54
4 10 -27 7 -32 -28 -44 -46 -15 -73 -46 -60 -68 9 -13 27 -17 77 -19 37 -1 69
3 72 8 4 5 -1 9 -9 9 -13 0 -16 12 -16 53 0 77 -36 111 -90 84z m44 -134 c-25
-18 -38 -12 -42 19 -3 21 3 28 25 35 25 9 28 8 31 -16 2 -15 -3 -30 -14 -38z"/>
<path d="M2623 11692 c-22 -3 -33 -22 -13 -22 15 0 13 -127 -2 -133 -7 -3 7
-5 32 -5 25 0 39 2 33 5 -9 3 -13 26 -13 64 0 55 2 59 26 65 17 4 29 2 35 -7
15 -23 10 -96 -7 -113 -14 -15 -11 -16 28 -16 26 0 38 3 30 9 -9 5 -12 26 -10
67 3 58 3 59 33 59 29 0 30 -1 33 -55 3 -43 -1 -57 -14 -67 -16 -11 -12 -13
26 -13 34 0 41 3 32 12 -7 7 -12 38 -12 69 0 39 -5 63 -16 73 -19 20 -22 20
-57 1 -25 -13 -31 -13 -50 0 -20 13 -26 13 -51 0 -34 -18 -34 -18 -38 -2 -2 6
-13 11 -25 9z"/>
<path d="M2923 11692 c-22 -3 -33 -22 -13 -22 15 0 13 -127 -2 -133 -7 -3 7
-5 32 -5 25 0 39 2 33 5 -9 3 -13 26 -13 64 0 55 2 59 26 65 17 4 29 2 35 -7
15 -23 10 -96 -7 -113 -14 -15 -11 -16 28 -16 26 0 38 3 30 9 -9 5 -12 26 -10
67 3 58 3 59 33 59 29 0 30 -1 33 -55 3 -43 -1 -57 -14 -67 -16 -11 -12 -13
26 -13 34 0 41 3 32 12 -7 7 -12 38 -12 69 0 39 -5 63 -16 73 -19 20 -22 20
-57 1 -25 -13 -31 -13 -50 0 -20 13 -26 13 -51 0 -34 -18 -34 -18 -38 -2 -2 6
-13 11 -25 9z"/>
<path d="M3230 11687 c-29 -14 -40 -47 -16 -47 9 0 16 8 16 20 0 25 45 28 54
4 10 -27 7 -32 -28 -44 -46 -15 -73 -46 -60 -68 9 -13 27 -17 77 -19 37 -1 69
3 72 8 4 5 -1 9 -9 9 -13 0 -16 12 -16 53 0 77 -36 111 -90 84z m44 -134 c-25
-18 -38 -12 -42 19 -3 21 3 28 25 35 25 9 28 8 31 -16 2 -15 -3 -30 -14 -38z"/>
<path d="M3513 11692 c-22 -3 -33 -22 -13 -22 6 0 10 -27 10 -60 0 -46 -4 -61
-17 -69 -14 -8 -7 -10 31 -11 42 0 47 2 33 13 -12 9 -17 31 -19 82 -3 66 -4
70 -25 67z"/>
<path d="M3633 11690 c-50 -20 -64 -100 -26 -142 23 -26 76 -23 99 5 10 12 12
16 4 10 -22 -20 -68 -16 -80 6 -14 27 -13 84 2 99 18 18 46 14 53 -8 7 -22 20
-26 31 -9 15 25 -46 54 -83 39z"/>
<path d="M3780 11687 c-29 -14 -40 -47 -16 -47 9 0 16 8 16 20 0 25 45 28 54
4 10 -27 7 -32 -28 -44 -46 -15 -73 -46 -60 -68 9 -13 27 -17 77 -19 37 -1 69
3 72 8 4 5 -1 9 -9 9 -13 0 -16 12 -16 53 0 77 -36 111 -90 84z m44 -134 c-25
-18 -38 -12 -42 19 -3 21 3 28 25 35 25 9 28 8 31 -16 2 -15 -3 -30 -14 -38z"/>
<path d="M4460 11687 c-29 -14 -40 -47 -16 -47 9 0 16 8 16 20 0 25 45 28 54
4 10 -27 7 -32 -28 -44 -46 -15 -73 -46 -60 -68 9 -13 27 -17 77 -19 37 -1 69
3 72 8 4 5 -1 9 -9 9 -13 0 -16 12 -16 53 0 77 -36 111 -90 84z m44 -134 c-25
-18 -38 -12 -42 19 -3 21 3 28 25 35 25 9 28 8 31 -16 2 -15 -3 -30 -14 -38z"/>
<path d="M4643 11690 c-50 -20 -64 -100 -26 -142 23 -26 76 -23 99 5 10 12 12
16 4 10 -22 -20 -68 -16 -80 6 -14 27 -13 84 2 99 18 18 46 14 53 -8 7 -22 20
-26 31 -9 15 25 -46 54 -83 39z"/>
<path d="M4832 11684 c-13 -9 -22 -11 -22 -5 0 6 -11 11 -25 11 -25 0 -33 -14
-15 -25 6 -3 10 -30 10 -60 0 -41 -4 -56 -17 -64 -14 -8 -7 -10 32 -10 39 0
46 2 33 10 -13 7 -18 23 -18 59 0 50 11 67 43 62 10 -2 17 3 17 12 0 23 -15
27 -38 10z"/>
<path d="M4942 11690 c-33 -14 -54 -70 -41 -109 13 -36 35 -51 78 -51 43 0 71
31 71 79 0 64 -52 104 -108 81z m62 -32 c19 -27 21 -89 4 -106 -33 -33 -78 6
-78 68 0 59 44 81 74 38z"/>
<path d="M5162 11684 c-13 -9 -22 -11 -22 -5 0 6 -11 11 -25 11 -25 0 -33 -14
-15 -25 6 -3 10 -30 10 -60 0 -41 -4 -56 -17 -64 -14 -8 -7 -10 32 -10 39 0
46 2 33 10 -13 7 -18 23 -18 59 0 50 11 67 43 62 10 -2 17 3 17 12 0 23 -15
27 -38 10z"/>
<path d="M5272 11690 c-33 -14 -54 -70 -41 -109 13 -36 35 -51 78 -51 43 0 71
31 71 79 0 64 -52 104 -108 81z m62 -32 c19 -27 21 -89 4 -106 -33 -33 -78 6
-78 68 0 59 44 81 74 38z"/>
<path d="M5553 11685 c-52 -22 -64 -91 -25 -137 19 -22 85 -24 102 -3 10 12 6
13 -26 8 -40 -7 -64 12 -64 49 0 15 8 18 50 18 46 0 50 2 50 24 0 41 -41 60
-87 41z m55 -27 c3 -15 -4 -18 -32 -18 -38 0 -44 8 -24 28 17 17 52 11 56 -10z"/>
<path d="M5714 11690 c-46 -18 -40 -59 13 -90 22 -13 33 -26 31 -38 -5 -26
-44 -27 -62 0 l-16 22 0 -27 c0 -25 3 -27 44 -27 77 0 92 60 23 93 -26 12 -37
23 -35 35 4 23 39 28 54 7 8 -11 14 -13 19 -5 14 23 -36 44 -71 30z"/>
<path d="M8422 11684 c-13 -9 -22 -11 -22 -5 0 6 -11 11 -25 11 -25 0 -33 -14
-15 -25 6 -3 10 -30 10 -60 0 -41 -4 -56 -17 -64 -14 -8 -7 -10 32 -10 39 0
46 2 33 10 -13 7 -18 23 -18 59 0 50 11 67 43 62 10 -2 17 3 17 12 0 23 -15
27 -38 10z"/>
<path d="M8520 11687 c-29 -14 -40 -47 -16 -47 9 0 16 8 16 20 0 25 45 28 54
4 10 -27 7 -32 -28 -44 -46 -15 -73 -46 -60 -68 9 -13 27 -17 77 -19 37 -1 69
3 72 8 4 5 -1 9 -9 9 -13 0 -16 12 -16 53 0 77 -36 111 -90 84z m44 -134 c-25
-18 -38 -12 -42 19 -3 21 3 28 25 35 25 9 28 8 31 -16 2 -15 -3 -30 -14 -38z"/>
<path d="M8673 11692 c-22 -3 -33 -22 -13 -22 15 0 13 -127 -2 -133 -7 -3 7
-5 32 -5 25 0 39 2 33 5 -9 3 -13 26 -13 64 0 55 2 59 26 65 17 4 29 2 35 -7
15 -23 10 -96 -7 -113 -14 -15 -11 -16 28 -16 26 0 38 3 30 9 -9 5 -12 26 -10
67 3 58 3 59 33 59 29 0 30 -1 33 -55 3 -43 -1 -57 -14 -67 -16 -11 -12 -13
26 -13 34 0 41 3 32 12 -7 7 -12 38 -12 69 0 39 -5 63 -16 73 -19 20 -22 20
-57 1 -25 -13 -31 -13 -50 0 -20 13 -26 13 -51 0 -34 -18 -34 -18 -38 -2 -2 6
-13 11 -25 9z"/>
<path d="M8973 11692 c-22 -3 -33 -22 -13 -22 15 0 13 -127 -2 -133 -7 -3 7
-5 32 -5 25 0 39 2 33 5 -9 3 -13 26 -13 64 0 55 2 59 26 65 17 4 29 2 35 -7
15 -23 10 -96 -7 -113 -14 -15 -11 -16 28 -16 26 0 38 3 30 9 -9 5 -12 26 -10
67 3 58 3 59 33 59 29 0 30 -1 33 -55 3 -43 -1 -57 -14 -67 -16 -11 -12 -13
26 -13 34 0 41 3 32 12 -7 7 -12 38 -12 69 0 39 -5 63 -16 73 -19 20 -22 20
-57 1 -25 -13 -31 -13 -50 0 -20 13 -26 13 -51 0 -34 -18 -34 -18 -38 -2 -2 6
-13 11 -25 9z"/>
<path d="M9280 11687 c-29 -14 -40 -47 -16 -47 9 0 16 8 16 20 0 25 45 28 54
4 10 -27 7 -32 -28 -44 -46 -15 -73 -46 -60 -68 9 -13 27 -17 77 -19 37 -1 69
3 72 8 4 5 -1 9 -9 9 -13 0 -16 12 -16 53 0 77 -36 111 -90 84z m44 -134 c-25
-18 -38 -12 -42 19 -3 21 3 28 25 35 25 9 28 8 31 -16 2 -15 -3 -30 -14 -38z"/>
<path d="M9563 11692 c-22 -3 -33 -22 -13 -22 6 0 10 -27 10 -60 0 -46 -4 -61
-17 -69 -14 -8 -7 -10 31 -11 42 0 47 2 33 13 -12 9 -17 31 -19 82 -3 66 -4
70 -25 67z"/>
<path d="M9693 11690 c-50 -20 -64 -100 -26 -142 23 -26 76 -23 99 5 10 12 12
16 4 10 -22 -20 -68 -16 -80 6 -14 27 -13 84 2 99 18 18 46 14 53 -8 7 -22 20
-26 31 -9 15 25 -46 54 -83 39z"/>
<path d="M9840 11687 c-29 -14 -40 -47 -16 -47 9 0 16 8 16 20 0 25 45 28 54
4 10 -27 7 -32 -28 -44 -46 -15 -73 -46 -60 -68 9 -13 27 -17 77 -19 37 -1 69
3 72 8 4 5 -1 9 -9 9 -13 0 -16 12 -16 53 0 77 -36 111 -90 84z m44 -134 c-25
-18 -38 -12 -42 19 -3 21 3 28 25 35 25 9 28 8 31 -16 2 -15 -3 -30 -14 -38z"/>
<path d="M10626 11684 c-14 -7 -26 -9 -26 -3 0 5 -11 9 -25 9 -14 0 -25 -4
-25 -10 0 -5 5 -10 10 -10 6 0 10 -40 10 -101 0 -85 -3 -104 -17 -115 -16 -12
-12 -13 30 -14 26 0 47 5 47 10 0 6 -7 10 -15 10 -10 0 -15 11 -15 35 0 34 1
35 39 35 31 0 44 6 60 26 54 68 -2 165 -73 128z m43 -17 c39 -47 14 -131 -37
-125 -25 3 -27 7 -30 52 -4 67 35 110 67 73z"/>
<path d="M10832 11684 c-13 -9 -22 -11 -22 -5 0 6 -11 11 -25 11 -25 0 -33
-14 -15 -25 6 -3 10 -30 10 -60 0 -41 -4 -56 -17 -64 -14 -8 -7 -10 32 -10 39
0 46 2 33 10 -13 7 -18 23 -18 59 0 50 11 67 43 62 10 -2 17 3 17 12 0 23 -15
27 -38 10z"/>
<path d="M10933 11685 c-52 -22 -64 -91 -25 -137 19 -22 85 -24 102 -3 10 12
6 13 -26 8 -40 -7 -64 12 -64 49 0 15 8 18 50 18 46 0 50 2 50 24 0 41 -41 60
-87 41z m55 -27 c3 -15 -4 -18 -32 -18 -38 0 -44 8 -24 28 17 17 52 11 56 -10z"/>
<path d="M11094 11690 c-46 -18 -40 -59 13 -90 22 -13 33 -26 31 -38 -5 -26
-44 -27 -62 0 l-16 22 0 -27 c0 -25 3 -27 44 -27 77 0 92 60 23 93 -26 12 -37
23 -35 35 4 23 39 28 54 7 8 -11 14 -13 19 -5 14 23 -36 44 -71 30z"/>
<path d="M11244 11690 c-46 -18 -40 -59 13 -90 22 -13 33 -26 31 -38 -5 -26
-44 -27 -62 0 l-16 22 0 -27 c0 -25 3 -27 44 -27 77 0 92 60 23 93 -26 12 -37
23 -35 35 4 23 39 28 54 7 8 -11 14 -13 19 -5 14 23 -36 44 -71 30z"/>
<path d="M11373 11692 c-22 -3 -33 -22 -13 -22 6 0 10 -27 10 -60 0 -46 -4
-61 -17 -69 -14 -8 -7 -10 31 -11 42 0 47 2 33 13 -12 9 -17 31 -19 82 -3 66
-4 70 -25 67z"/>
<path d="M11502 11690 c-33 -14 -54 -70 -41 -109 13 -36 35 -51 78 -51 43 0
71 31 71 79 0 64 -52 104 -108 81z m62 -32 c19 -27 21 -89 4 -106 -33 -33 -78
6 -78 68 0 59 44 81 74 38z"/>
<path d="M11650 11690 c-17 -4 -21 -8 -12 -14 17 -10 16 -133 0 -139 -7 -3 7
-6 32 -6 34 -1 41 2 32 11 -19 19 -16 114 4 122 45 17 54 9 54 -52 0 -32 -5
-63 -12 -70 -9 -9 -2 -12 33 -12 35 1 40 3 27 11 -14 8 -18 24 -18 74 0 54 -3
66 -20 75 -16 9 -28 7 -52 -4 -37 -19 -36 -19 -40 -3 -2 9 -12 11 -28 7z"/>
<path d="M11884 11690 c-46 -18 -40 -59 13 -90 22 -13 33 -26 31 -38 -5 -26
-44 -27 -62 0 l-16 22 0 -27 c0 -25 3 -27 44 -27 77 0 92 60 23 93 -26 12 -37
23 -35 35 4 23 39 28 54 7 8 -11 14 -13 19 -5 14 23 -36 44 -71 30z"/>
<path d="M10380 11677 c9 -7 26 -26 38 -43 l22 -31 -36 -37 -35 -36 30 0 c23
0 28 4 24 18 -7 27 21 47 37 27 7 -8 10 -22 6 -30 -4 -12 3 -15 33 -15 l38 0
-38 41 -38 42 20 26 c11 14 30 31 42 38 20 11 19 12 -18 12 -25 1 -35 -2 -27
-8 10 -6 9 -13 -6 -31 l-19 -24 -12 22 c-7 12 -9 27 -6 32 4 6 -10 10 -32 10
-32 -1 -35 -3 -23 -13z"/>
<path d="M330 11180 c0 -20 7 -20 6110 -20 6103 0 6110 0 6110 20 0 20 -7 20
-6110 20 -6103 0 -6110 0 -6110 -20z"/>
<path d="M2990 10790 c-13 -8 -12 -10 3 -10 15 0 17 -12 17 -118 l0 -119 45
-1 c37 -2 51 3 70 22 58 58 9 162 -62 135 -22 -8 -23 -6 -23 46 0 46 -3 55
-17 55 -10 0 -25 -5 -33 -10z m114 -122 c32 -45 7 -122 -37 -116 -19 3 -22 10
-25 62 -2 41 1 62 10 67 21 14 36 10 52 -13z"/>
<path d="M11080 10790 c-13 -8 -12 -10 3 -10 15 0 17 -12 17 -118 l0 -119 45
-1 c37 -2 51 3 70 22 58 58 9 162 -62 135 -22 -8 -23 -6 -23 46 0 46 -3 55
-17 55 -10 0 -25 -5 -33 -10z m114 -122 c32 -45 7 -122 -37 -116 -19 3 -22 10
-25 62 -2 41 1 62 10 67 21 14 36 10 52 -13z"/>
<path d="M2636 10769 c-21 -16 -26 -28 -24 -53 3 -26 11 -35 56 -59 47 -25 52
-32 52 -62 0 -53 -54 -63 -96 -18 l-26 28 4 -30 c3 -30 4 -30 62 -30 52 0 61
3 79 27 30 41 17 71 -46 105 -45 24 -52 32 -52 58 0 26 4 30 32 33 24 2 35 -2
45 -17 17 -28 26 -26 21 3 -8 40 -65 48 -107 15z"/>
<path d="M6689 10760 c-35 -35 -33 -62 9 -98 15 -12 39 -33 55 -46 17 -15 25
-30 21 -40 -14 -36 -76 -27 -89 14 -10 32 -27 23 -23 -12 3 -33 4 -33 60 -36
47 -2 61 1 78 18 35 35 24 78 -30 118 -55 42 -65 58 -50 78 19 22 49 17 62
-11 15 -33 28 -32 28 4 0 21 -6 30 -22 35 -45 12 -70 6 -99 -24z"/>
<path d="M10736 10769 c-21 -16 -26 -28 -24 -53 3 -26 11 -35 56 -59 47 -25
52 -32 52 -62 0 -53 -54 -63 -96 -18 l-26 28 4 -30 c3 -30 4 -30 62 -30 52 0
61 3 79 27 30 41 17 71 -46 105 -45 24 -52 32 -52 58 0 26 4 30 32 33 24 2 35
-2 45 -17 17 -28 26 -26 21 3 -8 40 -65 48 -107 15z"/>
<path d="M3200 10766 c0 -8 4 -17 9 -20 11 -7 33 18 24 27 -12 12 -33 7 -33
-7z"/>
<path d="M6858 10770 c21 -9 22 -15 22 -104 0 -87 -2 -96 -22 -110 -21 -15
-17 -16 70 -16 85 0 95 2 117 25 31 30 32 59 2 89 -20 20 -22 26 -10 42 40 54
-2 84 -117 83 -61 0 -79 -3 -62 -9z m116 -6 c10 -4 16 -18 16 -39 0 -32 -13
-45 -46 -45 -10 0 -14 12 -14 38 0 50 9 60 44 46z m24 -116 c7 -7 12 -24 12
-38 0 -34 -17 -50 -52 -50 -27 0 -28 2 -28 50 0 48 1 50 28 50 15 0 33 -5 40
-12z"/>
<path d="M7118 10770 c21 -9 22 -14 22 -138 0 -71 -3 -132 -7 -135 -3 -4 -15
0 -25 9 -14 14 -20 14 -33 4 -12 -10 -13 -16 -4 -26 19 -23 56 -16 91 15 l33
29 4 121 c3 101 6 121 20 124 9 3 -15 5 -54 5 -51 1 -64 -2 -47 -8z"/>
<path d="M7943 10769 c14 -8 17 -25 17 -106 0 -80 -3 -98 -17 -109 -16 -12
-12 -13 32 -13 43 0 47 2 28 11 -21 10 -23 18 -23 85 0 40 1 73 3 73 2 0 37
-41 77 -90 41 -50 79 -89 85 -87 6 2 11 48 13 113 2 88 6 111 19 122 14 10 9
12 -33 11 -27 -1 -41 -3 -32 -6 20 -5 31 -50 26 -113 l-3 -45 -69 83 c-63 75
-72 82 -105 82 -29 -1 -33 -3 -18 -11z"/>
<path d="M8823 10762 c13 -14 17 -39 17 -105 0 -77 -2 -87 -22 -101 -22 -15
-21 -16 27 -16 42 0 46 2 31 13 -14 10 -16 26 -14 90 l3 77 70 -90 c39 -49 76
-89 83 -90 9 0 12 28 12 110 0 93 3 110 18 119 13 8 6 10 -33 10 -40 0 -45 -2
-27 -9 20 -9 22 -16 22 -92 l-1 -83 -29 35 c-16 19 -49 61 -72 92 -35 46 -49
57 -72 58 -28 0 -28 -1 -13 -18z"/>
<path d="M9577 10774 c-9 -10 2 -24 19 -24 8 0 14 7 14 15 0 15 -21 21 -33 9z"/>
<path d="M10177 10774 c-9 -10 2 -24 19 -24 8 0 14 7 14 15 0 15 -21 21 -33 9z"/>
<path d="M11290 10766 c0 -8 4 -17 9 -20 11 -7 33 18 24 27 -12 12 -33 7 -33
-7z"/>
<path d="M3633 10753 c-7 -3 -13 -15 -13 -28 0 -13 -6 -26 -12 -28 -10 -4 -10
-6 0 -6 8 -1 12 -20 12 -60 0 -33 3 -66 6 -75 6 -16 30 -21 58 -10 23 9 19 21
-6 20 -21 -1 -23 4 -26 61 -3 61 -2 62 25 66 l28 4 -27 2 c-22 1 -27 6 -30 29
-2 18 -8 27 -15 25z"/>
<path d="M10063 10753 c-7 -3 -13 -15 -13 -28 0 -13 -6 -26 -12 -28 -10 -4
-10 -6 0 -6 8 -1 12 -20 12 -60 0 -33 3 -66 6 -75 6 -16 30 -21 58 -10 23 9
19 21 -6 20 -21 -1 -23 4 -26 61 -3 61 -2 62 25 66 l28 4 -27 2 c-22 1 -27 6
-30 29 -2 18 -8 27 -15 25z"/>
<path d="M11723 10753 c-7 -3 -13 -15 -13 -28 0 -13 -6 -26 -12 -28 -10 -4
-10 -6 0 -6 8 -1 12 -20 12 -60 0 -33 3 -66 6 -75 6 -16 30 -21 58 -10 23 9
19 21 -6 20 -21 -1 -23 4 -26 61 -3 61 -2 62 25 66 l28 4 -27 2 c-22 1 -27 6
-30 29 -2 18 -8 27 -15 25z"/>
<path d="M3323 10695 c-52 -22 -64 -91 -25 -137 19 -22 85 -24 102 -3 10 12 6
13 -26 8 -40 -7 -64 12 -64 49 0 15 8 18 50 18 46 0 50 2 50 24 0 41 -41 60
-87 41z m55 -27 c3 -15 -4 -18 -32 -18 -38 0 -44 8 -24 28 17 17 52 11 56 -10z"/>
<path d="M3493 10700 c-50 -20 -64 -100 -26 -142 23 -26 76 -23 99 5 10 12 12
16 4 10 -22 -20 -68 -16 -80 6 -14 27 -13 84 2 99 18 18 46 14 53 -8 7 -22 20
-26 31 -9 15 25 -46 54 -83 39z"/>
<path d="M9122 10700 c-33 -14 -54 -70 -41 -109 13 -36 35 -51 78 -51 43 0 71
31 71 79 0 64 -52 104 -108 81z m62 -32 c19 -27 21 -89 4 -106 -33 -33 -78 6
-78 68 0 59 44 81 74 38z"/>
<path d="M9283 10702 c-22 -3 -33 -22 -13 -22 15 0 13 -127 -2 -133 -7 -3 7
-5 32 -5 25 0 39 2 33 5 -9 3 -13 26 -13 64 0 55 2 59 26 65 17 4 29 2 35 -7
15 -23 10 -96 -7 -113 -14 -15 -11 -16 28 -16 26 0 38 3 30 9 -9 5 -12 26 -10
67 3 58 3 59 33 59 29 0 30 -1 33 -55 3 -43 -1 -57 -14 -67 -16 -11 -12 -13
26 -13 34 0 41 3 32 12 -7 7 -12 38 -12 69 0 39 -5 63 -16 73 -19 20 -22 20
-57 1 -25 -13 -31 -13 -50 0 -20 13 -26 13 -51 0 -34 -18 -34 -18 -38 -2 -2 6
-13 11 -25 9z"/>
<path d="M9583 10702 c-22 -3 -33 -22 -13 -22 6 0 10 -27 10 -60 0 -46 -4 -61
-17 -69 -14 -8 -7 -10 31 -11 42 0 47 2 33 13 -12 9 -17 31 -19 82 -3 66 -4
70 -25 67z"/>
<path d="M9680 10700 c-17 -4 -21 -8 -12 -14 17 -10 16 -133 0 -139 -7 -3 7
-6 32 -6 34 -1 41 2 32 11 -19 19 -16 114 4 122 45 17 54 9 54 -52 0 -32 -5
-63 -12 -70 -9 -9 -2 -12 33 -12 35 1 40 3 27 11 -14 8 -18 24 -18 74 0 54 -3
66 -20 75 -16 9 -28 7 -52 -4 -37 -19 -36 -19 -40 -3 -2 9 -12 11 -28 7z"/>
<path d="M9900 10697 c-29 -14 -40 -47 -16 -47 9 0 16 8 16 20 0 25 45 28 54
4 10 -27 7 -32 -28 -44 -46 -15 -73 -46 -60 -68 9 -13 27 -17 77 -19 37 -1 69
3 72 8 4 5 -1 9 -9 9 -13 0 -16 12 -16 53 0 77 -36 111 -90 84z m44 -134 c-25
-18 -38 -12 -42 19 -3 21 3 28 25 35 25 9 28 8 31 -16 2 -15 -3 -30 -14 -38z"/>
<path d="M10183 10702 c-22 -3 -33 -22 -13 -22 6 0 10 -27 10 -60 0 -46 -4
-61 -17 -69 -14 -8 -7 -10 31 -11 42 0 47 2 33 13 -12 9 -17 31 -19 82 -3 66
-4 70 -25 67z"/>
<path d="M10483 10695 c-52 -22 -64 -91 -25 -137 19 -22 85 -24 102 -3 10 12
6 13 -26 8 -40 -7 -64 12 -64 49 0 15 8 18 50 18 46 0 50 2 50 24 0 41 -41 60
-87 41z m55 -27 c3 -15 -4 -18 -32 -18 -38 0 -44 8 -24 28 17 17 52 11 56 -10z"/>
<path d="M11413 10695 c-52 -22 -64 -91 -25 -137 19 -22 85 -24 102 -3 10 12
6 13 -26 8 -40 -7 -64 12 -64 49 0 15 8 18 50 18 46 0 50 2 50 24 0 41 -41 60
-87 41z m55 -27 c3 -15 -4 -18 -32 -18 -38 0 -44 8 -24 28 17 17 52 11 56 -10z"/>
<path d="M11583 10700 c-50 -20 -64 -100 -26 -142 23 -26 76 -23 99 5 10 12
12 16 4 10 -22 -20 -68 -16 -80 6 -14 27 -13 84 2 99 18 18 46 14 53 -8 7 -22
20 -26 31 -9 15 25 -46 54 -83 39z"/>
<path d="M2798 10693 c7 -3 12 -25 12 -59 0 -31 5 -64 10 -75 11 -20 54 -26
80 -9 9 6 17 5 21 -2 4 -6 16 -7 29 -3 16 5 19 10 11 18 -6 6 -11 39 -11 74
l0 63 -31 0 c-28 0 -29 -1 -15 -16 19 -18 22 -94 4 -112 -7 -7 -22 -12 -35
-12 -27 0 -37 29 -31 95 3 44 3 45 -27 44 -16 0 -24 -3 -17 -6z"/>
<path d="M3180 10690 c0 -5 5 -10 10 -10 13 0 13 -179 1 -199 -7 -12 -13 -12
-24 -3 -7 7 -17 9 -20 5 -15 -14 -6 -23 22 -23 49 0 61 29 61 142 0 98 0 98
-25 98 -14 0 -25 -4 -25 -10z"/>
<path d="M10251 10690 c8 -5 28 -41 44 -80 16 -39 33 -69 38 -67 5 1 20 30 34
62 13 33 34 68 45 78 20 17 19 17 -18 17 -26 0 -34 -3 -25 -9 11 -7 11 -16 -4
-55 -10 -25 -21 -46 -25 -46 -4 0 -15 21 -25 46 -15 39 -15 48 -4 55 9 6 -2 9
-31 9 -32 -1 -41 -3 -29 -10z"/>
<path d="M10888 10693 c7 -3 12 -25 12 -59 0 -31 5 -64 10 -75 11 -20 54 -26
80 -9 9 6 17 5 21 -2 4 -6 16 -7 29 -3 16 5 19 10 11 18 -6 6 -11 39 -11 74
l0 63 -31 0 c-28 0 -29 -1 -15 -16 19 -18 22 -94 4 -112 -7 -7 -22 -12 -35
-12 -27 0 -37 29 -31 95 3 44 3 45 -27 44 -16 0 -24 -3 -17 -6z"/>
<path d="M11270 10690 c0 -5 5 -10 10 -10 13 0 13 -179 1 -199 -7 -12 -13 -12
-24 -3 -7 7 -17 9 -20 5 -15 -14 -6 -23 22 -23 49 0 61 29 61 142 0 98 0 98
-25 98 -14 0 -25 -4 -25 -10z"/>
<path d="M10830 9820 c-13 -8 -12 -10 3 -10 15 0 17 -12 17 -118 l0 -119 45
-1 c37 -2 51 3 70 22 58 58 9 162 -62 135 -22 -8 -23 -6 -23 46 0 46 -3 55
-17 55 -10 0 -25 -5 -33 -10z m114 -122 c32 -45 7 -122 -37 -116 -19 3 -22 10
-25 62 -2 41 1 62 10 67 21 14 36 10 52 -13z"/>
<path d="M10630 9798 c-72 -49 -76 -166 -7 -208 67 -41 149 -18 177 50 46 111
-74 223 -170 158z m95 -4 c25 -10 45 -59 45 -114 0 -41 -5 -56 -25 -75 -80
-81 -179 59 -115 163 20 32 53 42 95 26z"/>
<path d="M8048 9798 c-8 -7 -32 -53 -52 -103 -21 -49 -47 -98 -58 -107 -20
-18 -19 -18 28 -18 42 0 46 2 30 13 -17 13 -17 15 -2 45 14 27 22 32 55 32 34
0 39 -3 48 -35 9 -29 9 -37 -5 -45 -12 -7 1 -9 48 -10 60 0 63 1 43 15 -13 9
-35 55 -58 120 -21 58 -43 105 -49 105 -7 0 -19 -6 -28 -12z m20 -85 c11 -32
10 -33 -19 -33 -32 0 -34 3 -18 49 13 36 21 32 37 -16z"/>
<path d="M8881 9705 c-24 -59 -53 -112 -64 -120 -20 -14 -18 -15 28 -15 44 0
47 1 30 14 -16 12 -17 17 -6 45 12 28 18 31 57 31 39 0 46 -3 54 -26 14 -37
12 -52 -7 -57 -10 -3 6 -5 36 -6 52 -1 53 -1 33 17 -11 9 -34 55 -50 102 -42
118 -43 120 -56 120 -7 0 -31 -47 -55 -105z m65 30 c20 -49 18 -55 -22 -55
-30 0 -35 3 -29 18 4 9 12 29 17 45 5 15 12 27 14 27 3 0 12 -16 20 -35z"/>
<path d="M10047 9804 c-9 -10 2 -24 19 -24 8 0 14 7 14 15 0 15 -21 21 -33 9z"/>
<path d="M11040 9796 c0 -8 4 -17 9 -20 11 -7 33 18 24 27 -12 12 -33 7 -33
-7z"/>
<path d="M9933 9783 c-7 -3 -13 -15 -13 -28 0 -13 -6 -26 -12 -28 -10 -4 -10
-6 0 -6 8 -1 12 -20 12 -60 0 -33 3 -66 6 -75 6 -16 30 -21 58 -10 23 9 19 21
-6 20 -21 -1 -23 4 -26 61 -3 61 -2 62 25 66 l28 4 -27 2 c-22 1 -27 6 -30 29
-2 18 -8 27 -15 25z"/>
<path d="M11483 9783 c-7 -3 -13 -15 -13 -28 0 -13 -6 -26 -12 -28 -10 -4 -10
-6 0 -6 8 -1 12 -20 12 -60 0 -33 3 -66 6 -75 6 -16 30 -21 58 -10 23 9 19 21
-6 20 -21 -1 -23 4 -26 61 -3 61 -2 62 25 66 l28 4 -27 2 c-22 1 -27 6 -30 29
-2 18 -8 27 -15 25z"/>
<path d="M9113 9730 c-50 -20 -64 -100 -26 -142 23 -26 76 -23 99 5 10 12 12
16 4 10 -22 -20 -68 -16 -80 6 -14 27 -13 84 2 99 18 18 46 14 53 -8 7 -22 20
-26 31 -9 15 25 -46 54 -83 39z"/>
<path d="M9273 9730 c-50 -20 -64 -100 -26 -142 23 -26 76 -23 99 5 10 12 12
16 4 10 -22 -20 -68 -16 -80 6 -14 27 -13 84 2 99 18 18 46 14 53 -8 7 -22 20
-26 31 -9 15 25 -46 54 -83 39z"/>
<path d="M9624 9730 c-46 -18 -40 -59 13 -90 22 -13 33 -26 31 -38 -5 -26 -44
-27 -62 0 l-16 22 0 -27 c0 -25 3 -27 44 -27 77 0 92 60 23 93 -26 12 -37 23
-35 35 4 23 39 28 54 7 8 -11 14 -13 19 -5 14 23 -36 44 -71 30z"/>
<path d="M9770 9727 c-29 -14 -40 -47 -16 -47 9 0 16 8 16 20 0 25 45 28 54 4
10 -27 7 -32 -28 -44 -46 -15 -73 -46 -60 -68 9 -13 27 -17 77 -19 37 -1 69 3
72 8 4 5 -1 9 -9 9 -13 0 -16 12 -16 53 0 77 -36 111 -90 84z m44 -134 c-25
-18 -38 -12 -42 19 -3 21 3 28 25 35 25 9 28 8 31 -16 2 -15 -3 -30 -14 -38z"/>
<path d="M10053 9732 c-22 -3 -33 -22 -13 -22 6 0 10 -27 10 -60 0 -46 -4 -61
-17 -69 -14 -8 -7 -10 31 -11 42 0 47 2 33 13 -12 9 -17 31 -19 82 -3 66 -4
70 -25 67z"/>
<path d="M10353 9725 c-52 -22 -64 -91 -25 -137 19 -22 85 -24 102 -3 10 12 6
13 -26 8 -40 -7 -64 12 -64 49 0 15 8 18 50 18 46 0 50 2 50 24 0 41 -41 60
-87 41z m55 -27 c3 -15 -4 -18 -32 -18 -38 0 -44 8 -24 28 17 17 52 11 56 -10z"/>
<path d="M11173 9725 c-52 -22 -64 -91 -25 -137 19 -22 85 -24 102 -3 10 12 6
13 -26 8 -40 -7 -64 12 -64 49 0 15 8 18 50 18 46 0 50 2 50 24 0 41 -41 60
-87 41z m55 -27 c3 -15 -4 -18 -32 -18 -38 0 -44 8 -24 28 17 17 52 11 56 -10z"/>
<path d="M11343 9730 c-50 -20 -64 -100 -26 -142 23 -26 76 -23 99 5 10 12 12
16 4 10 -22 -20 -68 -16 -80 6 -14 27 -13 84 2 99 18 18 46 14 53 -8 7 -22 20
-26 31 -9 15 25 -46 54 -83 39z"/>
<path d="M9388 9723 c7 -3 12 -25 12 -59 0 -31 5 -64 10 -75 11 -20 54 -26 80
-9 9 6 17 5 21 -2 4 -6 16 -7 29 -3 16 5 19 10 11 18 -6 6 -11 39 -11 74 l0
63 -31 0 c-28 0 -29 -1 -15 -16 19 -18 22 -94 4 -112 -7 -7 -22 -12 -35 -12
-27 0 -37 29 -31 95 3 44 3 45 -27 44 -16 0 -24 -3 -17 -6z"/>
<path d="M10121 9720 c8 -5 28 -41 44 -80 16 -39 33 -69 38 -67 5 1 20 30 34
62 13 33 34 68 45 78 20 17 19 17 -18 17 -26 0 -34 -3 -25 -9 11 -7 11 -16 -4
-55 -10 -25 -21 -46 -25 -46 -4 0 -15 21 -25 46 -15 39 -15 48 -4 55 9 6 -2 9
-31 9 -32 -1 -41 -3 -29 -10z"/>
<path d="M11020 9720 c0 -5 5 -10 10 -10 13 0 13 -179 1 -199 -7 -12 -13 -12
-24 -3 -7 7 -17 9 -20 5 -15 -14 -6 -23 22 -23 49 0 61 29 61 142 0 98 0 98
-25 98 -14 0 -25 -4 -25 -10z"/>
<path d="M4990 9030 c-13 -8 -12 -10 3 -10 13 0 17 -9 17 -39 0 -37 -2 -40
-28 -39 -41 1 -69 -18 -81 -55 -12 -36 -1 -84 22 -99 18 -12 65 -9 73 3 5 8 9
8 14 -1 4 -7 17 -9 35 -4 23 6 25 8 11 16 -13 7 -16 28 -16 123 0 103 -2 115
-17 115 -10 0 -25 -5 -33 -10z m18 -162 c3 -54 2 -58 -23 -64 -37 -9 -55 11
-55 60 0 49 15 68 50 64 23 -3 25 -8 28 -60z"/>
<path d="M4231 9013 c-44 -22 -76 -89 -66 -141 3 -19 19 -48 35 -64 39 -38
115 -40 157 -3 15 13 23 25 17 25 -6 0 -17 -7 -24 -15 -17 -20 -74 -29 -99
-16 -28 16 -51 62 -51 106 0 64 33 104 86 105 33 0 55 -14 72 -45 10 -18 11
-17 12 12 0 26 -5 33 -31 42 -43 15 -68 14 -108 -6z"/>
<path d="M4440 8937 c-29 -14 -40 -47 -16 -47 9 0 16 8 16 20 0 25 45 28 54 4
10 -27 7 -32 -28 -44 -46 -15 -73 -46 -60 -68 9 -13 27 -17 77 -19 37 -1 69 3
72 8 4 5 -1 9 -9 9 -13 0 -16 12 -16 53 0 77 -36 111 -90 84z m44 -134 c-25
-18 -38 -12 -42 19 -3 21 3 28 25 35 25 9 28 8 31 -16 2 -15 -3 -30 -14 -38z"/>
<path d="M4614 8940 c-46 -18 -40 -59 13 -90 22 -13 33 -26 31 -38 -5 -26 -44
-27 -62 0 l-16 22 0 -27 c0 -25 3 -27 44 -27 77 0 92 60 23 93 -26 12 -37 23
-35 35 4 23 39 28 54 7 8 -11 14 -13 19 -5 14 23 -36 44 -71 30z"/>
<path d="M4773 8935 c-52 -22 -64 -91 -25 -137 19 -22 85 -24 102 -3 10 12 6
13 -26 8 -40 -7 -64 12 -64 49 0 15 8 18 50 18 46 0 50 2 50 24 0 41 -41 60
-87 41z m55 -27 c3 -15 -4 -18 -32 -18 -38 0 -44 8 -24 28 17 17 52 11 56 -10z"/>
<path d="M10170 8830 c-13 -8 -12 -10 3 -10 15 0 17 -12 17 -118 l0 -119 45
-1 c37 -2 51 3 70 22 58 58 9 162 -62 135 -22 -8 -23 -6 -23 46 0 46 -3 55
-17 55 -10 0 -25 -5 -33 -10z m114 -122 c32 -45 7 -122 -37 -116 -19 3 -22 10
-25 62 -2 41 1 62 10 67 21 14 36 10 52 -13z"/>
<path d="M9970 8808 c-72 -49 -76 -166 -7 -208 67 -41 149 -18 177 50 46 111
-74 223 -170 158z m95 -4 c25 -10 45 -59 45 -114 0 -41 -5 -56 -25 -75 -80
-81 -179 59 -115 163 20 32 53 42 95 26z"/>
<path d="M6692 8805 c-33 -14 -71 -78 -72 -118 0 -33 32 -88 61 -102 37 -20
109 -19 137 1 53 37 69 130 31 178 -42 53 -96 67 -157 41z m93 -25 c23 -26 32
-119 15 -160 -37 -90 -132 -7 -117 103 10 70 63 100 102 57z"/>
<path d="M7953 8809 c14 -8 17 -25 17 -109 0 -84 -3 -101 -17 -109 -13 -8 4
-10 67 -11 68 0 92 4 118 20 65 40 69 131 8 187 -35 32 -38 33 -123 33 -65 -1
-83 -3 -70 -11z m125 -10 c60 -21 72 -155 18 -191 -6 -4 -23 -8 -38 -8 l-28 0
0 98 c0 83 4 112 15 112 1 0 16 -5 33 -11z"/>
<path d="M8823 8809 c14 -8 17 -25 17 -110 0 -94 -1 -100 -22 -109 -17 -6 1
-9 62 -9 67 -1 92 3 117 19 69 41 65 149 -6 197 -28 19 -47 23 -110 23 -57 -1
-72 -3 -58 -11z m147 -26 c37 -33 50 -95 30 -142 -14 -34 -66 -57 -106 -47
-23 6 -24 9 -24 105 0 54 3 101 7 104 16 16 65 5 93 -20z"/>
<path d="M9387 8814 c-9 -10 2 -24 19 -24 8 0 14 7 14 15 0 15 -21 21 -33 9z"/>
<path d="M10380 8806 c0 -8 4 -17 9 -20 11 -7 33 18 24 27 -12 12 -33 7 -33
-7z"/>
<path d="M6898 8800 c21 -9 22 -15 22 -104 0 -87 -2 -96 -22 -110 -21 -15 -17
-16 70 -16 85 0 95 2 117 25 31 30 32 59 2 89 -20 20 -22 26 -10 42 40 54 -2
84 -117 83 -61 0 -79 -3 -62 -9z m116 -6 c10 -4 16 -18 16 -39 0 -32 -13 -45
-46 -45 -10 0 -14 12 -14 38 0 50 9 60 44 46z m24 -116 c7 -7 12 -24 12 -38 0
-34 -17 -50 -52 -50 -27 0 -28 2 -28 50 0 48 1 50 28 50 15 0 33 -5 40 -12z"/>
<path d="M7158 8800 c21 -9 22 -14 22 -138 0 -71 -3 -132 -7 -135 -3 -4 -15 0
-25 9 -14 14 -20 14 -33 4 -12 -10 -13 -16 -4 -26 19 -23 56 -16 91 15 l33 29
4 121 c3 101 6 121 20 124 9 3 -15 5 -54 5 -51 1 -64 -2 -47 -8z"/>
<path d="M9273 8793 c-7 -3 -13 -15 -13 -28 0 -13 -6 -26 -12 -28 -10 -4 -10
-6 0 -6 8 -1 12 -20 12 -60 0 -33 3 -66 6 -75 6 -16 30 -21 58 -10 23 9 19 21
-6 20 -21 -1 -23 4 -26 61 -3 61 -2 62 25 66 l28 4 -27 2 c-22 1 -27 6 -30 29
-2 18 -8 27 -15 25z"/>
<path d="M10823 8793 c-7 -3 -13 -15 -13 -28 0 -13 -6 -26 -12 -28 -10 -4 -10
-6 0 -6 8 -1 12 -20 12 -60 0 -33 3 -66 6 -75 6 -16 30 -21 58 -10 23 9 19 21
-6 20 -21 -1 -23 4 -26 61 -3 61 -2 62 25 66 l28 4 -27 2 c-22 1 -27 6 -30 29
-2 18 -8 27 -15 25z"/>
<path d="M9110 8737 c-29 -14 -40 -47 -16 -47 9 0 16 8 16 20 0 25 45 28 54 4
10 -27 7 -32 -28 -44 -46 -15 -73 -46 -60 -68 9 -13 27 -17 77 -19 37 -1 69 3
72 8 4 5 -1 9 -9 9 -13 0 -16 12 -16 53 0 77 -36 111 -90 84z m44 -134 c-25
-18 -38 -12 -42 19 -3 21 3 28 25 35 25 9 28 8 31 -16 2 -15 -3 -30 -14 -38z"/>
<path d="M9393 8742 c-22 -3 -33 -22 -13 -22 6 0 10 -27 10 -60 0 -46 -4 -61
-17 -69 -14 -8 -7 -10 31 -11 42 0 47 2 33 13 -12 9 -17 31 -19 82 -3 66 -4
70 -25 67z"/>
<path d="M9703 8735 c-52 -22 -64 -91 -25 -137 19 -22 85 -24 102 -3 10 12 6
13 -26 8 -40 -7 -64 12 -64 49 0 15 8 18 50 18 46 0 50 2 50 24 0 41 -41 60
-87 41z m55 -27 c3 -15 -4 -18 -32 -18 -38 0 -44 8 -24 28 17 17 52 11 56 -10z"/>
<path d="M10513 8735 c-52 -22 -64 -91 -25 -137 19 -22 85 -24 102 -3 10 12 6
13 -26 8 -40 -7 -64 12 -64 49 0 15 8 18 50 18 46 0 50 2 50 24 0 41 -41 60
-87 41z m55 -27 c3 -15 -4 -18 -32 -18 -38 0 -44 8 -24 28 17 17 52 11 56 -10z"/>
<path d="M10683 8740 c-50 -20 -64 -100 -26 -142 23 -26 76 -23 99 5 10 12 12
16 4 10 -22 -20 -68 -16 -80 6 -14 27 -13 84 2 99 18 18 46 14 53 -8 7 -22 20
-26 31 -9 15 25 -46 54 -83 39z"/>
<path d="M9461 8730 c8 -5 28 -41 44 -80 16 -39 33 -69 38 -67 5 1 20 30 34
62 13 33 34 68 45 78 20 17 19 17 -18 17 -26 0 -34 -3 -25 -9 11 -7 11 -16 -4
-55 -10 -25 -21 -46 -25 -46 -4 0 -15 21 -25 46 -15 39 -15 48 -4 55 9 6 -2 9
-31 9 -32 -1 -41 -3 -29 -10z"/>
<path d="M10360 8730 c0 -5 5 -10 10 -10 13 0 13 -179 1 -199 -7 -12 -13 -12
-24 -3 -7 7 -17 9 -20 5 -15 -14 -6 -23 22 -23 49 0 61 29 61 142 0 98 0 98
-25 98 -14 0 -25 -4 -25 -10z"/>
<path d="M4420 8610 c-13 -8 -12 -10 3 -10 15 0 17 -12 17 -118 l0 -119 45 -1
c37 -2 51 3 70 22 58 58 9 162 -62 135 -22 -8 -23 -6 -23 46 0 46 -3 55 -17
55 -10 0 -25 -5 -33 -10z m114 -122 c32 -45 7 -122 -37 -116 -19 3 -22 10 -25
62 -2 41 1 62 10 67 21 14 36 10 52 -13z"/>
<path d="M4220 8588 c-72 -49 -76 -166 -7 -208 67 -41 149 -18 177 50 46 111
-74 223 -170 158z m95 -4 c25 -10 45 -59 45 -114 0 -41 -5 -56 -25 -75 -80
-81 -179 59 -115 163 20 32 53 42 95 26z"/>
<path d="M4640 8586 c0 -8 4 -17 9 -20 11 -7 33 18 24 27 -12 12 -33 7 -33 -7z"/>
<path d="M5073 8573 c-7 -3 -13 -15 -13 -28 0 -13 -6 -26 -12 -28 -10 -4 -10
-6 0 -6 8 -1 12 -20 12 -60 0 -33 3 -66 6 -75 6 -16 30 -21 58 -10 23 9 19 21
-6 20 -21 -1 -23 4 -26 61 -3 61 -2 62 25 66 l28 4 -27 2 c-22 1 -27 6 -30 29
-2 18 -8 27 -15 25z"/>
<path d="M4763 8515 c-52 -22 -64 -91 -25 -137 19 -22 85 -24 102 -3 10 12 6
13 -26 8 -40 -7 -64 12 -64 49 0 15 8 18 50 18 46 0 50 2 50 24 0 41 -41 60
-87 41z m55 -27 c3 -15 -4 -18 -32 -18 -38 0 -44 8 -24 28 17 17 52 11 56 -10z"/>
<path d="M4933 8520 c-50 -20 -64 -100 -26 -142 23 -26 76 -23 99 5 10 12 12
16 4 10 -22 -20 -68 -16 -80 6 -14 27 -13 84 2 99 18 18 46 14 53 -8 7 -22 20
-26 31 -9 15 25 -46 54 -83 39z"/>
<path d="M5204 8520 c-46 -18 -40 -59 13 -90 22 -13 33 -26 31 -38 -5 -26 -44
-27 -62 0 l-16 22 0 -27 c0 -25 3 -27 44 -27 77 0 92 60 23 93 -26 12 -37 23
-35 35 4 23 39 28 54 7 8 -11 14 -13 19 -5 14 23 -36 44 -71 30z"/>
<path d="M4620 8510 c0 -5 5 -10 10 -10 13 0 13 -179 1 -199 -7 -12 -13 -12
-24 -3 -7 7 -17 9 -20 5 -15 -14 -6 -23 22 -23 49 0 61 29 61 142 0 98 0 98
-25 98 -14 0 -25 -4 -25 -10z"/>
<path d="M10470 7850 c-13 -8 -12 -10 3 -10 15 0 17 -12 17 -118 l0 -119 45
-1 c37 -2 51 3 70 22 58 58 9 162 -62 135 -22 -8 -23 -6 -23 46 0 46 -3 55
-17 55 -10 0 -25 -5 -33 -10z m114 -122 c32 -45 7 -122 -37 -116 -19 3 -22 10
-25 62 -2 41 1 62 10 67 21 14 36 10 52 -13z"/>
<path d="M8014 7832 c-42 -20 -74 -68 -74 -111 0 -34 26 -87 51 -105 28 -19
125 -22 164 -4 19 9 25 19 25 44 0 18 3 39 6 48 5 13 -2 16 -39 16 -25 0 -49
-4 -52 -10 -3 -5 1 -10 9 -10 12 0 16 -10 16 -39 0 -47 -23 -60 -67 -39 -40
19 -54 54 -50 117 4 61 29 91 76 91 27 0 71 -32 71 -50 0 -6 5 -10 10 -10 13
0 13 57 0 65 -27 17 -107 15 -146 -3z"/>
<path d="M8894 7836 c-62 -27 -95 -98 -74 -161 17 -52 52 -75 117 -75 72 0 93
12 93 53 0 18 5 38 12 45 9 9 2 12 -32 12 -36 -1 -41 -3 -27 -11 22 -13 24
-74 1 -83 -34 -13 -72 -5 -97 20 -68 67 -33 194 52 194 37 0 71 -23 71 -48 0
-7 5 -12 10 -12 12 0 13 30 2 47 -9 14 -56 33 -80 33 -9 -1 -31 -7 -48 -14z"/>
<path d="M10260 7828 c-72 -49 -76 -166 -7 -208 67 -41 149 -18 177 50 46 111
-74 223 -170 158z m95 -4 c25 -10 45 -59 45 -114 0 -41 -5 -56 -25 -75 -80
-81 -179 59 -115 163 20 32 53 42 95 26z"/>
<path d="M9467 7834 c-9 -10 2 -24 19 -24 8 0 14 7 14 15 0 15 -21 21 -33 9z"/>
<path d="M9687 7834 c-9 -10 2 -24 19 -24 8 0 14 7 14 15 0 15 -21 21 -33 9z"/>
<path d="M10680 7826 c0 -8 4 -17 9 -20 11 -7 33 18 24 27 -12 12 -33 7 -33
-7z"/>
<path d="M9573 7813 c-7 -3 -13 -15 -13 -28 0 -13 -6 -26 -12 -28 -10 -4 -10
-6 0 -6 8 -1 12 -20 12 -60 0 -33 3 -66 6 -75 6 -16 30 -21 58 -10 23 9 19 21
-6 20 -21 -1 -23 4 -26 61 -3 61 -2 62 25 66 l28 4 -27 2 c-22 1 -27 6 -30 29
-2 18 -8 27 -15 25z"/>
<path d="M11113 7813 c-7 -3 -13 -15 -13 -28 0 -13 -6 -26 -12 -28 -10 -4 -10
-6 0 -6 8 -1 12 -20 12 -60 0 -33 3 -66 6 -75 6 -16 30 -21 58 -10 23 9 19 21
-6 20 -21 -1 -23 4 -26 61 -3 61 -2 62 25 66 l28 4 -27 2 c-22 1 -27 6 -30 29
-2 18 -8 27 -15 25z"/>
<path d="M9113 7755 c-52 -22 -64 -91 -25 -137 19 -22 85 -24 102 -3 10 12 6
13 -26 8 -40 -7 -64 12 -64 49 0 15 8 18 50 18 46 0 50 2 50 24 0 41 -41 60
-87 41z m55 -27 c3 -15 -4 -18 -32 -18 -38 0 -44 8 -24 28 17 17 52 11 56 -10z"/>
<path d="M9250 7760 c-17 -4 -21 -8 -12 -14 17 -10 16 -133 0 -139 -7 -3 7 -6
32 -6 34 -1 41 2 32 11 -19 19 -16 114 4 122 45 17 54 9 54 -52 0 -32 -5 -63
-12 -70 -9 -9 -2 -12 33 -12 35 1 40 3 27 11 -14 8 -18 24 -18 74 0 54 -3 66
-20 75 -16 9 -28 7 -52 -4 -37 -19 -36 -19 -40 -3 -2 9 -12 11 -28 7z"/>
<path d="M9473 7762 c-22 -3 -33 -22 -13 -22 6 0 10 -27 10 -60 0 -46 -4 -61
-17 -69 -14 -8 -7 -10 31 -11 42 0 47 2 33 13 -12 9 -17 31 -19 82 -3 66 -4
70 -25 67z"/>
<path d="M9693 7762 c-22 -3 -33 -22 -13 -22 6 0 10 -27 10 -60 0 -46 -4 -61
-17 -69 -14 -8 -7 -10 31 -11 42 0 47 2 33 13 -12 9 -17 31 -19 82 -3 66 -4
70 -25 67z"/>
<path d="M9993 7755 c-52 -22 -64 -91 -25 -137 19 -22 85 -24 102 -3 10 12 6
13 -26 8 -40 -7 -64 12 -64 49 0 15 8 18 50 18 46 0 50 2 50 24 0 41 -41 60
-87 41z m55 -27 c3 -15 -4 -18 -32 -18 -38 0 -44 8 -24 28 17 17 52 11 56 -10z"/>
<path d="M10803 7755 c-52 -22 -64 -91 -25 -137 19 -22 85 -24 102 -3 10 12 6
13 -26 8 -40 -7 -64 12 -64 49 0 15 8 18 50 18 46 0 50 2 50 24 0 41 -41 60
-87 41z m55 -27 c3 -15 -4 -18 -32 -18 -38 0 -44 8 -24 28 17 17 52 11 56 -10z"/>
<path d="M10973 7760 c-50 -20 -64 -100 -26 -142 23 -26 76 -23 99 5 10 12 12
16 4 10 -22 -20 -68 -16 -80 6 -14 27 -13 84 2 99 18 18 46 14 53 -8 7 -22 20
-26 31 -9 15 25 -46 54 -83 39z"/>
<path d="M9761 7750 c8 -5 28 -41 44 -80 16 -39 33 -69 38 -67 5 1 20 30 34
62 13 33 34 68 45 78 20 17 19 17 -18 17 -26 0 -34 -3 -25 -9 11 -7 11 -16 -4
-55 -10 -25 -21 -46 -25 -46 -4 0 -15 21 -25 46 -15 39 -15 48 -4 55 9 6 -2 9
-31 9 -32 -1 -41 -3 -29 -10z"/>
<path d="M10660 7750 c0 -5 5 -10 10 -10 13 0 13 -179 1 -199 -7 -12 -13 -12
-24 -3 -7 7 -17 9 -20 5 -15 -14 -6 -23 22 -23 49 0 61 29 61 142 0 98 0 98
-25 98 -14 0 -25 -4 -25 -10z"/>
<path d="M581 7215 c-24 -59 -53 -112 -64 -120 -20 -14 -18 -15 28 -15 44 0
47 1 30 14 -16 12 -17 17 -6 45 12 28 18 31 57 31 39 0 46 -3 54 -26 14 -37
12 -52 -7 -57 -10 -3 6 -5 36 -6 52 -1 53 -1 33 17 -11 9 -34 55 -50 102 -42
118 -43 120 -56 120 -7 0 -31 -47 -55 -105z m65 30 c20 -49 18 -55 -22 -55
-30 0 -35 3 -29 18 4 9 12 29 17 45 5 15 12 27 14 27 3 0 12 -16 20 -35z"/>
<path d="M1993 7293 c-7 -3 -13 -15 -13 -28 0 -13 -6 -26 -12 -28 -10 -4 -10
-6 0 -6 8 -1 12 -20 12 -60 0 -33 3 -66 6 -75 6 -16 30 -21 58 -10 23 9 19 21
-6 20 -21 -1 -23 4 -26 61 -3 61 -2 62 25 66 l28 4 -27 2 c-22 1 -27 6 -30 29
-2 18 -8 27 -15 25z"/>
<path d="M852 7234 c-13 -9 -22 -11 -22 -5 0 6 -11 11 -25 11 -25 0 -33 -14
-15 -25 6 -3 10 -30 10 -60 0 -41 -4 -56 -17 -64 -14 -8 -7 -10 32 -10 39 0
46 2 33 10 -13 7 -18 23 -18 59 0 50 11 67 43 62 10 -2 17 3 17 12 0 23 -15
27 -38 10z"/>
<path d="M960 7238 c-26 -9 -43 -44 -34 -71 11 -34 8 -97 -4 -109 -28 -28 2
-68 50 -68 41 0 96 28 104 53 10 31 -28 57 -82 57 -36 0 -44 3 -44 19 0 14 6
17 25 13 14 -2 36 3 51 13 23 15 25 22 20 55 -5 35 -4 38 14 33 11 -3 20 -1
20 5 0 11 -90 11 -120 0z m54 -24 c16 -41 -5 -80 -37 -68 -18 6 -30 45 -21 68
8 21 50 21 58 0z m35 -158 c20 -24 -14 -48 -63 -44 -36 3 -41 6 -44 31 -3 26
-2 27 46 27 30 0 54 -5 61 -14z"/>
<path d="M1323 7242 c-22 -3 -33 -22 -13 -22 15 0 13 -127 -2 -133 -7 -3 7 -5
32 -5 25 0 39 2 33 5 -9 3 -13 26 -13 64 0 55 2 59 26 65 17 4 29 2 35 -7 15
-23 10 -96 -7 -113 -14 -15 -11 -16 28 -16 26 0 38 3 30 9 -9 5 -12 26 -10 67
3 58 3 59 33 59 29 0 30 -1 33 -55 3 -43 -1 -57 -14 -67 -16 -11 -12 -13 26
-13 34 0 41 3 32 12 -7 7 -12 38 -12 69 0 39 -5 63 -16 73 -19 20 -22 20 -57
1 -25 -13 -31 -13 -50 0 -20 13 -26 13 -51 0 -34 -18 -34 -18 -38 -2 -2 6 -13
11 -25 9z"/>
<path d="M1643 7235 c-52 -22 -64 -91 -25 -137 19 -22 85 -24 102 -3 10 12 6
13 -26 8 -40 -7 -64 12 -64 49 0 15 8 18 50 18 46 0 50 2 50 24 0 41 -41 60
-87 41z m55 -27 c3 -15 -4 -18 -32 -18 -38 0 -44 8 -24 28 17 17 52 11 56 -10z"/>
<path d="M1780 7240 c-17 -4 -21 -8 -12 -14 17 -10 16 -133 0 -139 -7 -3 7 -6
32 -6 34 -1 41 2 32 11 -19 19 -16 114 4 122 45 17 54 9 54 -52 0 -32 -5 -63
-12 -70 -9 -9 -2 -12 33 -12 35 1 40 3 27 11 -14 8 -18 24 -18 74 0 54 -3 66
-20 75 -16 9 -28 7 -52 -4 -37 -19 -36 -19 -40 -3 -2 9 -12 11 -28 7z"/>
<path d="M2124 7240 c-46 -18 -40 -59 13 -90 22 -13 33 -26 31 -38 -5 -26 -44
-27 -62 0 l-16 22 0 -27 c0 -25 3 -27 44 -27 77 0 92 60 23 93 -26 12 -37 23
-35 35 4 23 39 28 54 7 8 -11 14 -13 19 -5 14 23 -36 44 -71 30z"/>
<path d="M1108 7233 c7 -3 12 -25 12 -59 0 -31 5 -64 10 -75 11 -20 54 -26 80
-9 9 6 17 5 21 -2 4 -6 16 -7 29 -3 16 5 19 10 11 18 -6 6 -11 39 -11 74 l0
63 -31 0 c-28 0 -29 -1 -15 -16 19 -18 22 -94 4 -112 -7 -7 -22 -12 -35 -12
-27 0 -37 29 -31 95 3 44 3 45 -27 44 -16 0 -24 -3 -17 -6z"/>
<path d="M2870 6860 c-13 -8 -12 -10 3 -10 15 0 17 -12 17 -118 l0 -119 45 -1
c37 -2 51 3 70 22 58 58 9 162 -62 135 -22 -8 -23 -6 -23 46 0 46 -3 55 -17
55 -10 0 -25 -5 -33 -10z m114 -122 c32 -45 7 -122 -37 -116 -19 3 -22 10 -25
62 -2 41 1 62 10 67 21 14 36 10 52 -13z"/>
<path d="M10210 6860 c-13 -8 -12 -10 3 -10 13 0 17 -9 17 -39 0 -37 -2 -40
-28 -39 -41 1 -69 -18 -81 -55 -12 -36 -1 -84 22 -99 18 -12 65 -9 73 3 5 8 9
8 14 -1 4 -7 17 -9 35 -4 23 6 25 8 11 16 -13 7 -16 28 -16 123 0 103 -2 115
-17 115 -10 0 -25 -5 -33 -10z m18 -162 c3 -54 2 -58 -23 -64 -37 -9 -55 11
-55 60 0 49 15 68 50 64 23 -3 25 -8 28 -60z"/>
<path d="M2660 6838 c-72 -49 -76 -166 -7 -208 67 -41 149 -18 177 50 46 111
-74 223 -170 158z m95 -4 c25 -10 45 -59 45 -114 0 -41 -5 -56 -25 -75 -80
-81 -179 59 -115 163 20 32 53 42 95 26z"/>
<path d="M7976 6852 c-18 -8 -18 -9 -3 -15 14 -5 17 -22 17 -106 0 -85 -3
-102 -17 -110 -14 -8 -2 -10 47 -10 49 0 61 2 48 10 -13 7 -18 23 -18 52 l0
42 41 1 c48 0 79 29 79 74 0 44 -32 64 -108 67 -37 1 -76 -1 -86 -5z m122 -24
c18 -18 15 -85 -4 -92 -38 -14 -44 -7 -44 49 0 46 3 55 18 55 10 0 23 -5 30
-12z"/>
<path d="M8894 6846 c-62 -27 -95 -98 -74 -161 17 -52 52 -75 117 -75 72 0 93
12 93 53 0 18 5 38 12 45 9 9 2 12 -32 12 -36 -1 -41 -3 -27 -11 22 -13 24
-74 1 -83 -34 -13 -72 -5 -97 20 -68 67 -33 194 52 194 37 0 71 -23 71 -48 0
-7 5 -12 10 -12 12 0 13 30 2 47 -9 14 -56 33 -80 33 -9 -1 -31 -7 -48 -14z"/>
<path d="M10435 6851 c-38 -5 -45 -8 -27 -13 21 -6 22 -11 22 -107 0 -96 -1
-102 -22 -111 -18 -7 -9 -9 37 -9 50 0 56 2 38 11 -18 9 -23 19 -23 53 0 40 1
41 36 42 44 1 84 36 84 73 0 51 -50 72 -145 61z m89 -17 c19 -7 22 -74 4 -92
-7 -7 -25 -12 -40 -12 -27 0 -28 2 -28 48 0 27 3 52 7 55 8 9 36 9 57 1z"/>
<path d="M3080 6836 c0 -8 4 -17 9 -20 11 -7 33 18 24 27 -12 12 -33 7 -33 -7z"/>
<path d="M11467 6844 c-9 -10 2 -24 19 -24 8 0 14 7 14 15 0 15 -21 21 -33 9z"/>
<path d="M11687 6844 c-9 -10 2 -24 19 -24 8 0 14 7 14 15 0 15 -21 21 -33 9z"/>
<path d="M3523 6823 c-7 -3 -13 -15 -13 -28 0 -13 -6 -26 -12 -28 -10 -4 -10
-6 0 -6 8 -1 12 -20 12 -60 0 -33 3 -66 6 -75 6 -16 30 -21 58 -10 23 9 19 21
-6 20 -21 -1 -23 4 -26 61 -3 61 -2 62 25 66 l28 4 -27 2 c-22 1 -27 6 -30 29
-2 18 -8 27 -15 25z"/>
<path d="M11573 6823 c-7 -3 -13 -15 -13 -28 0 -13 -6 -26 -12 -28 -10 -4 -10
-6 0 -6 8 -1 12 -20 12 -60 0 -33 3 -66 6 -75 6 -16 30 -21 58 -10 23 9 19 21
-6 20 -21 -1 -23 4 -26 61 -3 61 -2 62 25 66 l28 4 -27 2 c-22 1 -27 6 -30 29
-2 18 -8 27 -15 25z"/>
<path d="M3203 6765 c-52 -22 -64 -91 -25 -137 19 -22 85 -24 102 -3 10 12 6
13 -26 8 -40 -7 -64 12 -64 49 0 15 8 18 50 18 46 0 50 2 50 24 0 41 -41 60
-87 41z m55 -27 c3 -15 -4 -18 -32 -18 -38 0 -44 8 -24 28 17 17 52 11 56 -10z"/>
<path d="M3373 6770 c-50 -20 -64 -100 -26 -142 23 -26 76 -23 99 5 10 12 12
16 4 10 -22 -20 -68 -16 -80 6 -14 27 -13 84 2 99 18 18 46 14 53 -8 7 -22 20
-26 31 -9 15 25 -46 54 -83 39z"/>
<path d="M3644 6770 c-46 -18 -40 -59 13 -90 22 -13 33 -26 31 -38 -5 -26 -44
-27 -62 0 l-16 22 0 -27 c0 -25 3 -27 44 -27 77 0 92 60 23 93 -26 12 -37 23
-35 35 4 23 39 28 54 7 8 -11 14 -13 19 -5 14 23 -36 44 -71 30z"/>
<path d="M9112 6770 c-33 -14 -54 -70 -41 -109 13 -36 35 -51 78 -51 43 0 71
31 71 79 0 64 -52 104 -108 81z m62 -32 c19 -27 21 -89 4 -106 -33 -33 -78 6
-78 68 0 59 44 81 74 38z"/>
<path d="M9483 6765 c-52 -22 -64 -91 -25 -137 19 -22 85 -24 102 -3 10 12 6
13 -26 8 -40 -7 -64 12 -64 49 0 15 8 18 50 18 46 0 50 2 50 24 0 41 -41 60
-87 41z m55 -27 c3 -15 -4 -18 -32 -18 -38 0 -44 8 -24 28 17 17 52 11 56 -10z"/>
<path d="M9682 6764 c-13 -9 -22 -11 -22 -5 0 6 -11 11 -25 11 -25 0 -33 -14
-15 -25 6 -3 10 -30 10 -60 0 -41 -4 -56 -17 -64 -14 -8 -7 -10 32 -10 39 0
46 2 33 10 -13 7 -18 23 -18 59 0 50 11 67 43 62 10 -2 17 3 17 12 0 23 -15
27 -38 10z"/>
<path d="M9760 6770 c-17 -4 -21 -8 -12 -14 17 -10 16 -133 0 -139 -7 -3 7 -6
32 -6 34 -1 41 2 32 11 -19 19 -16 114 4 122 45 17 54 9 54 -52 0 -32 -5 -63
-12 -70 -9 -9 -2 -12 33 -12 35 1 40 3 27 11 -14 8 -18 24 -18 74 0 54 -3 66
-20 75 -16 9 -28 7 -52 -4 -37 -19 -36 -19 -40 -3 -2 9 -12 11 -28 7z"/>
<path d="M9993 6765 c-52 -22 -64 -91 -25 -137 19 -22 85 -24 102 -3 10 12 6
13 -26 8 -40 -7 -64 12 -64 49 0 15 8 18 50 18 46 0 50 2 50 24 0 41 -41 60
-87 41z m55 -27 c3 -15 -4 -18 -32 -18 -38 0 -44 8 -24 28 17 17 52 11 56 -10z"/>
<path d="M10682 6764 c-13 -9 -22 -11 -22 -5 0 6 -11 11 -25 11 -25 0 -33 -14
-15 -25 6 -3 10 -30 10 -60 0 -41 -4 -56 -17 -64 -14 -8 -7 -10 32 -10 39 0
46 2 33 10 -13 7 -18 23 -18 59 0 50 11 67 43 62 10 -2 17 3 17 12 0 23 -15
27 -38 10z"/>
<path d="M10793 6765 c-52 -22 -64 -91 -25 -137 19 -22 85 -24 102 -3 10 12 6
13 -26 8 -40 -7 -64 12 -64 49 0 15 8 18 50 18 46 0 50 2 50 24 0 41 -41 60
-87 41z m55 -27 c3 -15 -4 -18 -32 -18 -38 0 -44 8 -24 28 17 17 52 11 56 -10z"/>
<path d="M10986 6764 c-14 -7 -26 -9 -26 -3 0 5 -11 9 -25 9 -14 0 -25 -4 -25
-10 0 -5 5 -10 10 -10 6 0 10 -40 10 -101 0 -85 -3 -104 -17 -115 -16 -12 -12
-13 30 -14 26 0 47 5 47 10 0 6 -7 10 -15 10 -10 0 -15 11 -15 35 0 34 1 35
39 35 31 0 44 6 60 26 54 68 -2 165 -73 128z m43 -17 c39 -47 14 -131 -37
-125 -25 3 -27 7 -30 52 -4 67 35 110 67 73z"/>
<path d="M11152 6770 c-33 -14 -54 -70 -41 -109 13 -36 35 -51 78 -51 43 0 71
31 71 79 0 64 -52 104 -108 81z m62 -32 c19 -27 21 -89 4 -106 -33 -33 -78 6
-78 68 0 59 44 81 74 38z"/>
<path d="M11334 6770 c-46 -18 -40 -59 13 -90 22 -13 33 -26 31 -38 -5 -26
-44 -27 -62 0 l-16 22 0 -27 c0 -25 3 -27 44 -27 77 0 92 60 23 93 -26 12 -37
23 -35 35 4 23 39 28 54 7 8 -11 14 -13 19 -5 14 23 -36 44 -71 30z"/>
<path d="M11473 6772 c-22 -3 -33 -22 -13 -22 6 0 10 -27 10 -60 0 -46 -4 -61
-17 -69 -14 -8 -7 -10 31 -11 42 0 47 2 33 13 -12 9 -17 31 -19 82 -3 66 -4
70 -25 67z"/>
<path d="M11693 6772 c-22 -3 -33 -22 -13 -22 6 0 10 -27 10 -60 0 -46 -4 -61
-17 -69 -14 -8 -7 -10 31 -11 42 0 47 2 33 13 -12 9 -17 31 -19 82 -3 66 -4
70 -25 67z"/>
<path d="M11812 6770 c-33 -14 -54 -70 -41 -109 13 -36 35 -51 78 -51 43 0 71
31 71 79 0 64 -52 104 -108 81z m62 -32 c19 -27 21 -89 4 -106 -33 -33 -78 6
-78 68 0 59 44 81 74 38z"/>
<path d="M11970 6770 c-17 -4 -21 -8 -12 -14 17 -10 16 -133 0 -139 -7 -3 7
-6 32 -6 34 -1 41 2 32 11 -19 19 -16 114 4 122 45 17 54 9 54 -52 0 -32 -5
-63 -12 -70 -9 -9 -2 -12 33 -12 35 1 40 3 27 11 -14 8 -18 24 -18 74 0 54 -3
66 -20 75 -16 9 -28 7 -52 -4 -37 -19 -36 -19 -40 -3 -2 9 -12 11 -28 7z"/>
<path d="M3060 6760 c0 -5 5 -10 10 -10 13 0 13 -179 1 -199 -7 -12 -13 -12
-24 -3 -7 7 -17 9 -20 5 -15 -14 -6 -23 22 -23 49 0 61 29 61 142 0 98 0 98
-25 98 -14 0 -25 -4 -25 -10z"/>
<path d="M9251 6760 c8 -5 28 -41 44 -80 16 -39 33 -69 38 -67 5 1 20 30 34
62 13 33 34 68 45 78 20 17 19 17 -18 17 -26 0 -34 -3 -25 -9 11 -7 11 -16 -4
-55 -10 -25 -21 -46 -25 -46 -4 0 -15 21 -25 46 -15 39 -15 48 -4 55 9 6 -2 9
-31 9 -32 -1 -41 -3 -29 -10z"/>
<path d="M6090 6570 c-10 -6 -11 -10 -2 -10 9 0 12 -30 12 -114 0 -82 -4 -116
-12 -119 -7 -3 7 -6 32 -6 34 -1 41 2 32 11 -8 8 -12 52 -12 130 0 106 -2 118
-17 118 -10 0 -25 -5 -33 -10z"/>
<path d="M4195 6561 c-38 -5 -45 -8 -27 -13 21 -6 22 -11 22 -107 0 -96 -1
-102 -22 -111 -18 -7 -9 -9 37 -9 50 0 56 2 38 11 -18 9 -23 19 -23 53 0 40 1
41 36 42 44 1 84 36 84 73 0 51 -50 72 -145 61z m89 -17 c19 -7 22 -74 4 -92
-7 -7 -25 -12 -40 -12 -27 0 -28 2 -28 48 0 27 3 52 7 55 8 9 36 9 57 1z"/>
<path d="M5227 6554 c-9 -10 2 -24 19 -24 8 0 14 7 14 15 0 15 -21 21 -33 9z"/>
<path d="M5447 6554 c-9 -10 2 -24 19 -24 8 0 14 7 14 15 0 15 -21 21 -33 9z"/>
<path d="M5333 6533 c-7 -3 -13 -15 -13 -28 0 -13 -6 -26 -12 -28 -10 -4 -10
-6 0 -6 8 -1 12 -20 12 -60 0 -33 3 -66 6 -75 6 -16 30 -21 58 -10 23 9 19 21
-6 20 -21 -1 -23 4 -26 61 -3 61 -2 62 25 66 l28 4 -27 2 c-22 1 -27 6 -30 29
-2 18 -8 27 -15 25z"/>
<path d="M4442 6474 c-13 -9 -22 -11 -22 -5 0 6 -11 11 -25 11 -25 0 -33 -14
-15 -25 6 -3 10 -30 10 -60 0 -41 -4 -56 -17 -64 -14 -8 -7 -10 32 -10 39 0
46 2 33 10 -13 7 -18 23 -18 59 0 50 11 67 43 62 10 -2 17 3 17 12 0 23 -15
27 -38 10z"/>
<path d="M4553 6475 c-52 -22 -64 -91 -25 -137 19 -22 85 -24 102 -3 10 12 6
13 -26 8 -40 -7 -64 12 -64 49 0 15 8 18 50 18 46 0 50 2 50 24 0 41 -41 60
-87 41z m55 -27 c3 -15 -4 -18 -32 -18 -38 0 -44 8 -24 28 17 17 52 11 56 -10z"/>
<path d="M4746 6474 c-14 -7 -26 -9 -26 -3 0 5 -11 9 -25 9 -14 0 -25 -4 -25
-10 0 -5 5 -10 10 -10 6 0 10 -40 10 -101 0 -85 -3 -104 -17 -115 -16 -12 -12
-13 30 -14 26 0 47 5 47 10 0 6 -7 10 -15 10 -10 0 -15 11 -15 35 0 34 1 35
39 35 31 0 44 6 60 26 54 68 -2 165 -73 128z m43 -17 c39 -47 14 -131 -37
-125 -25 3 -27 7 -30 52 -4 67 35 110 67 73z"/>
<path d="M4912 6480 c-33 -14 -54 -70 -41 -109 13 -36 35 -51 78 -51 43 0 71
31 71 79 0 64 -52 104 -108 81z m62 -32 c19 -27 21 -89 4 -106 -33 -33 -78 6
-78 68 0 59 44 81 74 38z"/>
<path d="M5094 6480 c-46 -18 -40 -59 13 -90 22 -13 33 -26 31 -38 -5 -26 -44
-27 -62 0 l-16 22 0 -27 c0 -25 3 -27 44 -27 77 0 92 60 23 93 -26 12 -37 23
-35 35 4 23 39 28 54 7 8 -11 14 -13 19 -5 14 23 -36 44 -71 30z"/>
<path d="M5233 6482 c-22 -3 -33 -22 -13 -22 6 0 10 -27 10 -60 0 -46 -4 -61
-17 -69 -14 -8 -7 -10 31 -11 42 0 47 2 33 13 -12 9 -17 31 -19 82 -3 66 -4
70 -25 67z"/>
<path d="M5453 6482 c-22 -3 -33 -22 -13 -22 6 0 10 -27 10 -60 0 -46 -4 -61
-17 -69 -14 -8 -7 -10 31 -11 42 0 47 2 33 13 -12 9 -17 31 -19 82 -3 66 -4
70 -25 67z"/>
<path d="M5572 6480 c-33 -14 -54 -70 -41 -109 13 -36 35 -51 78 -51 43 0 71
31 71 79 0 64 -52 104 -108 81z m62 -32 c19 -27 21 -89 4 -106 -33 -33 -78 6
-78 68 0 59 44 81 74 38z"/>
<path d="M5730 6480 c-17 -4 -21 -8 -12 -14 17 -10 16 -133 0 -139 -7 -3 7 -6
32 -6 34 -1 41 2 32 11 -19 19 -16 114 4 122 45 17 54 9 54 -52 0 -32 -5 -63
-12 -70 -9 -9 -2 -12 33 -12 35 1 40 3 27 11 -14 8 -18 24 -18 74 0 54 -3 66
-20 75 -16 9 -28 7 -52 -4 -37 -19 -36 -19 -40 -3 -2 9 -12 11 -28 7z"/>
<path d="M5950 6477 c-29 -14 -40 -47 -16 -47 9 0 16 8 16 20 0 25 45 28 54 4
10 -27 7 -32 -28 -44 -46 -15 -73 -46 -60 -68 9 -13 27 -17 77 -19 37 -1 69 3
72 8 4 5 -1 9 -9 9 -13 0 -16 12 -16 53 0 77 -36 111 -90 84z m44 -134 c-25
-18 -38 -12 -42 19 -3 21 3 28 25 35 25 9 28 8 31 -16 2 -15 -3 -30 -14 -38z"/>
<path d="M6656 6352 c-18 -8 -18 -9 -3 -15 14 -5 17 -22 17 -106 0 -85 -3
-102 -17 -110 -14 -8 -2 -10 47 -10 49 0 61 2 48 10 -13 7 -18 23 -18 52 l0
42 41 1 c48 0 79 29 79 74 0 44 -32 64 -108 67 -37 1 -76 -1 -86 -5z m122 -24
c18 -18 15 -85 -4 -92 -38 -14 -44 -7 -44 49 0 46 3 55 18 55 10 0 23 -5 30
-12z"/>
<path d="M6878 6340 c21 -9 22 -15 22 -104 0 -87 -2 -96 -22 -110 -21 -15 -17
-16 70 -16 85 0 95 2 117 25 31 30 32 59 2 89 -20 20 -22 26 -10 42 40 54 -2
84 -117 83 -61 0 -79 -3 -62 -9z m116 -6 c10 -4 16 -18 16 -39 0 -32 -13 -45
-46 -45 -10 0 -14 12 -14 38 0 50 9 60 44 46z m24 -116 c7 -7 12 -24 12 -38 0
-34 -17 -50 -52 -50 -27 0 -28 2 -28 50 0 48 1 50 28 50 15 0 33 -5 40 -12z"/>
<path d="M7138 6340 c21 -9 22 -14 22 -138 0 -71 -3 -132 -7 -135 -3 -4 -15 0
-25 9 -14 14 -20 14 -33 4 -12 -10 -13 -16 -4 -26 19 -23 56 -16 91 15 l33 29
4 121 c3 101 6 121 20 124 9 3 -15 5 -54 5 -51 1 -64 -2 -47 -8z"/>
<path d="M4420 6150 c-13 -8 -12 -10 3 -10 15 0 17 -12 17 -118 l0 -119 45 -1
c37 -2 51 3 70 22 58 58 9 162 -62 135 -22 -8 -23 -6 -23 46 0 46 -3 55 -17
55 -10 0 -25 -5 -33 -10z m114 -122 c32 -45 7 -122 -37 -116 -19 3 -22 10 -25
62 -2 41 1 62 10 67 21 14 36 10 52 -13z"/>
<path d="M4220 6128 c-72 -49 -76 -166 -7 -208 67 -41 149 -18 177 50 46 111
-74 223 -170 158z m95 -4 c25 -10 45 -59 45 -114 0 -41 -5 -56 -25 -75 -80
-81 -179 59 -115 163 20 32 53 42 95 26z"/>
<path d="M4640 6126 c0 -8 4 -17 9 -20 11 -7 33 18 24 27 -12 12 -33 7 -33 -7z"/>
<path d="M5073 6113 c-7 -3 -13 -15 -13 -28 0 -13 -6 -26 -12 -28 -10 -4 -10
-6 0 -6 8 -1 12 -20 12 -60 0 -33 3 -66 6 -75 6 -16 30 -21 58 -10 23 9 19 21
-6 20 -21 -1 -23 4 -26 61 -3 61 -2 62 25 66 l28 4 -27 2 c-22 1 -27 6 -30 29
-2 18 -8 27 -15 25z"/>
<path d="M4763 6055 c-52 -22 -64 -91 -25 -137 19 -22 85 -24 102 -3 10 12 6
13 -26 8 -40 -7 -64 12 -64 49 0 15 8 18 50 18 46 0 50 2 50 24 0 41 -41 60
-87 41z m55 -27 c3 -15 -4 -18 -32 -18 -38 0 -44 8 -24 28 17 17 52 11 56 -10z"/>
<path d="M4933 6060 c-50 -20 -64 -100 -26 -142 23 -26 76 -23 99 5 10 12 12
16 4 10 -22 -20 -68 -16 -80 6 -14 27 -13 84 2 99 18 18 46 14 53 -8 7 -22 20
-26 31 -9 15 25 -46 54 -83 39z"/>
<path d="M5204 6060 c-46 -18 -40 -59 13 -90 22 -13 33 -26 31 -38 -5 -26 -44
-27 -62 0 l-16 22 0 -27 c0 -25 3 -27 44 -27 77 0 92 60 23 93 -26 12 -37 23
-35 35 4 23 39 28 54 7 8 -11 14 -13 19 -5 14 23 -36 44 -71 30z"/>
<path d="M4620 6050 c0 -5 5 -10 10 -10 13 0 13 -179 1 -199 -7 -12 -13 -12
-24 -3 -7 7 -17 9 -20 5 -15 -14 -6 -23 22 -23 49 0 61 29 61 142 0 98 0 98
-25 98 -14 0 -25 -4 -25 -10z"/>
<path d="M9070 5870 c-13 -8 -12 -10 3 -10 15 0 17 -12 17 -118 l0 -119 45 -1
c37 -2 51 3 70 22 58 58 9 162 -62 135 -22 -8 -23 -6 -23 46 0 46 -3 55 -17
55 -10 0 -25 -5 -33 -10z m114 -122 c32 -45 7 -122 -37 -116 -19 3 -22 10 -25
62 -2 41 1 62 10 67 21 14 36 10 52 -13z"/>
<path d="M9270 5870 c-10 -6 -11 -10 -2 -10 9 0 12 -30 12 -114 0 -82 -4 -116
-12 -119 -7 -3 7 -6 32 -6 34 -1 41 2 32 11 -8 8 -12 52 -12 130 0 106 -2 118
-17 118 -10 0 -25 -5 -33 -10z"/>
<path d="M8870 5848 c-72 -49 -76 -166 -7 -208 67 -41 149 -18 177 50 46 111
-74 223 -170 158z m95 -4 c25 -10 45 -59 45 -114 0 -41 -5 -56 -25 -75 -80
-81 -179 59 -115 163 20 32 53 42 95 26z"/>
<path d="M7983 5849 c14 -8 17 -25 17 -109 0 -84 -3 -101 -17 -109 -13 -8 8
-10 78 -11 96 0 97 0 103 26 9 35 -3 44 -21 17 -11 -16 -25 -23 -49 -23 l-34
0 0 100 c0 84 3 101 18 109 13 8 1 10 -48 10 -49 0 -61 -2 -47 -10z"/>
<path d="M9377 5854 c-9 -10 2 -24 19 -24 8 0 14 7 14 15 0 15 -21 21 -33 9z"/>
<path d="M10563 5849 c14 -8 17 -25 17 -110 0 -94 -1 -100 -22 -109 -16 -6 3
-9 68 -9 95 -1 104 3 104 47 0 12 -5 11 -24 -7 -17 -16 -33 -22 -57 -19 l-34
3 -3 98 c-3 93 -2 98 20 107 18 7 12 9 -32 9 -42 0 -51 -2 -37 -10z"/>
<path d="M11417 5854 c-9 -10 2 -24 19 -24 8 0 14 7 14 15 0 15 -21 21 -33 9z"/>
<path d="M9853 5833 c-7 -3 -13 -15 -13 -28 0 -13 -6 -26 -12 -28 -10 -4 -10
-6 0 -6 8 -1 12 -20 12 -60 0 -33 3 -66 6 -75 6 -16 30 -21 58 -10 23 9 19 21
-6 20 -21 -1 -23 4 -26 61 -3 61 -2 62 25 66 l28 4 -27 2 c-22 1 -27 6 -30 29
-2 18 -8 27 -15 25z"/>
<path d="M11313 5833 c-7 -3 -13 -15 -13 -28 0 -13 -6 -26 -12 -28 -10 -4 -10
-6 0 -6 8 -1 12 -20 12 -60 0 -33 3 -66 6 -75 6 -16 30 -21 58 -10 23 9 19 21
-6 20 -21 -1 -23 4 -26 61 -3 61 -2 62 25 66 l28 4 -27 2 c-22 1 -27 6 -30 29
-2 18 -8 27 -15 25z"/>
<path d="M9383 5782 c-22 -3 -33 -22 -13 -22 6 0 10 -27 10 -60 0 -46 -4 -61
-17 -69 -14 -8 -7 -10 31 -11 42 0 47 2 33 13 -12 9 -17 31 -19 82 -3 66 -4
70 -25 67z"/>
<path d="M9510 5778 c-26 -9 -43 -44 -34 -71 11 -34 8 -97 -4 -109 -28 -28 2
-68 50 -68 41 0 96 28 104 53 10 31 -28 57 -82 57 -36 0 -44 3 -44 19 0 14 6
17 25 13 14 -2 36 3 51 13 23 15 25 22 20 55 -5 35 -4 38 14 33 11 -3 20 -1
20 5 0 11 -90 11 -120 0z m54 -24 c16 -41 -5 -80 -37 -68 -18 6 -30 45 -21 68
8 21 50 21 58 0z m35 -158 c20 -24 -14 -48 -63 -44 -36 3 -41 6 -44 31 -3 26
-2 27 46 27 30 0 54 -5 61 -14z"/>
<path d="M9680 5777 c-29 -14 -40 -47 -16 -47 9 0 16 8 16 20 0 25 45 28 54 4
10 -27 7 -32 -28 -44 -46 -15 -73 -46 -60 -68 9 -13 27 -17 77 -19 37 -1 69 3
72 8 4 5 -1 9 -9 9 -13 0 -16 12 -16 53 0 77 -36 111 -90 84z m44 -134 c-25
-18 -38 -12 -42 19 -3 21 3 28 25 35 25 9 28 8 31 -16 2 -15 -3 -30 -14 -38z"/>
<path d="M9982 5780 c-33 -14 -54 -70 -41 -109 13 -36 35 -51 78 -51 43 0 71
31 71 79 0 64 -52 104 -108 81z m62 -32 c19 -27 21 -89 4 -106 -33 -33 -78 6
-78 68 0 59 44 81 74 38z"/>
<path d="M10202 5774 c-13 -9 -22 -11 -22 -5 0 6 -11 11 -25 11 -25 0 -33 -14
-15 -25 6 -3 10 -30 10 -60 0 -41 -4 -56 -17 -64 -14 -8 -7 -10 32 -10 39 0
46 2 33 10 -13 7 -18 23 -18 59 0 50 11 67 43 62 10 -2 17 3 17 12 0 23 -15
27 -38 10z"/>
<path d="M10802 5780 c-33 -14 -54 -70 -41 -109 13 -36 35 -51 78 -51 43 0 71
31 71 79 0 64 -52 104 -108 81z m62 -32 c19 -27 21 -89 4 -106 -33 -33 -78 6
-78 68 0 59 44 81 74 38z"/>
<path d="M10993 5780 c-50 -20 -64 -100 -26 -142 23 -26 76 -23 99 5 10 12 12
16 4 10 -22 -20 -68 -16 -80 6 -14 27 -13 84 2 99 18 18 46 14 53 -8 7 -22 20
-26 31 -9 15 25 -46 54 -83 39z"/>
<path d="M11140 5777 c-29 -14 -40 -47 -16 -47 9 0 16 8 16 20 0 25 45 28 54
4 10 -27 7 -32 -28 -44 -46 -15 -73 -46 -60 -68 9 -13 27 -17 77 -19 37 -1 69
3 72 8 4 5 -1 9 -9 9 -13 0 -16 12 -16 53 0 77 -36 111 -90 84z m44 -134 c-25
-18 -38 -12 -42 19 -3 21 3 28 25 35 25 9 28 8 31 -16 2 -15 -3 -30 -14 -38z"/>
<path d="M11423 5782 c-22 -3 -33 -22 -13 -22 6 0 10 -27 10 -60 0 -46 -4 -61
-17 -69 -14 -8 -7 -10 31 -11 42 0 47 2 33 13 -12 9 -17 31 -19 82 -3 66 -4
70 -25 67z"/>
<path d="M11552 5780 c-33 -14 -54 -70 -41 -109 13 -36 35 -51 78 -51 43 0 71
31 71 79 0 64 -52 104 -108 81z m62 -32 c19 -27 21 -89 4 -106 -33 -33 -78 6
-78 68 0 59 44 81 74 38z"/>
<path d="M11710 5780 c-17 -4 -21 -8 -12 -14 17 -10 16 -133 0 -139 -7 -3 7
-6 32 -6 34 -1 41 2 32 11 -19 19 -16 114 4 122 45 17 54 9 54 -52 0 -32 -5
-63 -12 -70 -9 -9 -2 -12 33 -12 35 1 40 3 27 11 -14 8 -18 24 -18 74 0 54 -3
66 -20 75 -16 9 -28 7 -52 -4 -37 -19 -36 -19 -40 -3 -2 9 -12 11 -28 7z"/>
<path d="M10273 5768 c19 -15 67 -120 67 -147 0 -33 -12 -52 -38 -62 -17 -7
-22 -13 -15 -20 21 -21 43 7 88 109 25 59 54 113 63 120 14 10 11 12 -17 12
-25 0 -31 -3 -24 -12 7 -9 3 -28 -12 -62 l-21 -49 -21 51 c-15 36 -18 53 -10
61 8 8 -1 11 -33 11 -37 0 -41 -2 -27 -12z"/>
<path d="M11086 5078 c-9 -12 -16 -30 -16 -40 0 -9 -7 -24 -16 -32 -8 -9 -11
-16 -5 -16 16 0 14 -137 -1 -143 -7 -3 10 -6 37 -6 39 0 46 2 33 10 -14 8 -18
24 -18 74 0 58 2 64 23 68 l22 4 -22 2 c-18 1 -23 7 -23 30 0 58 27 82 49 44
7 -14 13 -15 22 -6 18 18 1 33 -36 33 -24 0 -39 -7 -49 -22z"/>
<path d="M12230 5090 c-10 -6 -11 -10 -2 -10 9 0 12 -30 12 -114 0 -82 -4
-116 -12 -119 -7 -3 7 -6 31 -6 35 -1 42 2 33 11 -8 8 -12 52 -12 130 0 106
-2 118 -17 118 -10 0 -25 -5 -33 -10z"/>
<path d="M10680 5081 c-36 -5 -40 -7 -22 -13 21 -6 22 -11 22 -107 0 -96 -1
-102 -22 -111 -18 -7 -9 -9 37 -9 46 0 55 2 38 9 -19 8 -23 17 -23 55 0 62 19
59 70 -10 27 -37 48 -55 62 -55 19 0 20 1 6 13 -9 6 -28 31 -42 54 l-26 42 25
25 c66 66 -2 125 -125 107z m98 -23 c14 -14 16 -57 4 -75 -4 -7 -22 -16 -40
-19 l-32 -6 0 49 c0 27 3 53 7 56 11 11 48 8 61 -5z"/>
<path d="M8961 4975 c-24 -59 -53 -112 -64 -120 -20 -14 -18 -15 28 -15 44 0
47 1 30 14 -16 12 -17 17 -6 45 12 28 18 31 57 31 39 0 46 -3 54 -26 14 -37
12 -52 -7 -57 -10 -3 6 -5 36 -6 52 -1 53 -1 33 17 -11 9 -34 55 -50 102 -42
118 -43 120 -56 120 -7 0 -31 -47 -55 -105z m65 30 c20 -49 18 -55 -22 -55
-30 0 -35 3 -29 18 4 9 12 29 17 45 5 15 12 27 14 27 3 0 12 -16 20 -35z"/>
<path d="M10127 5074 c-9 -10 2 -24 19 -24 8 0 14 7 14 15 0 15 -21 21 -33 9z"/>
<path d="M11977 5074 c-9 -10 2 -24 19 -24 8 0 14 7 14 15 0 15 -21 21 -33 9z"/>
<path d="M10013 5053 c-7 -3 -13 -15 -13 -28 0 -13 -6 -26 -12 -28 -10 -4 -10
-6 0 -6 8 -1 12 -20 12 -60 0 -33 3 -66 6 -75 6 -16 30 -21 58 -10 23 9 19 21
-6 20 -21 -1 -23 4 -26 61 -3 61 -2 62 25 66 l28 4 -27 2 c-22 1 -27 6 -30 29
-2 18 -8 27 -15 25z"/>
<path d="M11863 5053 c-7 -3 -13 -15 -13 -28 0 -13 -6 -26 -12 -28 -10 -4 -10
-6 0 -6 8 -1 12 -20 12 -60 0 -33 3 -66 6 -75 6 -16 30 -21 58 -10 23 9 19 21
-6 20 -21 -1 -23 4 -26 61 -3 61 -2 62 25 66 l28 4 -27 2 c-22 1 -27 6 -30 29
-2 18 -8 27 -15 25z"/>
<path d="M9203 5000 c-50 -20 -64 -100 -26 -142 23 -26 76 -23 99 5 10 12 12
16 4 10 -22 -20 -68 -16 -80 6 -14 27 -13 84 2 99 18 18 46 14 53 -8 7 -22 20
-26 31 -9 15 25 -46 54 -83 39z"/>
<path d="M9363 5000 c-50 -20 -64 -100 -26 -142 23 -26 76 -23 99 5 10 12 12
16 4 10 -22 -20 -68 -16 -80 6 -14 27 -13 84 2 99 18 18 46 14 53 -8 7 -22 20
-26 31 -9 15 25 -46 54 -83 39z"/>
<path d="M9714 5000 c-46 -18 -40 -59 13 -90 22 -13 33 -26 31 -38 -5 -26 -44
-27 -62 0 l-16 22 0 -27 c0 -25 3 -27 44 -27 77 0 92 60 23 93 -26 12 -37 23
-35 35 4 23 39 28 54 7 8 -11 14 -13 19 -5 14 23 -36 44 -71 30z"/>
<path d="M9850 4997 c-29 -14 -40 -47 -16 -47 9 0 16 8 16 20 0 25 45 28 54 4
10 -27 7 -32 -28 -44 -46 -15 -73 -46 -60 -68 9 -13 27 -17 77 -19 37 -1 69 3
72 8 4 5 -1 9 -9 9 -13 0 -16 12 -16 53 0 77 -36 111 -90 84z m44 -134 c-25
-18 -38 -12 -42 19 -3 21 3 28 25 35 25 9 28 8 31 -16 2 -15 -3 -30 -14 -38z"/>
<path d="M10133 5002 c-22 -3 -33 -22 -13 -22 6 0 10 -27 10 -60 0 -46 -4 -61
-17 -69 -14 -8 -7 -10 31 -11 42 0 47 2 33 13 -12 9 -17 31 -19 82 -3 66 -4
70 -25 67z"/>
<path d="M10443 4995 c-52 -22 -64 -91 -25 -137 19 -22 85 -24 102 -3 10 12 6
13 -26 8 -40 -7 -64 12 -64 49 0 15 8 18 50 18 46 0 50 2 50 24 0 41 -41 60
-87 41z m55 -27 c3 -15 -4 -18 -32 -18 -38 0 -44 8 -24 28 17 17 52 11 56 -10z"/>
<path d="M10923 4995 c-52 -22 -64 -91 -25 -137 19 -22 85 -24 102 -3 10 12 6
13 -26 8 -40 -7 -64 12 -64 49 0 15 8 18 50 18 46 0 50 2 50 24 0 41 -41 60
-87 41z m55 -27 c3 -15 -4 -18 -32 -18 -38 0 -44 8 -24 28 17 17 52 11 56 -10z"/>
<path d="M11203 4995 c-52 -22 -64 -91 -25 -137 19 -22 85 -24 102 -3 10 12 6
13 -26 8 -40 -7 -64 12 -64 49 0 15 8 18 50 18 46 0 50 2 50 24 0 41 -41 60
-87 41z m55 -27 c3 -15 -4 -18 -32 -18 -38 0 -44 8 -24 28 17 17 52 11 56 -10z"/>
<path d="M11402 4994 c-13 -9 -22 -11 -22 -5 0 6 -11 11 -25 11 -25 0 -33 -14
-15 -25 6 -3 10 -30 10 -60 0 -41 -4 -56 -17 -64 -14 -8 -7 -10 32 -10 39 0
46 2 33 10 -13 7 -18 23 -18 59 0 50 11 67 43 62 10 -2 17 3 17 12 0 23 -15
27 -38 10z"/>
<path d="M11513 4995 c-52 -22 -64 -91 -25 -137 19 -22 85 -24 102 -3 10 12 6
13 -26 8 -40 -7 -64 12 -64 49 0 15 8 18 50 18 46 0 50 2 50 24 0 41 -41 60
-87 41z m55 -27 c3 -15 -4 -18 -32 -18 -38 0 -44 8 -24 28 17 17 52 11 56 -10z"/>
<path d="M11650 5000 c-17 -4 -21 -8 -12 -14 17 -10 16 -133 0 -139 -7 -3 7
-6 32 -6 34 -1 41 2 32 11 -19 19 -16 114 4 122 45 17 54 9 54 -52 0 -32 -5
-63 -12 -70 -9 -9 -2 -12 33 -12 35 1 40 3 27 11 -14 8 -18 24 -18 74 0 54 -3
66 -20 75 -16 9 -28 7 -52 -4 -37 -19 -36 -19 -40 -3 -2 9 -12 11 -28 7z"/>
<path d="M11983 5002 c-22 -3 -33 -22 -13 -22 6 0 10 -27 10 -60 0 -46 -4 -61
-17 -69 -14 -8 -7 -10 31 -11 42 0 47 2 33 13 -12 9 -17 31 -19 82 -3 66 -4
70 -25 67z"/>
<path d="M12090 4997 c-29 -14 -40 -47 -16 -47 9 0 16 8 16 20 0 25 45 28 54
4 10 -27 7 -32 -28 -44 -46 -15 -73 -46 -60 -68 9 -13 27 -17 77 -19 37 -1 69
3 72 8 4 5 -1 9 -9 9 -13 0 -16 12 -16 53 0 77 -36 111 -90 84z m44 -134 c-25
-18 -38 -12 -42 19 -3 21 3 28 25 35 25 9 28 8 31 -16 2 -15 -3 -30 -14 -38z"/>
<path d="M9478 4993 c7 -3 12 -25 12 -59 0 -31 5 -64 10 -75 11 -20 54 -26 80
-9 9 6 17 5 21 -2 4 -6 16 -7 29 -3 16 5 19 10 11 18 -6 6 -11 39 -11 74 l0
63 -31 0 c-28 0 -29 -1 -15 -16 19 -18 22 -94 4 -112 -7 -7 -22 -12 -35 -12
-27 0 -37 29 -31 95 3 44 3 45 -27 44 -16 0 -24 -3 -17 -6z"/>
<path d="M10201 4990 c8 -5 28 -41 44 -80 16 -39 33 -69 38 -67 5 1 20 30 34
62 13 33 34 68 45 78 20 17 19 17 -18 17 -26 0 -34 -3 -25 -9 11 -7 11 -16 -4
-55 -10 -25 -21 -46 -25 -46 -4 0 -15 21 -25 46 -15 39 -15 48 -4 55 9 6 -2 9
-31 9 -32 -1 -41 -3 -29 -10z"/>
<path d="M8020 4787 c-29 -15 -33 -40 -7 -45 12 -3 20 4 24 17 6 25 28 28 37
5 11 -28 7 -33 -40 -53 -40 -18 -45 -24 -42 -48 3 -27 5 -28 63 -30 71 -2 105
4 105 17 0 5 -7 7 -15 4 -12 -5 -15 4 -15 50 0 84 -43 117 -110 83z m58 -104
c-3 -32 -35 -44 -45 -17 -4 11 1 22 12 30 28 21 37 17 33 -13z"/>
<path d="M9580 4660 c-11 -11 -20 -31 -20 -45 0 -13 -8 -29 -17 -34 -10 -6
-12 -11 -5 -11 8 0 12 -21 12 -69 0 -46 -4 -71 -12 -74 -7 -3 7 -6 32 -6 34
-1 41 2 32 11 -7 7 -12 39 -12 74 0 57 2 63 23 67 l22 4 -23 2 c-20 1 -23 5
-20 37 4 47 32 68 54 40 18 -25 20 -206 2 -224 -9 -9 -2 -12 33 -12 35 1 40 3
27 11 -16 9 -18 26 -18 129 l0 120 -45 0 c-32 0 -51 -6 -65 -20z"/>
<path d="M9170 4661 c-36 -5 -40 -7 -22 -13 21 -6 22 -11 22 -107 0 -96 -1
-102 -22 -111 -18 -7 -9 -9 37 -9 46 0 55 2 38 9 -19 8 -23 17 -23 55 0 62 19
59 70 -10 27 -37 48 -55 62 -55 19 0 20 1 6 13 -9 6 -28 31 -42 54 l-26 42 25
25 c66 66 -2 125 -125 107z m98 -23 c14 -14 16 -57 4 -75 -4 -7 -22 -16 -40
-19 l-32 -6 0 49 c0 27 3 53 7 56 11 11 48 8 61 -5z"/>
<path d="M10665 4661 c-38 -5 -45 -8 -27 -13 21 -6 22 -11 22 -107 0 -96 -1
-102 -22 -111 -18 -7 -9 -9 37 -9 50 0 56 2 38 11 -18 9 -23 19 -23 53 0 40 1
41 36 42 44 1 84 36 84 73 0 51 -50 72 -145 61z m89 -17 c19 -7 22 -74 4 -92
-7 -7 -25 -12 -40 -12 -27 0 -28 2 -28 48 0 27 3 52 7 55 8 9 36 9 57 1z"/>
<path d="M10107 4654 c-9 -10 2 -24 19 -24 8 0 14 7 14 15 0 15 -21 21 -33 9z"/>
<path d="M4600 4580 c-11 -11 -20 -31 -20 -45 0 -13 -8 -29 -17 -34 -10 -6
-12 -11 -5 -11 8 0 12 -21 12 -69 0 -46 -4 -71 -12 -74 -7 -3 7 -6 31 -6 35
-1 42 2 33 11 -7 7 -12 39 -12 74 0 57 2 63 23 67 l22 4 -23 2 c-20 1 -23 5
-20 37 4 47 32 68 54 40 18 -25 20 -206 2 -224 -9 -9 -2 -12 33 -12 35 1 40 3
27 11 -16 9 -18 26 -18 129 l0 120 -45 0 c-32 0 -51 -6 -65 -20z"/>
<path d="M4190 4581 c-36 -5 -40 -7 -22 -13 21 -6 22 -11 22 -107 0 -96 -1
-102 -22 -111 -18 -7 -9 -9 37 -9 46 0 55 2 38 9 -19 8 -23 17 -23 55 0 62 19
59 70 -10 27 -37 48 -55 62 -55 19 0 20 1 6 13 -9 6 -28 31 -42 54 l-26 42 25
25 c66 66 -2 125 -125 107z m98 -23 c14 -14 16 -57 4 -75 -4 -7 -22 -16 -40
-19 l-32 -6 0 49 c0 27 3 53 7 56 11 11 48 8 61 -5z"/>
<path d="M9413 4575 c-52 -22 -64 -91 -25 -137 19 -22 85 -24 102 -3 10 12 6
13 -26 8 -40 -7 -64 12 -64 49 0 15 8 18 50 18 46 0 50 2 50 24 0 41 -41 60
-87 41z m55 -27 c3 -15 -4 -18 -32 -18 -38 0 -44 8 -24 28 17 17 52 11 56 -10z"/>
<path d="M9783 4575 c-52 -22 -64 -91 -25 -137 19 -22 85 -24 102 -3 10 12 6
13 -26 8 -40 -7 -64 12 -64 49 0 15 8 18 50 18 46 0 50 2 50 24 0 41 -41 60
-87 41z m55 -27 c3 -15 -4 -18 -32 -18 -38 0 -44 8 -24 28 17 17 52 11 56 -10z"/>
<path d="M10113 4582 c-22 -3 -33 -22 -13 -22 6 0 10 -27 10 -60 0 -46 -4 -61
-17 -69 -14 -8 -7 -10 31 -11 42 0 47 2 33 13 -12 9 -17 31 -19 82 -3 66 -4
70 -25 67z"/>
<path d="M10413 4575 c-52 -22 -64 -91 -25 -137 19 -22 85 -24 102 -3 10 12 6
13 -26 8 -40 -7 -64 12 -64 49 0 15 8 18 50 18 46 0 50 2 50 24 0 41 -41 60
-87 41z m55 -27 c3 -15 -4 -18 -32 -18 -38 0 -44 8 -24 28 17 17 52 11 56 -10z"/>
<path d="M10912 4574 c-13 -9 -22 -11 -22 -5 0 6 -11 11 -25 11 -25 0 -33 -14
-15 -25 6 -3 10 -30 10 -60 0 -41 -4 -56 -17 -64 -14 -8 -7 -10 32 -10 39 0
46 2 33 10 -13 7 -18 23 -18 59 0 50 11 67 43 62 10 -2 17 3 17 12 0 23 -15
27 -38 10z"/>
<path d="M11022 4580 c-33 -14 -54 -70 -41 -109 13 -36 35 -51 78 -51 43 0 71
31 71 79 0 64 -52 104 -108 81z m62 -32 c19 -27 21 -89 4 -106 -33 -33 -78 6
-78 68 0 59 44 81 74 38z"/>
<path d="M11170 4580 c-17 -4 -21 -8 -12 -14 17 -10 16 -133 0 -139 -7 -3 7
-6 32 -6 34 -1 41 2 32 11 -19 19 -16 114 4 122 45 17 54 9 54 -52 0 -32 -5
-63 -12 -70 -9 -9 -2 -12 33 -12 35 1 40 3 27 11 -14 8 -18 24 -18 74 0 54 -3
66 -20 75 -16 9 -28 7 -52 -4 -37 -19 -36 -19 -40 -3 -2 9 -12 11 -28 7z"/>
<path d="M11412 4580 c-33 -14 -54 -70 -41 -109 13 -36 35 -51 78 -51 43 0 71
31 71 79 0 64 -52 104 -108 81z m62 -32 c19 -27 21 -89 4 -106 -33 -33 -78 6
-78 68 0 59 44 81 74 38z"/>
<path d="M11770 4580 c-17 -4 -21 -8 -12 -14 17 -10 16 -133 0 -139 -7 -3 7
-6 32 -6 34 -1 41 2 32 11 -19 19 -16 114 4 122 45 17 54 9 54 -52 0 -32 -5
-63 -12 -70 -9 -9 -2 -12 33 -12 35 1 40 3 27 11 -14 8 -18 24 -18 74 0 54 -3
66 -20 75 -16 9 -28 7 -52 -4 -37 -19 -36 -19 -40 -3 -2 9 -12 11 -28 7z"/>
<path d="M5127 4574 c-9 -10 2 -24 19 -24 8 0 14 7 14 15 0 15 -21 21 -33 9z"/>
<path d="M9910 4567 c9 -7 26 -26 38 -43 l22 -31 -36 -37 -35 -36 30 0 c23 0
28 4 24 18 -7 27 21 47 37 27 7 -8 10 -22 6 -30 -4 -12 3 -15 33 -15 l38 0
-38 41 -38 42 20 26 c11 14 30 31 42 38 20 11 19 12 -18 12 -25 1 -35 -2 -27
-8 10 -6 9 -13 -6 -31 l-19 -24 -12 22 c-7 12 -9 27 -6 32 4 6 -10 10 -32 10
-32 -1 -35 -3 -23 -13z"/>
<path d="M10181 4570 c8 -5 28 -41 44 -80 16 -39 33 -69 38 -67 5 1 20 30 34
62 13 33 34 68 45 78 20 17 19 17 -18 17 -26 0 -34 -3 -25 -9 11 -7 11 -16 -4
-55 -10 -25 -21 -46 -25 -46 -4 0 -15 21 -25 46 -15 39 -15 48 -4 55 9 6 -2 9
-31 9 -32 -1 -41 -3 -29 -10z"/>
<path d="M11558 4573 c7 -3 12 -25 12 -59 0 -31 5 -64 10 -75 11 -20 54 -26
80 -9 9 6 17 5 21 -2 4 -6 16 -7 29 -3 16 5 19 10 11 18 -6 6 -11 39 -11 74
l0 63 -31 0 c-28 0 -29 -1 -15 -16 19 -18 22 -94 4 -112 -7 -7 -22 -12 -35
-12 -27 0 -37 29 -31 95 3 44 3 45 -27 44 -16 0 -24 -3 -17 -6z"/>
<path d="M4433 4495 c-52 -22 -64 -91 -25 -137 19 -22 85 -24 102 -3 10 12 6
13 -26 8 -40 -7 -64 12 -64 49 0 15 8 18 50 18 46 0 50 2 50 24 0 41 -41 60
-87 41z m55 -27 c3 -15 -4 -18 -32 -18 -38 0 -44 8 -24 28 17 17 52 11 56 -10z"/>
<path d="M4803 4495 c-52 -22 -64 -91 -25 -137 19 -22 85 -24 102 -3 10 12 6
13 -26 8 -40 -7 -64 12 -64 49 0 15 8 18 50 18 46 0 50 2 50 24 0 41 -41 60
-87 41z m55 -27 c3 -15 -4 -18 -32 -18 -38 0 -44 8 -24 28 17 17 52 11 56 -10z"/>
<path d="M5133 4502 c-22 -3 -33 -22 -13 -22 6 0 10 -27 10 -60 0 -46 -4 -61
-17 -69 -14 -8 -7 -10 31 -11 42 0 47 2 33 13 -12 9 -17 31 -19 82 -3 66 -4
70 -25 67z"/>
<path d="M5433 4495 c-52 -22 -64 -91 -25 -137 19 -22 85 -24 102 -3 10 12 6
13 -26 8 -40 -7 -64 12 -64 49 0 15 8 18 50 18 46 0 50 2 50 24 0 41 -41 60
-87 41z m55 -27 c3 -15 -4 -18 -32 -18 -38 0 -44 8 -24 28 17 17 52 11 56 -10z"/>
<path d="M4920 4487 c9 -7 26 -26 38 -43 l22 -31 -36 -37 -35 -36 30 0 c23 0
28 4 24 18 -7 27 21 47 37 27 7 -8 10 -22 6 -30 -4 -12 3 -15 33 -15 l38 0
-38 41 -38 42 20 26 c11 14 30 31 42 38 20 11 19 12 -18 12 -25 1 -35 -2 -27
-8 10 -6 9 -13 -6 -31 l-19 -24 -12 22 c-7 12 -9 27 -6 32 4 6 -10 10 -32 10
-32 -1 -35 -3 -23 -13z"/>
<path d="M5201 4490 c8 -5 28 -41 44 -80 16 -39 33 -69 38 -67 5 1 20 30 34
62 13 33 34 68 45 78 20 17 19 17 -18 17 -26 0 -34 -3 -25 -9 11 -7 11 -16 -4
-55 -10 -25 -21 -46 -25 -46 -4 0 -15 21 -25 46 -15 39 -15 48 -4 55 9 6 -2 9
-31 9 -32 -1 -41 -3 -29 -10z"/>
<path d="M4420 4170 c-13 -8 -12 -10 3 -10 15 0 17 -12 17 -118 l0 -119 45 -1
c37 -2 51 3 70 22 58 58 9 162 -62 135 -22 -8 -23 -6 -23 46 0 46 -3 55 -17
55 -10 0 -25 -5 -33 -10z m114 -122 c32 -45 7 -122 -37 -116 -19 3 -22 10 -25
62 -2 41 1 62 10 67 21 14 36 10 52 -13z"/>
<path d="M4220 4148 c-72 -49 -76 -166 -7 -208 67 -41 149 -18 177 50 46 111
-74 223 -170 158z m95 -4 c25 -10 45 -59 45 -114 0 -41 -5 -56 -25 -75 -80
-81 -179 59 -115 163 20 32 53 42 95 26z"/>
<path d="M4640 4146 c0 -8 4 -17 9 -20 11 -7 33 18 24 27 -12 12 -33 7 -33 -7z"/>
<path d="M5073 4133 c-7 -3 -13 -15 -13 -28 0 -13 -6 -26 -12 -28 -10 -4 -10
-6 0 -6 8 -1 12 -20 12 -60 0 -33 3 -66 6 -75 6 -16 30 -21 58 -10 23 9 19 21
-6 20 -21 -1 -23 4 -26 61 -3 61 -2 62 25 66 l28 4 -27 2 c-22 1 -27 6 -30 29
-2 18 -8 27 -15 25z"/>
<path d="M10426 4088 c-9 -12 -16 -30 -16 -40 0 -9 -7 -24 -16 -32 -8 -9 -11
-16 -5 -16 16 0 14 -137 -1 -143 -7 -3 10 -6 37 -6 39 0 46 2 33 10 -14 8 -18
24 -18 74 0 58 2 64 23 68 l22 4 -22 2 c-18 1 -23 7 -23 30 0 58 27 82 49 44
7 -14 13 -15 22 -6 18 18 1 33 -36 33 -24 0 -39 -7 -49 -22z"/>
<path d="M11570 4100 c-10 -6 -11 -10 -2 -10 9 0 12 -30 12 -114 0 -82 -4
-116 -12 -119 -7 -3 7 -6 31 -6 35 -1 42 2 33 11 -8 8 -12 52 -12 130 0 106
-2 118 -17 118 -10 0 -25 -5 -33 -10z"/>
<path d="M10020 4091 c-36 -5 -40 -7 -22 -13 21 -6 22 -11 22 -107 0 -96 -1
-102 -22 -111 -18 -7 -9 -9 37 -9 46 0 55 2 38 9 -19 8 -23 17 -23 55 0 62 19
59 70 -10 27 -37 48 -55 62 -55 19 0 20 1 6 13 -9 6 -28 31 -42 54 l-26 42 25
25 c66 66 -2 125 -125 107z m98 -23 c14 -14 16 -57 4 -75 -4 -7 -22 -16 -40
-19 l-32 -6 0 49 c0 27 3 53 7 56 11 11 48 8 61 -5z"/>
<path d="M4763 4075 c-52 -22 -64 -91 -25 -137 19 -22 85 -24 102 -3 10 12 6
13 -26 8 -40 -7 -64 12 -64 49 0 15 8 18 50 18 46 0 50 2 50 24 0 41 -41 60
-87 41z m55 -27 c3 -15 -4 -18 -32 -18 -38 0 -44 8 -24 28 17 17 52 11 56 -10z"/>
<path d="M4933 4080 c-50 -20 -64 -100 -26 -142 23 -26 76 -23 99 5 10 12 12
16 4 10 -22 -20 -68 -16 -80 6 -14 27 -13 84 2 99 18 18 46 14 53 -8 7 -22 20
-26 31 -9 15 25 -46 54 -83 39z"/>
<path d="M5204 4080 c-46 -18 -40 -59 13 -90 22 -13 33 -26 31 -38 -5 -26 -44
-27 -62 0 l-16 22 0 -27 c0 -25 3 -27 44 -27 77 0 92 60 23 93 -26 12 -37 23
-35 35 4 23 39 28 54 7 8 -11 14 -13 19 -5 14 23 -36 44 -71 30z"/>
<path d="M8903 4079 c14 -8 17 -25 17 -110 0 -94 -1 -100 -22 -109 -17 -6 1
-9 62 -9 67 -1 92 3 117 19 69 41 65 149 -6 197 -28 19 -47 23 -110 23 -57 -1
-72 -3 -58 -11z m147 -26 c37 -33 50 -95 30 -142 -14 -34 -66 -57 -106 -47
-23 6 -24 9 -24 105 0 54 3 101 7 104 16 16 65 5 93 -20z"/>
<path d="M9467 4084 c-9 -10 2 -24 19 -24 8 0 14 7 14 15 0 15 -21 21 -33 9z"/>
<path d="M11317 4084 c-9 -10 2 -24 19 -24 8 0 14 7 14 15 0 15 -21 21 -33 9z"/>
<path d="M4620 4070 c0 -5 5 -10 10 -10 13 0 13 -179 1 -199 -7 -12 -13 -12
-24 -3 -7 7 -17 9 -20 5 -15 -14 -6 -23 22 -23 49 0 61 29 61 142 0 98 0 98
-25 98 -14 0 -25 -4 -25 -10z"/>
<path d="M9363 4063 c-7 -3 -13 -15 -13 -28 0 -13 -6 -26 -12 -28 -10 -4 -10
-6 0 -6 8 -1 12 -20 12 -60 0 -33 3 -66 6 -75 6 -16 30 -21 58 -10 23 9 19 21
-6 20 -21 -1 -23 4 -26 61 -3 61 -2 62 25 66 l28 4 -27 2 c-22 1 -27 6 -30 29
-2 18 -8 27 -15 25z"/>
<path d="M11203 4063 c-7 -3 -13 -15 -13 -28 0 -13 -6 -26 -12 -28 -10 -4 -10
-6 0 -6 8 -1 12 -20 12 -60 0 -33 3 -66 6 -75 6 -16 30 -21 58 -10 23 9 19 21
-6 20 -21 -1 -23 4 -26 61 -3 61 -2 62 25 66 l28 4 -27 2 c-22 1 -27 6 -30 29
-2 18 -8 27 -15 25z"/>
<path d="M9190 4007 c-29 -14 -40 -47 -16 -47 9 0 16 8 16 20 0 25 45 28 54 4
10 -27 7 -32 -28 -44 -46 -15 -73 -46 -60 -68 9 -13 27 -17 77 -19 37 -1 69 3
72 8 4 5 -1 9 -9 9 -13 0 -16 12 -16 53 0 77 -36 111 -90 84z m44 -134 c-25
-18 -38 -12 -42 19 -3 21 3 28 25 35 25 9 28 8 31 -16 2 -15 -3 -30 -14 -38z"/>
<path d="M9473 4012 c-22 -3 -33 -22 -13 -22 6 0 10 -27 10 -60 0 -46 -4 -61
-17 -69 -14 -8 -7 -10 31 -11 42 0 47 2 33 13 -12 9 -17 31 -19 82 -3 66 -4
70 -25 67z"/>
<path d="M9783 4005 c-52 -22 -64 -91 -25 -137 19 -22 85 -24 102 -3 10 12 6
13 -26 8 -40 -7 -64 12 -64 49 0 15 8 18 50 18 46 0 50 2 50 24 0 41 -41 60
-87 41z m55 -27 c3 -15 -4 -18 -32 -18 -38 0 -44 8 -24 28 17 17 52 11 56 -10z"/>
<path d="M10263 4005 c-52 -22 -64 -91 -25 -137 19 -22 85 -24 102 -3 10 12 6
13 -26 8 -40 -7 -64 12 -64 49 0 15 8 18 50 18 46 0 50 2 50 24 0 41 -41 60
-87 41z m55 -27 c3 -15 -4 -18 -32 -18 -38 0 -44 8 -24 28 17 17 52 11 56 -10z"/>
<path d="M10543 4005 c-52 -22 -64 -91 -25 -137 19 -22 85 -24 102 -3 10 12 6
13 -26 8 -40 -7 -64 12 -64 49 0 15 8 18 50 18 46 0 50 2 50 24 0 41 -41 60
-87 41z m55 -27 c3 -15 -4 -18 -32 -18 -38 0 -44 8 -24 28 17 17 52 11 56 -10z"/>
<path d="M10742 4004 c-13 -9 -22 -11 -22 -5 0 6 -11 11 -25 11 -25 0 -33 -14
-15 -25 6 -3 10 -30 10 -60 0 -41 -4 -56 -17 -64 -14 -8 -7 -10 32 -10 39 0
46 2 33 10 -13 7 -18 23 -18 59 0 50 11 67 43 62 10 -2 17 3 17 12 0 23 -15
27 -38 10z"/>
<path d="M10853 4005 c-52 -22 -64 -91 -25 -137 19 -22 85 -24 102 -3 10 12 6
13 -26 8 -40 -7 -64 12 -64 49 0 15 8 18 50 18 46 0 50 2 50 24 0 41 -41 60
-87 41z m55 -27 c3 -15 -4 -18 -32 -18 -38 0 -44 8 -24 28 17 17 52 11 56 -10z"/>
<path d="M10990 4010 c-17 -4 -21 -8 -12 -14 17 -10 16 -133 0 -139 -7 -3 7
-6 32 -6 34 -1 41 2 32 11 -19 19 -16 114 4 122 45 17 54 9 54 -52 0 -32 -5
-63 -12 -70 -9 -9 -2 -12 33 -12 35 1 40 3 27 11 -14 8 -18 24 -18 74 0 54 -3
66 -20 75 -16 9 -28 7 -52 -4 -37 -19 -36 -19 -40 -3 -2 9 -12 11 -28 7z"/>
<path d="M11323 4012 c-22 -3 -33 -22 -13 -22 6 0 10 -27 10 -60 0 -46 -4 -61
-17 -69 -14 -8 -7 -10 31 -11 42 0 47 2 33 13 -12 9 -17 31 -19 82 -3 66 -4
70 -25 67z"/>
<path d="M11430 4007 c-29 -14 -40 -47 -16 -47 9 0 16 8 16 20 0 25 45 28 54
4 10 -27 7 -32 -28 -44 -46 -15 -73 -46 -60 -68 9 -13 27 -17 77 -19 37 -1 69
3 72 8 4 5 -1 9 -9 9 -13 0 -16 12 -16 53 0 77 -36 111 -90 84z m44 -134 c-25
-18 -38 -12 -42 19 -3 21 3 28 25 35 25 9 28 8 31 -16 2 -15 -3 -30 -14 -38z"/>
<path d="M9551 4000 c8 -5 28 -41 44 -80 16 -39 33 -69 38 -67 5 1 20 30 34
62 13 33 34 68 45 78 20 17 19 17 -18 17 -26 0 -34 -3 -25 -9 11 -7 11 -16 -4
-55 -10 -25 -21 -46 -25 -46 -4 0 -15 21 -25 46 -15 39 -15 48 -4 55 9 6 -2 9
-31 9 -32 -1 -41 -3 -29 -10z"/>
<path d="M8076 3901 c-18 -7 -18 -8 -3 -14 11 -4 17 -18 17 -37 0 -25 -4 -30
-25 -30 -33 0 -84 -48 -91 -85 -4 -22 0 -38 15 -57 19 -24 28 -27 84 -27 34 1
71 3 81 6 17 5 18 6 3 15 -14 8 -17 27 -17 123 0 113 0 115 -22 114 -13 0 -32
-4 -42 -8z m12 -162 c2 -45 0 -58 -14 -63 -26 -10 -44 13 -44 58 0 45 15 68
40 64 11 -2 16 -19 18 -59z"/>
<path d="M9580 3680 c-11 -11 -20 -31 -20 -45 0 -13 -8 -29 -17 -34 -10 -6
-12 -11 -5 -11 8 0 12 -21 12 -69 0 -46 -4 -71 -12 -74 -7 -3 7 -6 32 -6 34
-1 41 2 32 11 -7 7 -12 39 -12 74 0 57 2 63 23 67 l22 4 -23 2 c-20 1 -23 5
-20 37 4 47 32 68 54 40 18 -25 20 -206 2 -224 -9 -9 -2 -12 33 -12 35 1 40 3
27 11 -16 9 -18 26 -18 129 l0 120 -45 0 c-32 0 -51 -6 -65 -20z"/>
<path d="M9170 3681 c-36 -5 -40 -7 -22 -13 21 -6 22 -11 22 -107 0 -96 -1
-102 -22 -111 -18 -7 -9 -9 37 -9 46 0 55 2 38 9 -19 8 -23 17 -23 55 0 62 19
59 70 -10 27 -37 48 -55 62 -55 19 0 20 1 6 13 -9 6 -28 31 -42 54 l-26 42 25
25 c66 66 -2 125 -125 107z m98 -23 c14 -14 16 -57 4 -75 -4 -7 -22 -16 -40
-19 l-32 -6 0 49 c0 27 3 53 7 56 11 11 48 8 61 -5z"/>
<path d="M10665 3681 c-38 -5 -45 -8 -27 -13 21 -6 22 -11 22 -107 0 -96 -1
-102 -22 -111 -18 -7 -9 -9 37 -9 50 0 56 2 38 11 -18 9 -23 19 -23 53 0 40 1
41 36 42 44 1 84 36 84 73 0 51 -50 72 -145 61z m89 -17 c19 -7 22 -74 4 -92
-7 -7 -25 -12 -40 -12 -27 0 -28 2 -28 48 0 27 3 52 7 55 8 9 36 9 57 1z"/>
<path d="M10107 3674 c-9 -10 2 -24 19 -24 8 0 14 7 14 15 0 15 -21 21 -33 9z"/>
<path d="M9413 3595 c-52 -22 -64 -91 -25 -137 19 -22 85 -24 102 -3 10 12 6
13 -26 8 -40 -7 -64 12 -64 49 0 15 8 18 50 18 46 0 50 2 50 24 0 41 -41 60
-87 41z m55 -27 c3 -15 -4 -18 -32 -18 -38 0 -44 8 -24 28 17 17 52 11 56 -10z"/>
<path d="M9783 3595 c-52 -22 -64 -91 -25 -137 19 -22 85 -24 102 -3 10 12 6
13 -26 8 -40 -7 -64 12 -64 49 0 15 8 18 50 18 46 0 50 2 50 24 0 41 -41 60
-87 41z m55 -27 c3 -15 -4 -18 -32 -18 -38 0 -44 8 -24 28 17 17 52 11 56 -10z"/>
<path d="M10113 3602 c-22 -3 -33 -22 -13 -22 6 0 10 -27 10 -60 0 -46 -4 -61
-17 -69 -14 -8 -7 -10 31 -11 42 0 47 2 33 13 -12 9 -17 31 -19 82 -3 66 -4
70 -25 67z"/>
<path d="M10413 3595 c-52 -22 -64 -91 -25 -137 19 -22 85 -24 102 -3 10 12 6
13 -26 8 -40 -7 -64 12 -64 49 0 15 8 18 50 18 46 0 50 2 50 24 0 41 -41 60
-87 41z m55 -27 c3 -15 -4 -18 -32 -18 -38 0 -44 8 -24 28 17 17 52 11 56 -10z"/>
<path d="M10912 3594 c-13 -9 -22 -11 -22 -5 0 6 -11 11 -25 11 -25 0 -33 -14
-15 -25 6 -3 10 -30 10 -60 0 -41 -4 -56 -17 -64 -14 -8 -7 -10 32 -10 39 0
46 2 33 10 -13 7 -18 23 -18 59 0 50 11 67 43 62 10 -2 17 3 17 12 0 23 -15
27 -38 10z"/>
<path d="M11022 3600 c-33 -14 -54 -70 -41 -109 13 -36 35 -51 78 -51 43 0 71
31 71 79 0 64 -52 104 -108 81z m62 -32 c19 -27 21 -89 4 -106 -33 -33 -78 6
-78 68 0 59 44 81 74 38z"/>
<path d="M11170 3600 c-17 -4 -21 -8 -12 -14 17 -10 16 -133 0 -139 -7 -3 7
-6 32 -6 34 -1 41 2 32 11 -19 19 -16 114 4 122 45 17 54 9 54 -52 0 -32 -5
-63 -12 -70 -9 -9 -2 -12 33 -12 35 1 40 3 27 11 -14 8 -18 24 -18 74 0 54 -3
66 -20 75 -16 9 -28 7 -52 -4 -37 -19 -36 -19 -40 -3 -2 9 -12 11 -28 7z"/>
<path d="M11412 3600 c-33 -14 -54 -70 -41 -109 13 -36 35 -51 78 -51 43 0 71
31 71 79 0 64 -52 104 -108 81z m62 -32 c19 -27 21 -89 4 -106 -33 -33 -78 6
-78 68 0 59 44 81 74 38z"/>
<path d="M11770 3600 c-17 -4 -21 -8 -12 -14 17 -10 16 -133 0 -139 -7 -3 7
-6 32 -6 34 -1 41 2 32 11 -19 19 -16 114 4 122 45 17 54 9 54 -52 0 -32 -5
-63 -12 -70 -9 -9 -2 -12 33 -12 35 1 40 3 27 11 -14 8 -18 24 -18 74 0 54 -3
66 -20 75 -16 9 -28 7 -52 -4 -37 -19 -36 -19 -40 -3 -2 9 -12 11 -28 7z"/>
<path d="M9910 3587 c9 -7 26 -26 38 -43 l22 -31 -36 -37 -35 -36 30 0 c23 0
28 4 24 18 -7 27 21 47 37 27 7 -8 10 -22 6 -30 -4 -12 3 -15 33 -15 l38 0
-38 41 -38 42 20 26 c11 14 30 31 42 38 20 11 19 12 -18 12 -25 1 -35 -2 -27
-8 10 -6 9 -13 -6 -31 l-19 -24 -12 22 c-7 12 -9 27 -6 32 4 6 -10 10 -32 10
-32 -1 -35 -3 -23 -13z"/>
<path d="M10181 3590 c8 -5 28 -41 44 -80 16 -39 33 -69 38 -67 5 1 20 30 34
62 13 33 34 68 45 78 20 17 19 17 -18 17 -26 0 -34 -3 -25 -9 11 -7 11 -16 -4
-55 -10 -25 -21 -46 -25 -46 -4 0 -15 21 -25 46 -15 39 -15 48 -4 55 9 6 -2 9
-31 9 -32 -1 -41 -3 -29 -10z"/>
<path d="M11558 3593 c7 -3 12 -25 12 -59 0 -31 5 -64 10 -75 11 -20 54 -26
80 -9 9 6 17 5 21 -2 4 -6 16 -7 29 -3 16 5 19 10 11 18 -6 6 -11 39 -11 74
l0 63 -31 0 c-28 0 -29 -1 -15 -16 19 -18 22 -94 4 -112 -7 -7 -22 -12 -35
-12 -27 0 -37 29 -31 95 3 44 3 45 -27 44 -16 0 -24 -3 -17 -6z"/>
<path d="M11010 3120 c-13 -8 -12 -10 3 -10 13 0 17 -9 17 -39 0 -37 -2 -40
-28 -39 -41 1 -69 -18 -81 -55 -12 -36 -1 -84 22 -99 18 -12 65 -9 73 3 5 8 9
8 14 -1 4 -7 17 -9 35 -4 23 6 25 8 11 16 -13 7 -16 28 -16 123 0 103 -2 115
-17 115 -10 0 -25 -5 -33 -10z m18 -162 c3 -54 2 -58 -23 -64 -37 -9 -55 11
-55 60 0 49 15 68 50 64 23 -3 25 -8 28 -60z"/>
<path d="M8903 3092 c13 -14 17 -39 17 -105 0 -77 -2 -87 -22 -101 -22 -15
-21 -16 27 -16 42 0 46 2 31 13 -14 10 -16 26 -14 90 l3 77 70 -90 c39 -49 76
-89 83 -90 9 0 12 28 12 110 0 93 3 110 18 119 13 8 6 10 -33 10 -40 0 -45 -2
-27 -9 20 -9 22 -16 22 -92 l-1 -83 -29 35 c-16 19 -49 61 -72 92 -35 46 -49
57 -72 58 -28 0 -28 -1 -13 -18z"/>
<path d="M9202 3030 c-33 -14 -54 -70 -41 -109 13 -36 35 -51 78 -51 43 0 71
31 71 79 0 64 -52 104 -108 81z m62 -32 c19 -27 21 -89 4 -106 -33 -33 -78 6
-78 68 0 59 44 81 74 38z"/>
<path d="M9360 3030 c-17 -4 -21 -8 -12 -14 17 -10 16 -133 0 -139 -7 -3 7 -6
32 -6 34 -1 41 2 32 11 -19 19 -16 114 4 122 45 17 54 9 54 -52 0 -32 -5 -63
-12 -70 -9 -9 -2 -12 33 -12 35 1 40 3 27 11 -14 8 -18 24 -18 74 0 54 -3 66
-20 75 -16 9 -28 7 -52 -4 -37 -19 -36 -19 -40 -3 -2 9 -12 11 -28 7z"/>
<path d="M9720 3028 c-26 -9 -43 -44 -34 -71 11 -34 8 -97 -4 -109 -28 -28 2
-68 50 -68 41 0 96 28 104 53 10 31 -28 57 -82 57 -36 0 -44 3 -44 19 0 14 6
17 25 13 14 -2 36 3 51 13 23 15 25 22 20 55 -5 35 -4 38 14 33 11 -3 20 -1
20 5 0 11 -90 11 -120 0z m54 -24 c16 -41 -5 -80 -37 -68 -18 6 -30 45 -21 68
8 21 50 21 58 0z m35 -158 c20 -24 -14 -48 -63 -44 -36 3 -41 6 -44 31 -3 26
-2 27 46 27 30 0 54 -5 61 -14z"/>
<path d="M9912 3030 c-33 -14 -54 -70 -41 -109 13 -36 35 -51 78 -51 43 0 71
31 71 79 0 64 -52 104 -108 81z m62 -32 c19 -27 21 -89 4 -106 -33 -33 -78 6
-78 68 0 59 44 81 74 38z"/>
<path d="M10283 3025 c-52 -22 -64 -91 -25 -137 19 -22 85 -24 102 -3 10 12 6
13 -26 8 -40 -7 -64 12 -64 49 0 15 8 18 50 18 46 0 50 2 50 24 0 41 -41 60
-87 41z m55 -27 c3 -15 -4 -18 -32 -18 -38 0 -44 8 -24 28 17 17 52 11 56 -10z"/>
<path d="M10482 3024 c-13 -9 -22 -11 -22 -5 0 6 -11 11 -25 11 -25 0 -33 -14
-15 -25 6 -3 10 -30 10 -60 0 -41 -4 -56 -17 -64 -14 -8 -7 -10 32 -10 39 0
46 2 33 10 -13 7 -18 23 -18 59 0 50 11 67 43 62 10 -2 17 3 17 12 0 23 -15
27 -38 10z"/>
<path d="M10560 3030 c-17 -4 -21 -8 -12 -14 17 -10 16 -133 0 -139 -7 -3 7
-6 32 -6 34 -1 41 2 32 11 -19 19 -16 114 4 122 45 17 54 9 54 -52 0 -32 -5
-63 -12 -70 -9 -9 -2 -12 33 -12 35 1 40 3 27 11 -14 8 -18 24 -18 74 0 54 -3
66 -20 75 -16 9 -28 7 -52 -4 -37 -19 -36 -19 -40 -3 -2 9 -12 11 -28 7z"/>
<path d="M10793 3025 c-52 -22 -64 -91 -25 -137 19 -22 85 -24 102 -3 10 12 6
13 -26 8 -40 -7 -64 12 -64 49 0 15 8 18 50 18 46 0 50 2 50 24 0 41 -41 60
-87 41z m55 -27 c3 -15 -4 -18 -32 -18 -38 0 -44 8 -24 28 17 17 52 11 56 -10z"/>
<path d="M10051 3020 c8 -5 28 -41 44 -80 16 -39 33 -69 38 -67 5 1 20 30 34
62 13 33 34 68 45 78 20 17 19 17 -18 17 -26 0 -34 -3 -25 -9 11 -7 11 -16 -4
-55 -10 -25 -21 -46 -25 -46 -4 0 -15 21 -25 46 -15 39 -15 48 -4 55 9 6 -2 9
-31 9 -32 -1 -41 -3 -29 -10z"/>
<path d="M9560 2964 c0 -12 9 -14 42 -12 59 4 63 28 4 28 -35 0 -46 -4 -46
-16z"/>
<path d="M7988 2823 c-26 -4 -41 -23 -18 -23 6 0 10 -42 10 -105 0 -63 -4
-105 -10 -105 -5 0 -10 -4 -10 -10 0 -5 23 -10 50 -10 28 0 50 5 50 10 0 6 -4
10 -10 10 -5 0 -10 16 -10 35 0 32 2 35 29 35 17 0 42 10 56 23 64 55 5 175
-67 136 -16 -9 -23 -9 -26 0 -2 6 -7 10 -10 10 -4 -1 -19 -4 -34 -6z m100 -35
c19 -19 15 -82 -7 -102 -11 -10 -25 -15 -30 -11 -12 7 -15 107 -4 118 10 11
28 8 41 -5z"/>
<path d="M9175 2691 c-38 -5 -45 -8 -27 -13 21 -6 22 -11 22 -107 0 -96 -1
-102 -22 -111 -18 -7 -9 -9 37 -9 50 0 56 2 38 11 -18 9 -23 19 -23 53 0 40 1
41 36 42 44 1 84 36 84 73 0 51 -50 72 -145 61z m89 -17 c19 -7 22 -74 4 -92
-7 -7 -25 -12 -40 -12 -27 0 -28 2 -28 48 0 27 3 52 7 55 8 9 36 9 57 1z"/>
<path d="M10207 2684 c-9 -10 2 -24 19 -24 8 0 14 7 14 15 0 15 -21 21 -33 9z"/>
<path d="M10427 2684 c-9 -10 2 -24 19 -24 8 0 14 7 14 15 0 15 -21 21 -33 9z"/>
<path d="M10313 2663 c-7 -3 -13 -15 -13 -28 0 -13 -6 -26 -12 -28 -10 -4 -10
-6 0 -6 8 -1 12 -20 12 -60 0 -33 3 -66 6 -75 6 -16 30 -21 58 -10 23 9 19 21
-6 20 -21 -1 -23 4 -26 61 -3 61 -2 62 25 66 l28 4 -27 2 c-22 1 -27 6 -30 29
-2 18 -8 27 -15 25z"/>
<path d="M9422 2604 c-13 -9 -22 -11 -22 -5 0 6 -11 11 -25 11 -25 0 -33 -14
-15 -25 6 -3 10 -30 10 -60 0 -41 -4 -56 -17 -64 -14 -8 -7 -10 32 -10 39 0
46 2 33 10 -13 7 -18 23 -18 59 0 50 11 67 43 62 10 -2 17 3 17 12 0 23 -15
27 -38 10z"/>
<path d="M9533 2605 c-52 -22 -64 -91 -25 -137 19 -22 85 -24 102 -3 10 12 6
13 -26 8 -40 -7 -64 12 -64 49 0 15 8 18 50 18 46 0 50 2 50 24 0 41 -41 60
-87 41z m55 -27 c3 -15 -4 -18 -32 -18 -38 0 -44 8 -24 28 17 17 52 11 56 -10z"/>
<path d="M9726 2604 c-14 -7 -26 -9 -26 -3 0 5 -11 9 -25 9 -14 0 -25 -4 -25
-10 0 -5 5 -10 10 -10 6 0 10 -40 10 -101 0 -85 -3 -104 -17 -115 -16 -12 -12
-13 30 -14 26 0 47 5 47 10 0 6 -7 10 -15 10 -10 0 -15 11 -15 35 0 34 1 35
39 35 31 0 44 6 60 26 54 68 -2 165 -73 128z m43 -17 c39 -47 14 -131 -37
-125 -25 3 -27 7 -30 52 -4 67 35 110 67 73z"/>
<path d="M9902 2610 c-33 -14 -54 -70 -41 -109 13 -36 35 -51 78 -51 43 0 71
31 71 79 0 64 -52 104 -108 81z m62 -32 c19 -27 21 -89 4 -106 -33 -33 -78 6
-78 68 0 59 44 81 74 38z"/>
<path d="M10074 2610 c-46 -18 -40 -59 13 -90 22 -13 33 -26 31 -38 -5 -26
-44 -27 -62 0 l-16 22 0 -27 c0 -25 3 -27 44 -27 77 0 92 60 23 93 -26 12 -37
23 -35 35 4 23 39 28 54 7 8 -11 14 -13 19 -5 14 23 -36 44 -71 30z"/>
<path d="M10213 2612 c-22 -3 -33 -22 -13 -22 6 0 10 -27 10 -60 0 -46 -4 -61
-17 -69 -14 -8 -7 -10 31 -11 42 0 47 2 33 13 -12 9 -17 31 -19 82 -3 66 -4
70 -25 67z"/>
<path d="M10433 2612 c-22 -3 -33 -22 -13 -22 6 0 10 -27 10 -60 0 -46 -4 -61
-17 -69 -14 -8 -7 -10 31 -11 42 0 47 2 33 13 -12 9 -17 31 -19 82 -3 66 -4
70 -25 67z"/>
<path d="M10552 2610 c-33 -14 -54 -70 -41 -109 13 -36 35 -51 78 -51 43 0 71
31 71 79 0 64 -52 104 -108 81z m62 -32 c19 -27 21 -89 4 -106 -33 -33 -78 6
-78 68 0 59 44 81 74 38z"/>
<path d="M10710 2610 c-17 -4 -21 -8 -12 -14 17 -10 16 -133 0 -139 -7 -3 7
-6 32 -6 34 -1 41 2 32 11 -19 19 -16 114 4 122 45 17 54 9 54 -52 0 -32 -5
-63 -12 -70 -9 -9 -2 -12 33 -12 35 1 40 3 27 11 -14 8 -18 24 -18 74 0 54 -3
66 -20 75 -16 9 -28 7 -52 -4 -37 -19 -36 -19 -40 -3 -2 9 -12 11 -28 7z"/>
<path d="M4060 2410 c-13 -8 -12 -10 3 -10 13 0 17 -9 17 -39 0 -37 -2 -40
-28 -39 -41 1 -69 -18 -81 -55 -12 -36 -1 -84 22 -99 18 -12 65 -9 73 3 5 8 9
8 14 -1 4 -7 17 -9 35 -4 23 6 25 8 11 16 -13 7 -16 28 -16 123 0 103 -2 115
-17 115 -10 0 -25 -5 -33 -10z m18 -162 c3 -54 2 -58 -23 -64 -37 -9 -55 11
-55 60 0 49 15 68 50 64 23 -3 25 -8 28 -60z"/>
<path d="M2613 2389 c14 -8 17 -25 17 -110 0 -94 -1 -100 -22 -109 -16 -6 5
-9 73 -9 l97 -1 5 28 c7 36 0 41 -19 14 -12 -17 -25 -22 -60 -22 l-44 0 0 50
c0 49 1 50 30 50 17 0 33 -7 39 -17 8 -14 10 -10 10 22 0 22 -3 34 -6 28 -2
-7 -20 -13 -39 -13 -35 0 -35 0 -32 43 3 39 5 42 35 45 23 2 35 -3 47 -19 18
-26 31 -20 21 10 -6 19 -14 21 -88 21 -61 -1 -77 -3 -64 -11z"/>
<path d="M6718 2388 c-8 -7 -32 -53 -52 -103 -21 -49 -47 -98 -58 -107 -20
-18 -19 -18 28 -18 42 0 46 2 30 13 -17 13 -17 15 -2 45 14 27 22 32 55 32 34
0 39 -3 48 -35 9 -29 9 -37 -5 -45 -12 -7 1 -9 48 -10 60 0 63 1 43 15 -13 9
-35 55 -58 120 -21 58 -43 105 -49 105 -7 0 -19 -6 -28 -12z m20 -85 c11 -32
10 -33 -19 -33 -32 0 -34 3 -18 49 13 36 21 32 37 -16z"/>
<path d="M6893 2389 c14 -8 17 -25 17 -109 0 -84 -3 -101 -17 -109 -13 -8 4
-10 67 -11 68 0 92 4 118 20 65 40 69 131 8 187 -35 32 -38 33 -123 33 -65 -1
-83 -3 -70 -11z m125 -10 c60 -21 72 -155 18 -191 -6 -4 -23 -8 -38 -8 l-28 0
0 98 c0 83 4 112 15 112 1 0 16 -5 33 -11z"/>
<path d="M7168 2390 c21 -9 22 -14 22 -138 0 -71 -3 -132 -7 -135 -3 -4 -15 0
-25 9 -14 14 -20 14 -33 4 -12 -10 -13 -16 -4 -26 19 -23 56 -16 91 15 l33 29
4 121 c3 101 6 121 20 124 9 3 -15 5 -54 5 -51 1 -64 -2 -47 -8z"/>
<path d="M3076 2314 c-14 -7 -26 -9 -26 -3 0 5 -11 9 -25 9 -14 0 -25 -4 -25
-10 0 -5 5 -10 10 -10 6 0 10 -40 10 -101 0 -85 -3 -104 -17 -115 -16 -12 -12
-13 30 -14 26 0 47 5 47 10 0 6 -7 10 -15 10 -10 0 -15 11 -15 35 0 34 1 35
39 35 31 0 44 6 60 26 54 68 -2 165 -73 128z m43 -17 c39 -47 14 -131 -37
-125 -25 3 -27 7 -30 52 -4 67 35 110 67 73z"/>
<path d="M3272 2314 c-13 -9 -22 -11 -22 -5 0 6 -11 11 -25 11 -25 0 -33 -14
-15 -25 6 -3 10 -30 10 -60 0 -41 -4 -56 -17 -64 -14 -8 -7 -10 32 -10 39 0
46 2 33 10 -13 7 -18 23 -18 59 0 50 11 67 43 62 10 -2 17 3 17 12 0 23 -15
27 -38 10z"/>
<path d="M3383 2315 c-52 -22 -64 -91 -25 -137 19 -22 85 -24 102 -3 10 12 6
13 -26 8 -40 -7 -64 12 -64 49 0 15 8 18 50 18 46 0 50 2 50 24 0 41 -41 60
-87 41z m55 -27 c3 -15 -4 -18 -32 -18 -38 0 -44 8 -24 28 17 17 52 11 56 -10z"/>
<path d="M3544 2320 c-46 -18 -40 -59 13 -90 22 -13 33 -26 31 -38 -5 -26 -44
-27 -62 0 l-16 22 0 -27 c0 -25 3 -27 44 -27 77 0 92 60 23 93 -26 12 -37 23
-35 35 4 23 39 28 54 7 8 -11 14 -13 19 -5 14 23 -36 44 -71 30z"/>
<path d="M3684 2320 c-46 -18 -40 -59 13 -90 22 -13 33 -26 31 -38 -5 -26 -44
-27 -62 0 l-16 22 0 -27 c0 -25 3 -27 44 -27 77 0 92 60 23 93 -26 12 -37 23
-35 35 4 23 39 28 54 7 8 -11 14 -13 19 -5 14 23 -36 44 -71 30z"/>
<path d="M3843 2315 c-52 -22 -64 -91 -25 -137 19 -22 85 -24 102 -3 10 12 6
13 -26 8 -40 -7 -64 12 -64 49 0 15 8 18 50 18 46 0 50 2 50 24 0 41 -41 60
-87 41z m55 -27 c3 -15 -4 -18 -32 -18 -38 0 -44 8 -24 28 17 17 52 11 56 -10z"/>
<path d="M2820 2307 c9 -7 26 -26 38 -43 l22 -31 -36 -37 -35 -36 30 0 c23 0
28 4 24 18 -7 27 21 47 37 27 7 -8 10 -22 6 -30 -4 -12 3 -15 33 -15 l38 0
-38 41 -38 42 20 26 c11 14 30 31 42 38 20 11 19 12 -18 12 -25 1 -35 -2 -27
-8 10 -6 9 -13 -6 -31 l-19 -24 -12 22 c-7 12 -9 27 -6 32 4 6 -10 10 -32 10
-32 -1 -35 -3 -23 -13z"/>
<path d="M870 1950 c-13 -8 -12 -10 3 -10 13 0 17 -9 17 -39 0 -37 -2 -40 -28
-39 -41 1 -69 -18 -81 -55 -12 -36 -1 -84 22 -99 18 -12 65 -9 73 3 5 8 9 8
14 -1 4 -7 17 -9 35 -4 23 6 25 8 11 16 -13 7 -16 28 -16 123 0 103 -2 115
-17 115 -10 0 -25 -5 -33 -10z m18 -162 c3 -54 2 -58 -23 -64 -37 -9 -55 11
-55 60 0 49 15 68 50 64 23 -3 25 -8 28 -60z"/>
<path d="M581 1835 c-24 -59 -53 -112 -64 -120 -20 -14 -18 -15 28 -15 44 0
47 1 30 14 -16 12 -17 17 -6 45 12 28 18 31 57 31 39 0 46 -3 54 -26 14 -37
12 -52 -7 -57 -10 -3 6 -5 36 -6 52 -1 53 -1 33 17 -11 9 -34 55 -50 102 -42
118 -43 120 -56 120 -7 0 -31 -47 -55 -105z m65 30 c20 -49 18 -55 -22 -55
-30 0 -35 3 -29 18 4 9 12 29 17 45 5 15 12 27 14 27 3 0 12 -16 20 -35z"/>
<path d="M990 1926 c0 -8 4 -17 9 -20 11 -7 33 18 24 27 -12 12 -33 7 -33 -7z"/>
<path d="M9160 1920 c-13 -8 -12 -10 3 -10 13 0 17 -9 17 -39 0 -37 -2 -40
-28 -39 -41 1 -69 -18 -81 -55 -12 -36 -1 -84 22 -99 18 -12 65 -9 73 3 5 8 9
8 14 -1 4 -7 17 -9 35 -4 23 6 25 8 11 16 -13 7 -16 28 -16 123 0 103 -2 115
-17 115 -10 0 -25 -5 -33 -10z m18 -162 c3 -54 2 -58 -23 -64 -37 -9 -55 11
-55 60 0 49 15 68 50 64 23 -3 25 -8 28 -60z"/>
<path d="M10430 1920 c-10 -6 -11 -10 -2 -10 9 0 12 -30 12 -114 0 -82 -4
-116 -12 -119 -7 -3 7 -6 31 -6 35 -1 42 2 33 11 -8 8 -12 52 -12 130 0 106
-2 118 -17 118 -10 0 -25 -5 -33 -10z"/>
<path d="M1653 1913 c-7 -3 -13 -15 -13 -28 0 -13 -6 -26 -12 -28 -10 -4 -10
-6 0 -6 8 -1 12 -20 12 -60 0 -33 3 -66 6 -75 6 -16 30 -21 58 -10 23 9 19 21
-6 20 -21 -1 -23 4 -26 61 -3 61 -2 62 25 66 l28 4 -27 2 c-22 1 -27 6 -30 29
-2 18 -8 27 -15 25z"/>
<path d="M10694 1906 c-62 -27 -95 -98 -74 -161 17 -52 52 -75 117 -75 72 0
93 12 93 53 0 18 5 38 12 45 9 9 2 12 -32 12 -36 -1 -41 -3 -27 -11 22 -13 24
-74 1 -83 -34 -13 -72 -5 -97 20 -68 67 -33 194 52 194 37 0 71 -23 71 -48 0
-7 5 -12 10 -12 12 0 13 30 2 47 -9 14 -56 33 -80 33 -9 -1 -31 -7 -48 -14z"/>
<path d="M8881 1805 c-24 -59 -53 -112 -64 -120 -20 -14 -18 -15 28 -15 44 0
47 1 30 14 -16 12 -17 17 -6 45 12 28 18 31 57 31 39 0 46 -3 54 -26 14 -37
12 -52 -7 -57 -10 -3 6 -5 36 -6 52 -1 53 -1 33 17 -11 9 -34 55 -50 102 -42
118 -43 120 -56 120 -7 0 -31 -47 -55 -105z m65 30 c20 -49 18 -55 -22 -55
-30 0 -35 3 -29 18 4 9 12 29 17 45 5 15 12 27 14 27 3 0 12 -16 20 -35z"/>
<path d="M9967 1904 c-9 -10 2 -24 19 -24 8 0 14 7 14 15 0 15 -21 21 -33 9z"/>
<path d="M11267 1904 c-9 -10 2 -24 19 -24 8 0 14 7 14 15 0 15 -21 21 -33 9z"/>
<path d="M11487 1904 c-9 -10 2 -24 19 -24 8 0 14 7 14 15 0 15 -21 21 -33 9z"/>
<path d="M11373 1883 c-7 -3 -13 -15 -13 -28 0 -13 -6 -26 -12 -28 -10 -4 -10
-6 0 -6 8 -1 12 -20 12 -60 0 -33 3 -66 6 -75 6 -16 30 -21 58 -10 23 9 19 21
-6 20 -21 -1 -23 4 -26 61 -3 61 -2 62 25 66 l28 4 -27 2 c-22 1 -27 6 -30 29
-2 18 -8 27 -15 25z"/>
<path d="M1280 1860 c-17 -4 -21 -8 -12 -14 17 -10 16 -133 0 -139 -7 -3 7 -6
32 -6 34 -1 41 2 32 11 -19 19 -16 114 4 122 45 17 54 9 54 -52 0 -32 -5 -63
-12 -70 -9 -9 -2 -12 33 -12 35 1 40 3 27 11 -14 8 -18 24 -18 74 0 54 -3 66
-20 75 -16 9 -28 7 -52 -4 -37 -19 -36 -19 -40 -3 -2 9 -12 11 -28 7z"/>
<path d="M1513 1860 c-50 -20 -64 -100 -26 -142 23 -26 76 -23 99 5 10 12 12
16 4 10 -22 -20 -68 -16 -80 6 -14 27 -13 84 2 99 18 18 46 14 53 -8 7 -22 20
-26 31 -9 15 25 -46 54 -83 39z"/>
<path d="M1784 1860 c-46 -18 -40 -59 13 -90 22 -13 33 -26 31 -38 -5 -26 -44
-27 -62 0 l-16 22 0 -27 c0 -25 3 -27 44 -27 77 0 92 60 23 93 -26 12 -37 23
-35 35 4 23 39 28 54 7 8 -11 14 -13 19 -5 14 23 -36 44 -71 30z"/>
<path d="M970 1850 c0 -5 5 -10 10 -10 13 0 13 -179 1 -199 -7 -12 -13 -12
-24 -3 -7 7 -17 9 -20 5 -15 -14 -6 -23 22 -23 49 0 61 29 61 142 0 98 0 98
-25 98 -14 0 -25 -4 -25 -10z"/>
<path d="M1068 1853 c7 -3 12 -25 12 -59 0 -31 5 -64 10 -75 11 -20 54 -26 80
-9 9 6 17 5 21 -2 4 -6 16 -7 29 -3 16 5 19 10 11 18 -6 6 -11 39 -11 74 l0
63 -31 0 c-28 0 -29 -1 -15 -16 19 -18 22 -94 4 -112 -7 -7 -22 -12 -35 -12
-27 0 -37 29 -31 95 3 44 3 45 -27 44 -16 0 -24 -3 -17 -6z"/>
<path d="M8111 1846 c-13 -7 -34 -11 -47 -8 -35 7 -74 -23 -74 -56 0 -16 5
-33 12 -40 8 -8 8 -15 -1 -26 -7 -8 -11 -23 -10 -33 2 -10 -3 -28 -10 -41 -31
-57 71 -86 140 -39 64 43 48 82 -37 93 -55 6 -75 24 -29 24 31 0 79 45 71 65
-3 8 -9 22 -12 31 -5 12 -1 14 20 8 19 -4 26 -2 26 9 0 21 -22 27 -49 13z
m-35 -51 c8 -31 -1 -55 -20 -55 -18 0 -30 33 -21 60 9 28 33 25 41 -5z m34
-145 c27 -17 -1 -45 -46 -45 -35 0 -39 3 -42 28 -3 25 -1 27 35 27 21 0 45 -5
53 -10z"/>
<path d="M9270 1830 c-17 -4 -21 -8 -12 -14 17 -10 16 -133 0 -139 -7 -3 7 -6
32 -6 34 -1 41 2 32 11 -19 19 -16 114 4 122 45 17 54 9 54 -52 0 -32 -5 -63
-12 -70 -9 -9 -2 -12 33 -12 35 1 40 3 27 11 -14 8 -18 24 -18 74 0 54 -3 66
-20 75 -16 9 -28 7 -52 -4 -37 -19 -36 -19 -40 -3 -2 9 -12 11 -28 7z"/>
<path d="M9512 1830 c-33 -14 -54 -70 -41 -109 13 -36 35 -51 78 -51 43 0 71
31 71 79 0 64 -52 104 -108 81z m62 -32 c19 -27 21 -89 4 -106 -33 -33 -78 6
-78 68 0 59 44 81 74 38z"/>
<path d="M9673 1832 c-22 -3 -33 -22 -13 -22 15 0 13 -127 -2 -133 -7 -3 7 -5
32 -5 25 0 39 2 33 5 -9 3 -13 26 -13 64 0 55 2 59 26 65 17 4 29 2 35 -7 15
-23 10 -96 -7 -113 -14 -15 -11 -16 28 -16 26 0 38 3 30 9 -9 5 -12 26 -10 67
3 58 3 59 33 59 29 0 30 -1 33 -55 3 -43 -1 -57 -14 -67 -16 -11 -12 -13 26
-13 34 0 41 3 32 12 -7 7 -12 38 -12 69 0 39 -5 63 -16 73 -19 20 -22 20 -57
1 -25 -13 -31 -13 -50 0 -20 13 -26 13 -51 0 -34 -18 -34 -18 -38 -2 -2 6 -13
11 -25 9z"/>
<path d="M9973 1832 c-22 -3 -33 -22 -13 -22 6 0 10 -27 10 -60 0 -46 -4 -61
-17 -69 -14 -8 -7 -10 31 -11 42 0 47 2 33 13 -12 9 -17 31 -19 82 -3 66 -4
70 -25 67z"/>
<path d="M10060 1830 c-17 -4 -21 -8 -12 -14 17 -10 16 -133 0 -139 -7 -3 7
-6 32 -6 34 -1 41 2 32 11 -19 19 -16 114 4 122 45 17 54 9 54 -52 0 -32 -5
-63 -12 -70 -9 -9 -2 -12 33 -12 35 1 40 3 27 11 -14 8 -18 24 -18 74 0 54 -3
66 -20 75 -16 9 -28 7 -52 -4 -37 -19 -36 -19 -40 -3 -2 9 -12 11 -28 7z"/>
<path d="M10290 1827 c-29 -14 -40 -47 -16 -47 9 0 16 8 16 20 0 25 45 28 54
4 10 -27 7 -32 -28 -44 -46 -15 -73 -46 -60 -68 9 -13 27 -17 77 -19 37 -1 69
3 72 8 4 5 -1 9 -9 9 -13 0 -16 12 -16 53 0 77 -36 111 -90 84z m44 -134 c-25
-18 -38 -12 -42 19 -3 21 3 28 25 35 25 9 28 8 31 -16 2 -15 -3 -30 -14 -38z"/>
<path d="M10923 1825 c-52 -22 -64 -91 -25 -137 19 -22 85 -24 102 -3 10 12 6
13 -26 8 -40 -7 -64 12 -64 49 0 15 8 18 50 18 46 0 50 2 50 24 0 41 -41 60
-87 41z m55 -27 c3 -15 -4 -18 -32 -18 -38 0 -44 8 -24 28 17 17 52 11 56 -10z"/>
<path d="M11060 1830 c-17 -4 -21 -8 -12 -14 17 -10 16 -133 0 -139 -7 -3 7
-6 32 -6 34 -1 41 2 32 11 -19 19 -16 114 4 122 45 17 54 9 54 -52 0 -32 -5
-63 -12 -70 -9 -9 -2 -12 33 -12 35 1 40 3 27 11 -14 8 -18 24 -18 74 0 54 -3
66 -20 75 -16 9 -28 7 -52 -4 -37 -19 -36 -19 -40 -3 -2 9 -12 11 -28 7z"/>
<path d="M11273 1832 c-22 -3 -33 -22 -13 -22 6 0 10 -27 10 -60 0 -46 -4 -61
-17 -69 -14 -8 -7 -10 31 -11 42 0 47 2 33 13 -12 9 -17 31 -19 82 -3 66 -4
70 -25 67z"/>
<path d="M11493 1832 c-22 -3 -33 -22 -13 -22 6 0 10 -27 10 -60 0 -46 -4 -61
-17 -69 -14 -8 -7 -10 31 -11 42 0 47 2 33 13 -12 9 -17 31 -19 82 -3 66 -4
70 -25 67z"/>
<path d="M11793 1825 c-52 -22 -64 -91 -25 -137 19 -22 85 -24 102 -3 10 12 6
13 -26 8 -40 -7 -64 12 -64 49 0 15 8 18 50 18 46 0 50 2 50 24 0 41 -41 60
-87 41z m55 -27 c3 -15 -4 -18 -32 -18 -38 0 -44 8 -24 28 17 17 52 11 56 -10z"/>
<path d="M11561 1820 c8 -5 28 -41 44 -80 16 -39 33 -69 38 -67 5 1 20 30 34
62 13 33 34 68 45 78 20 17 19 17 -18 17 -26 0 -34 -3 -25 -9 11 -7 11 -16 -4
-55 -10 -25 -21 -46 -25 -46 -4 0 -15 21 -25 46 -15 39 -15 48 -4 55 9 6 -2 9
-31 9 -32 -1 -41 -3 -29 -10z"/>
<path d="M4470 930 c-13 -8 -12 -10 3 -10 13 0 17 -9 17 -39 0 -37 -2 -40 -28
-39 -41 1 -69 -18 -81 -55 -12 -36 -1 -84 22 -99 18 -12 65 -9 73 3 5 8 9 8
14 -1 4 -7 17 -9 35 -4 23 6 25 8 11 16 -13 7 -16 28 -16 123 0 103 -2 115
-17 115 -10 0 -25 -5 -33 -10z m18 -162 c3 -54 2 -58 -23 -64 -37 -9 -55 11
-55 60 0 49 15 68 50 64 23 -3 25 -8 28 -60z"/>
<path d="M6882 915 c-22 -10 -39 -28 -52 -57 -24 -53 -25 -70 -3 -115 13 -28
14 -39 5 -54 -14 -22 0 -26 18 -4 9 11 17 12 30 5 28 -15 103 -12 128 6 49 34
68 126 36 172 -9 13 -13 31 -9 42 7 22 -5 26 -22 9 -8 -8 -17 -8 -31 0 -27 15
-60 13 -100 -4z m88 -20 c14 -16 10 -23 -43 -87 -22 -26 -44 -45 -50 -41 -15
9 -2 101 18 123 21 23 58 26 75 5z m30 -96 c0 -93 -39 -132 -91 -90 l-23 18
49 62 c28 33 53 61 58 61 4 0 7 -23 7 -51z"/>
<path d="M8827 898 c-4 -32 1 -35 18 -11 8 10 32 18 70 21 l59 5 -36 -49 c-71
-97 -118 -167 -118 -176 0 -4 42 -8 94 -8 l94 0 4 30 c5 35 2 37 -20 9 -14
-17 -26 -20 -74 -17 l-56 3 75 103 c41 57 74 105 72 107 -2 1 -43 5 -91 6
l-86 4 -5 -27z"/>
<path d="M2602 913 c13 -3 17 -21 20 -98 4 -115 17 -135 88 -135 37 0 51 5 70
25 21 22 24 38 28 115 4 71 8 90 21 93 9 3 -6 5 -34 5 -39 1 -45 -1 -27 -8 20
-9 22 -16 22 -82 0 -84 -14 -119 -52 -132 -20 -7 -33 -5 -52 8 -25 16 -26 20
-26 110 0 82 2 95 18 99 9 3 -8 5 -38 5 -30 0 -48 -2 -38 -5z"/>
<path d="M2870 840 c-17 -4 -21 -8 -12 -14 17 -10 16 -133 0 -139 -7 -3 7 -6
32 -6 34 -1 41 2 32 11 -19 19 -16 114 4 122 45 17 54 9 54 -52 0 -32 -5 -63
-12 -70 -9 -9 -2 -12 32 -12 36 1 41 3 28 11 -14 8 -18 24 -18 74 0 54 -3 66
-20 75 -16 9 -28 7 -52 -4 -37 -19 -36 -19 -40 -3 -2 9 -12 11 -28 7z"/>
<path d="M3113 835 c-52 -22 -64 -91 -25 -137 19 -22 85 -24 102 -3 10 12 6
13 -26 8 -40 -7 -64 12 -64 49 0 15 8 18 50 18 46 0 50 2 50 24 0 41 -41 60
-87 41z m55 -27 c3 -15 -4 -18 -32 -18 -38 0 -44 8 -24 28 17 17 52 11 56 -10z"/>
<path d="M3476 834 c-14 -7 -26 -9 -26 -3 0 5 -11 9 -25 9 -14 0 -25 -4 -25
-10 0 -5 5 -10 10 -10 6 0 10 -40 10 -101 0 -85 -3 -104 -17 -115 -16 -12 -12
-13 30 -14 26 0 47 5 47 10 0 6 -7 10 -15 10 -10 0 -15 11 -15 35 0 34 1 35
39 35 31 0 44 6 60 26 54 68 -2 165 -73 128z m43 -17 c39 -47 14 -131 -37
-125 -25 3 -27 7 -30 52 -4 67 35 110 67 73z"/>
<path d="M3682 834 c-13 -9 -22 -11 -22 -5 0 6 -11 11 -25 11 -25 0 -33 -14
-15 -25 6 -3 10 -30 10 -60 0 -41 -4 -56 -17 -64 -14 -8 -7 -10 32 -10 39 0
46 2 33 10 -13 7 -18 23 -18 59 0 50 11 67 43 62 10 -2 17 3 17 12 0 23 -15
27 -38 10z"/>
<path d="M3793 835 c-52 -22 -64 -91 -25 -137 19 -22 85 -24 102 -3 10 12 6
13 -26 8 -40 -7 -64 12 -64 49 0 15 8 18 50 18 46 0 50 2 50 24 0 41 -41 60
-87 41z m55 -27 c3 -15 -4 -18 -32 -18 -38 0 -44 8 -24 28 17 17 52 11 56 -10z"/>
<path d="M3944 840 c-46 -18 -40 -59 13 -90 22 -13 33 -26 31 -38 -5 -26 -44
-27 -62 0 l-16 22 0 -27 c0 -25 3 -27 44 -27 77 0 92 60 23 93 -26 12 -37 23
-35 35 4 23 39 28 54 7 8 -11 14 -13 19 -5 14 23 -36 44 -71 30z"/>
<path d="M4094 840 c-46 -18 -40 -59 13 -90 22 -13 33 -26 31 -38 -5 -26 -44
-27 -62 0 l-16 22 0 -27 c0 -25 3 -27 44 -27 77 0 92 60 23 93 -26 12 -37 23
-35 35 4 23 39 28 54 7 8 -11 14 -13 19 -5 14 23 -36 44 -71 30z"/>
<path d="M4253 835 c-52 -22 -64 -91 -25 -137 19 -22 85 -24 102 -3 10 12 6
13 -26 8 -40 -7 -64 12 -64 49 0 15 8 18 50 18 46 0 50 2 50 24 0 41 -41 60
-87 41z m55 -27 c3 -15 -4 -18 -32 -18 -38 0 -44 8 -24 28 17 17 52 11 56 -10z"/>
<path d="M9083 835 c-52 -22 -64 -91 -25 -137 19 -22 85 -24 102 -3 10 12 6
13 -26 8 -40 -7 -64 12 -64 49 0 15 8 18 50 18 46 0 50 2 50 24 0 41 -41 60
-87 41z m55 -27 c3 -15 -4 -18 -32 -18 -38 0 -44 8 -24 28 17 17 52 11 56 -10z"/>
<path d="M9282 834 c-13 -9 -22 -11 -22 -5 0 6 -11 11 -25 11 -25 0 -33 -14
-15 -25 6 -3 10 -30 10 -60 0 -41 -4 -56 -17 -64 -14 -8 -7 -10 32 -10 39 0
46 2 33 10 -13 7 -18 23 -18 59 0 50 11 67 43 62 10 -2 17 3 17 12 0 23 -15
27 -38 10z"/>
<path d="M9392 840 c-33 -14 -54 -70 -41 -109 13 -36 35 -51 78 -51 43 0 71
31 71 79 0 64 -52 104 -108 81z m62 -32 c19 -27 21 -89 4 -106 -33 -33 -78 6
-78 68 0 59 44 81 74 38z"/>
<path d="M3230 827 c9 -7 26 -26 38 -43 l22 -31 -36 -37 -35 -36 30 0 c23 0
28 4 24 18 -7 27 21 47 37 27 7 -8 10 -22 6 -30 -4 -12 3 -15 33 -15 l38 0
-38 41 -38 42 20 26 c11 14 30 31 42 38 20 11 19 12 -18 12 -25 1 -35 -2 -27
-8 10 -6 9 -13 -6 -31 l-19 -24 -12 22 c-7 12 -9 27 -6 32 4 6 -10 10 -32 10
-32 -1 -35 -3 -23 -13z"/>
<path d="M7973 778 c2 -9 29 -13 87 -13 58 0 85 4 88 13 3 9 -19 12 -88 12
-69 0 -91 -3 -87 -12z"/>
<path d="M332 318 l3 -23 6108 -3 6107 -2 0 25 0 25 -6111 0 -6110 0 3 -22z"/>
</g>
</svg>
