<?xml version="1.0" encoding="UTF-8" standalone="no"?>
<!DOCTYPE svg PUBLIC "-//W3C//DTD SVG 1.1//EN" "http://www.w3.org/Graphics/SVG/1.1/DTD/svg11.dtd">
<svg xmlns="http://www.w3.org/2000/svg" xmlns:xlink="http://www.w3.org/1999/xlink" version="1.1" width="310pt" height="300pt" viewBox="0 0 310 300">
<g enable-background="new">
<clipPath id="cp0">
<path transform="matrix(1,0,0,-1,0,300)" d="M 0 0 L 310 0 L 310 300 L 0 300 Z "/>
</clipPath>
<g clip-path="url(#cp0)">
<path transform="matrix(1,0,0,-1,0,300)" d="M 0 0 L 310 0 L 310 300 L 0 300 Z " fill="#ffffff"/>
</g>
<clipPath id="cp1">
<path transform="matrix(1,0,0,-1,0,300)" d="M 8 292.5 L 301.2506 292.5 L 301.2506 7.113861 L 8 7.113861 Z M 8 292.5 "/>
</clipPath>
<g clip-path="url(#cp1)">
<clipPath id="cp2">
<path transform="matrix(1,0,0,-1,0,300)" d="M 0 0 L 310 0 L 310 300 L 0 300 Z "/>
</clipPath>
<g clip-path="url(#cp2)">
<path transform="matrix(1,0,0,-1,0,300)" d="M 153.1312 244.6023 L 179.9026 244.6023 L 179.9026 268.30116 L 153.1312 268.30116 Z " fill="#d5d5d5"/>
<path transform="matrix(1,0,0,-1,0,300)" d="M 179.9026 244.6023 L 207.14258 244.6023 L 207.14258 268.30116 L 179.9026 268.30116 Z " fill="#d5d5d5"/>
<path transform="matrix(1,0,0,-1,0,300)" d="M 153.1312 173.5058 L 179.9026 173.5058 L 179.9026 244.60233 L 153.1312 244.60233 Z " fill="#d5d5d5"/>
<path transform="matrix(1,0,0,-1,0,300)" d="M 179.9026 220.9035 L 207.14258 220.9035 L 207.14258 244.60234 L 179.9026 244.60234 Z " fill="#d5d5d5"/>
<path transform="matrix(1,0,0,-1,0,300)" d="M 179.9026 197.2046 L 207.14258 197.2046 L 207.14258 220.90345 L 179.9026 220.90345 Z " fill="#d5d5d5"/>
<path transform="matrix(1,0,0,-1,0,300)" d="M 179.9026 173.5058 L 207.14258 173.5058 L 207.14258 197.20464 L 179.9026 197.20464 Z " fill="#d5d5d5"/>
<path transform="matrix(1,0,0,-1,0,300)" d="M 153.1312 126.1081 L 179.9026 126.1081 L 179.9026 173.5058 L 153.1312 173.5058 Z " fill="#d5d5d5"/>
<path transform="matrix(1,0,0,-1,0,300)" d="M 179.9026 149.8069 L 207.14258 149.8069 L 207.14258 173.50574 L 179.9026 173.50574 Z " fill="#d5d5d5"/>
<path transform="matrix(1,0,0,-1,0,300)" d="M 179.9026 126.1081 L 207.14258 126.1081 L 207.14258 149.80695 L 179.9026 149.80695 Z " fill="#d5d5d5"/>
<path transform="matrix(1,0,0,-1,0,300)" d="M 153.1312 78.7104 L 179.9026 78.7104 L 179.9026 126.10809 L 153.1312 126.10809 Z " fill="#d5d5d5"/>
<path transform="matrix(1,0,0,-1,0,300)" d="M 179.9026 102.4092 L 207.14258 102.4092 L 207.14258 126.10804 L 179.9026 126.10804 Z " fill="#d5d5d5"/>
<path transform="matrix(1,0,0,-1,0,300)" d="M 179.9026 78.7104 L 207.14258 78.7104 L 207.14258 102.40924 L 179.9026 102.40924 Z " fill="#d5d5d5"/>
<path transform="matrix(1,0,0,-1,0,300)" d="M 153.1312 31.31271 L 179.9026 31.31271 L 179.9026 78.7104 L 153.1312 78.7104 Z " fill="#d5d5d5"/>
<path transform="matrix(1,0,0,-1,0,300)" d="M 179.9026 55.01155 L 207.14258 55.01155 L 207.14258 78.71039 L 179.9026 78.71039 Z " fill="#d5d5d5"/>
<path transform="matrix(1,0,0,-1,0,300)" d="M 179.9026 31.31271 L 207.14258 31.31271 L 207.14258 55.01155 L 179.9026 55.01155 Z " fill="#d5d5d5"/>
<path transform="matrix(1,0,0,-1,0,300)" d="M 153.1312 7.613861 L 179.9026 7.613861 L 179.9026 31.3127 L 153.1312 31.3127 Z " fill="#d5d5d5"/>
<path transform="matrix(1,0,0,-1,0,300)" d="M 179.9026 7.613861 L 207.14258 7.613861 L 207.14258 31.3127 L 179.9026 31.3127 Z " fill="#d5d5d5"/>
</g>
</g>
<clipPath id="cp3">
<path transform="matrix(1,0,0,-1,0,300)" d="M 8 292.5 L 301.2506 292.5 L 301.2506 7.113861 L 8 7.113861 Z M 8 292.5 "/>
</clipPath>
<g clip-path="url(#cp3)">
<clipPath id="cp4">
<path transform="matrix(1,0,0,-1,0,300)" d="M 8 268.8012 L 179.9026 268.8012 L 179.9026 291.50007 L 8 291.50007 Z "/>
</clipPath>
<g clip-path="url(#cp4)">
<path transform="matrix(1,0,0,-1,0,300)" d="M 12 268.5 L 175.9026 268.5 L 175.9026 284.5 L 12 284.5 Z " fill-opacity="0"/>
<text xml:space="preserve" transform="matrix(1 0 -0 1 49 23)" font-size="9" font-family="LinLibertineO"><tspan y="0" x="0 6.2550008 9.603001 13.716001 20.736 27.756 31.869 34.713 37.152 40.959 45.072 47.447999 49.697999 57.249 61.362 65.169 68.445 72.981 76.257 80.79301 83.16901 87.19201">Grammatical Macroroles</tspan></text>
</g>
</g>
<clipPath id="cp5">
<path transform="matrix(1,0,0,-1,0,300)" d="M 8 292.5 L 301.2506 292.5 L 301.2506 7.113861 L 8 7.113861 Z M 8 292.5 "/>
</clipPath>
<g clip-path="url(#cp5)">
<clipPath id="cp6">
<path transform="matrix(1,0,0,-1,0,300)" d="M 179.9026 268.8012 L 301.2506 268.8012 L 301.2506 291.50007 L 179.9026 291.50007 Z "/>
</clipPath>
<g clip-path="url(#cp6)">
<path transform="matrix(1,0,0,-1,0,300)" d="M 183.9026 268.5 L 297.2506 268.5 L 297.2506 284.5 L 183.9026 284.5 Z " fill-opacity="0"/>
<text xml:space="preserve" transform="matrix(1 0 -0 1 194 23)" font-size="9" font-family="LinLibertineO"><tspan y="0" x="0 6.2550008 9.603001 13.716001 20.736 27.756 31.869 34.713 37.152 40.959 45.072 47.447999 49.697999 54.639 59.049 63.72 66.996 71.019008 74.466 77.913 80.352008 84.88801 89.712009">Grammatical Expressions</tspan></text>
</g>
</g>
<clipPath id="cp7">
<path transform="matrix(1,0,0,-1,0,300)" d="M 8 292.5 L 301.2506 292.5 L 301.2506 7.113861 L 8 7.113861 Z M 8 292.5 "/>
</clipPath>
<g clip-path="url(#cp7)">
<clipPath id="cp8">
<path transform="matrix(1,0,0,-1,0,300)" d="M 8 78.8354 L 58.26878 78.8354 L 58.26878 267.8012 L 8 267.8012 Z "/>
</clipPath>
<g clip-path="url(#cp8)">
<path transform="matrix(1,0,0,-1,0,300)" d="M 12 167.8012 L 54.26878 167.8012 L 54.26878 177.8012 L 12 177.8012 Z " fill-opacity="0"/>
<text xml:space="preserve" transform="matrix(1 0 -0 1 12 130)" font-size="9" font-family="LinLibertineO"><tspan y="0" x="0 6.2550008 9.621 14.121 18.846 25.866002 29.889002 34.713 37.557004">Arguments</tspan></text>
</g>
</g>
<clipPath id="cp9">
<path transform="matrix(1,0,0,-1,0,300)" d="M 8 292.5 L 301.2506 292.5 L 301.2506 7.113861 L 8 7.113861 Z M 8 292.5 "/>
</clipPath>
<g clip-path="url(#cp9)">
<clipPath id="cp10">
<path transform="matrix(1,0,0,-1,0,300)" d="M 58.26878 244.7273 L 95.57594 244.7273 L 95.57594 267.80116 L 58.26878 267.80116 Z "/>
</clipPath>
<g clip-path="url(#cp10)">
<path transform="matrix(1,0,0,-1,0,300)" d="M 62.26878 244.8012 L 91.57594 244.8012 L 91.57594 260.8012 L 62.26878 260.8012 Z " fill-opacity="0"/>
<text xml:space="preserve" transform="matrix(1 0 -0 1 62 47)" font-size="9" font-family="LinLibertineO"><tspan y="0" x="0 4.3650004 9.09 13.527 15.975 20.061 23.868">Subject</tspan></text>
</g>
</g>
<clipPath id="cp11">
<path transform="matrix(1,0,0,-1,0,300)" d="M 8 292.5 L 301.2506 292.5 L 301.2506 7.113861 L 8 7.113861 Z M 8 292.5 "/>
</clipPath>
<g clip-path="url(#cp11)">
<clipPath id="cp12">
<path transform="matrix(1,0,0,-1,0,300)" d="M 153.1312 244.7273 L 179.9026 244.7273 L 179.9026 267.80116 L 153.1312 267.80116 Z "/>
</clipPath>
<g clip-path="url(#cp12)">
<path transform="matrix(1,0,0,-1,0,300)" d="M 157.1312 244.8012 L 175.9026 244.8012 L 175.9026 260.8012 L 157.1312 260.8012 Z " fill-opacity="0"/>
<text xml:space="preserve" transform="matrix(1 0 -0 1 160 47)" font-size="9" font-family="LinLibertineOB" font-weight="bold"><tspan y="0" x="0 4.275 9.855">SBJ</tspan></text>
</g>
</g>
<clipPath id="cp13">
<path transform="matrix(1,0,0,-1,0,300)" d="M 8 292.5 L 301.2506 292.5 L 301.2506 7.113861 L 8 7.113861 Z M 8 292.5 "/>
</clipPath>
<g clip-path="url(#cp13)">
<clipPath id="cp14">
<path transform="matrix(1,0,0,-1,0,300)" d="M 179.9026 244.7273 L 207.14258 244.7273 L 207.14258 267.80116 L 179.9026 267.80116 Z "/>
</clipPath>
<g clip-path="url(#cp14)">
<path transform="matrix(1,0,0,-1,0,300)" d="M 183.9026 244.8012 L 203.14258 244.8012 L 203.14258 260.8012 L 183.9026 260.8012 Z " fill-opacity="0"/>
<text xml:space="preserve" transform="matrix(1 0 -0 1 190 47)" font-size="9" font-family="LinLibertineOB" font-weight="bold"><tspan y="0" x="0">N</tspan></text>
</g>
</g>
<clipPath id="cp15">
<path transform="matrix(1,0,0,-1,0,300)" d="M 8 292.5 L 301.2506 292.5 L 301.2506 7.113861 L 8 7.113861 Z M 8 292.5 "/>
</clipPath>
<g clip-path="url(#cp15)">
<clipPath id="cp16">
<path transform="matrix(1,0,0,-1,0,300)" d="M 207.1426 244.7273 L 301.2506 244.7273 L 301.2506 267.80116 L 207.1426 267.80116 Z "/>
</clipPath>
<g clip-path="url(#cp16)">
<path transform="matrix(1,0,0,-1,0,300)" d="M 211.1426 244.8012 L 297.2506 244.8012 L 297.2506 260.8012 L 211.1426 260.8012 Z " fill-opacity="0"/>
<text xml:space="preserve" transform="matrix(1 0 -0 1 211 47)" font-size="9" font-family="LinLibertineO"><tspan y="0" x="0 6.2910006 10.827001 17.847 20.286 25.11 29.223 32.067 34.506 38.907 42.93 45.18 49.545003 54.270006 58.707006 61.155008 65.24101 69.04801">Nominative Subject</tspan></text>
</g>
</g>
<clipPath id="cp17">
<path transform="matrix(1,0,0,-1,0,300)" d="M 8 292.5 L 301.2506 292.5 L 301.2506 7.113861 L 8 7.113861 Z M 8 292.5 "/>
</clipPath>
<g clip-path="url(#cp17)">
<clipPath id="cp18">
<path transform="matrix(1,0,0,-1,0,300)" d="M 58.26878 78.8354 L 95.57594 78.8354 L 95.57594 244.47731 L 58.26878 244.47731 Z "/>
</clipPath>
<g clip-path="url(#cp18)">
<path transform="matrix(1,0,0,-1,0,300)" d="M 62.26878 156.4773 L 91.57594 156.4773 L 91.57594 166.4773 L 62.26878 166.4773 Z " fill-opacity="0"/>
<text xml:space="preserve" transform="matrix(1 0 -0 1 62 141)" font-size="9" font-family="LinLibertineO"><tspan y="0" x="0 6.3180005 10.755001 13.203001 17.289002 21.096 23.94">Objects</tspan></text>
</g>
</g>
<clipPath id="cp19">
<path transform="matrix(1,0,0,-1,0,300)" d="M 8 292.5 L 301.2506 292.5 L 301.2506 7.113861 L 8 7.113861 Z M 8 292.5 "/>
</clipPath>
<g clip-path="url(#cp19)">
<clipPath id="cp20">
<path transform="matrix(1,0,0,-1,0,300)" d="M 95.57595 173.6308 L 153.1312 173.6308 L 153.1312 244.47733 L 95.57595 244.47733 Z "/>
</clipPath>
<g clip-path="url(#cp20)">
<path transform="matrix(1,0,0,-1,0,300)" d="M 99.57595 198.4773 L 149.1312 198.4773 L 149.1312 218.4773 L 99.57595 218.4773 Z " fill-opacity="0"/>
<text xml:space="preserve" transform="matrix(1 0 -0 1 100 89)" font-size="9" font-family="LinLibertineO"><tspan y="0" x="0 5.814 9.927 13.374001 17.442002 21.996003">Cased </tspan></text>
<text xml:space="preserve" transform="matrix(1 0 -0 1 100 89)" font-size="9" font-family="LucidaGrande"><tspan y="0" x="24.246">&#x2028;</tspan></text>
<text xml:space="preserve" transform="matrix(1 0 -0 1 100 99)" font-size="9" font-family="LinLibertineO"><tspan y="0" x="0 6.3180005 10.755001 13.203001 17.289002 21.096 23.94">Objects</tspan></text>
</g>
</g>
<clipPath id="cp21">
<path transform="matrix(1,0,0,-1,0,300)" d="M 8 292.5 L 301.2506 292.5 L 301.2506 7.113861 L 8 7.113861 Z M 8 292.5 "/>
</clipPath>
<g clip-path="url(#cp21)">
<clipPath id="cp22">
<path transform="matrix(1,0,0,-1,0,300)" d="M 153.1312 173.6308 L 179.9026 173.6308 L 179.9026 244.47733 L 153.1312 244.47733 Z "/>
</clipPath>
<g clip-path="url(#cp22)">
<path transform="matrix(1,0,0,-1,0,300)" d="M 157.1312 203.4773 L 175.9026 203.4773 L 175.9026 213.4773 L 157.1312 213.4773 Z " fill-opacity="0"/>
<text xml:space="preserve" transform="matrix(1 0 -0 1 159 94)" font-size="9" font-family="LinLibertineOB" font-weight="bold"><tspan y="0" x="0 6.57 12.15">OBJ</tspan></text>
</g>
</g>
<clipPath id="cp23">
<path transform="matrix(1,0,0,-1,0,300)" d="M 8 292.5 L 301.2506 292.5 L 301.2506 7.113861 L 8 7.113861 Z M 8 292.5 "/>
</clipPath>
<g clip-path="url(#cp23)">
<clipPath id="cp24">
<path transform="matrix(1,0,0,-1,0,300)" d="M 179.9026 221.0285 L 207.14258 221.0285 L 207.14258 244.47734 L 179.9026 244.47734 Z "/>
</clipPath>
<g clip-path="url(#cp24)">
<path transform="matrix(1,0,0,-1,0,300)" d="M 183.9026 221.4773 L 203.14258 221.4773 L 203.14258 237.4773 L 183.9026 237.4773 Z " fill-opacity="0"/>
<text xml:space="preserve" transform="matrix(1 0 -0 1 190 70)" font-size="9" font-family="LinLibertineOB" font-weight="bold"><tspan y="0" x="0">A</tspan></text>
</g>
</g>
<clipPath id="cp25">
<path transform="matrix(1,0,0,-1,0,300)" d="M 8 292.5 L 301.2506 292.5 L 301.2506 7.113861 L 8 7.113861 Z M 8 292.5 "/>
</clipPath>
<g clip-path="url(#cp25)">
<clipPath id="cp26">
<path transform="matrix(1,0,0,-1,0,300)" d="M 207.1426 221.0285 L 301.2506 221.0285 L 301.2506 244.47734 L 207.1426 244.47734 Z "/>
</clipPath>
<g clip-path="url(#cp26)">
<path transform="matrix(1,0,0,-1,0,300)" d="M 211.1426 221.4773 L 297.2506 221.4773 L 297.2506 237.4773 L 211.1426 237.4773 Z " fill-opacity="0"/>
<text xml:space="preserve" transform="matrix(1 0 -0 1 211 70)" font-size="9" font-family="LinLibertineO"><tspan y="0" x="0 6.147001 9.954 13.761001 18.486 21.933 26.046002 28.890002 31.329003 35.730005 39.753004 42.003004 48.321004 52.758005 55.206007 59.292005 63.099004">Accusative Object</tspan></text>
</g>
</g>
<clipPath id="cp27">
<path transform="matrix(1,0,0,-1,0,300)" d="M 8 292.5 L 301.2506 292.5 L 301.2506 7.113861 L 8 7.113861 Z M 8 292.5 "/>
</clipPath>
<g clip-path="url(#cp27)">
<clipPath id="cp28">
<path transform="matrix(1,0,0,-1,0,300)" d="M 179.9026 197.3296 L 207.14258 197.3296 L 207.14258 220.77845 L 179.9026 220.77845 Z "/>
</clipPath>
<g clip-path="url(#cp28)">
<path transform="matrix(1,0,0,-1,0,300)" d="M 183.9026 197.7785 L 203.14258 197.7785 L 203.14258 213.7785 L 183.9026 213.7785 Z " fill-opacity="0"/>
<text xml:space="preserve" transform="matrix(1 0 -0 1 190 94)" font-size="9" font-family="LinLibertineOB" font-weight="bold"><tspan y="0" x="0">D</tspan></text>
</g>
</g>
<clipPath id="cp29">
<path transform="matrix(1,0,0,-1,0,300)" d="M 8 292.5 L 301.2506 292.5 L 301.2506 7.113861 L 8 7.113861 Z M 8 292.5 "/>
</clipPath>
<g clip-path="url(#cp29)">
<clipPath id="cp30">
<path transform="matrix(1,0,0,-1,0,300)" d="M 207.1426 197.3296 L 301.2506 197.3296 L 301.2506 220.77845 L 207.1426 220.77845 Z "/>
</clipPath>
<g clip-path="url(#cp30)">
<path transform="matrix(1,0,0,-1,0,300)" d="M 211.1426 197.7785 L 297.2506 197.7785 L 297.2506 213.7785 L 211.1426 213.7785 Z " fill-opacity="0"/>
<text xml:space="preserve" transform="matrix(1 0 -0 1 211 94)" font-size="9" font-family="LinLibertineO"><tspan y="0" x="0 6.3540008 10.467001 13.311001 15.750001 20.151001 24.174002 26.424002 32.742 37.179 39.627004 43.713 47.52">Dative Object</tspan></text>
</g>
</g>
<clipPath id="cp31">
<path transform="matrix(1,0,0,-1,0,300)" d="M 8 292.5 L 301.2506 292.5 L 301.2506 7.113861 L 8 7.113861 Z M 8 292.5 "/>
</clipPath>
<g clip-path="url(#cp31)">
<clipPath id="cp32">
<path transform="matrix(1,0,0,-1,0,300)" d="M 179.9026 173.6308 L 207.14258 173.6308 L 207.14258 197.07964 L 179.9026 197.07964 Z "/>
</clipPath>
<g clip-path="url(#cp32)">
<path transform="matrix(1,0,0,-1,0,300)" d="M 183.9026 174.0796 L 203.14258 174.0796 L 203.14258 190.0796 L 183.9026 190.0796 Z " fill-opacity="0"/>
<text xml:space="preserve" transform="matrix(1 0 -0 1 190 118)" font-size="9" font-family="LinLibertineOB" font-weight="bold"><tspan y="0" x="0">G</tspan></text>
</g>
</g>
<clipPath id="cp33">
<path transform="matrix(1,0,0,-1,0,300)" d="M 8 292.5 L 301.2506 292.5 L 301.2506 7.113861 L 8 7.113861 Z M 8 292.5 "/>
</clipPath>
<g clip-path="url(#cp33)">
<clipPath id="cp34">
<path transform="matrix(1,0,0,-1,0,300)" d="M 207.1426 173.6308 L 301.2506 173.6308 L 301.2506 197.07964 L 207.1426 197.07964 Z "/>
</clipPath>
<g clip-path="url(#cp34)">
<path transform="matrix(1,0,0,-1,0,300)" d="M 211.1426 174.0796 L 297.2506 174.0796 L 297.2506 190.0796 L 211.1426 190.0796 Z " fill-opacity="0"/>
<text xml:space="preserve" transform="matrix(1 0 -0 1 211 118)" font-size="9" font-family="LinLibertineO"><tspan y="0" x="0 6.2550008 10.278001 15.102001 17.541 20.385 22.824002 27.225 31.248002 33.498 39.816 44.253004 46.701005 50.787004 54.594">Genitive Object</tspan></text>
</g>
</g>
<clipPath id="cp35">
<path transform="matrix(1,0,0,-1,0,300)" d="M 8 292.5 L 301.2506 292.5 L 301.2506 7.113861 L 8 7.113861 Z M 8 292.5 "/>
</clipPath>
<g clip-path="url(#cp35)">
<clipPath id="cp36">
<path transform="matrix(1,0,0,-1,0,300)" d="M 95.57595 126.2331 L 153.1312 126.2331 L 153.1312 173.3808 L 95.57595 173.3808 Z "/>
</clipPath>
<g clip-path="url(#cp36)">
<path transform="matrix(1,0,0,-1,0,300)" d="M 99.57595 139.3808 L 149.1312 139.3808 L 149.1312 159.3808 L 99.57595 159.3808 Z " fill-opacity="0"/>
<text xml:space="preserve" transform="matrix(1 0 -0 1 100 148)" font-size="9" font-family="LinLibertineO"><tspan y="0" x="0 4.7790005 8.055001 12.078001 16.812 21.348 24.795 27.234002 30.078001 32.517004 37.053 41.877004 45.99 48.366">Prepositional </tspan></text>
<text xml:space="preserve" transform="matrix(1 0 -0 1 100 158)" font-size="9" font-family="LinLibertineO"><tspan y="0" x="0 6.3180005 10.755001 13.203001 17.289002 21.096 23.94">Objects</tspan></text>
</g>
</g>
<clipPath id="cp37">
<path transform="matrix(1,0,0,-1,0,300)" d="M 8 292.5 L 301.2506 292.5 L 301.2506 7.113861 L 8 7.113861 Z M 8 292.5 "/>
</clipPath>
<g clip-path="url(#cp37)">
<clipPath id="cp38">
<path transform="matrix(1,0,0,-1,0,300)" d="M 153.1312 126.2331 L 179.9026 126.2331 L 179.9026 173.3808 L 153.1312 173.3808 Z "/>
</clipPath>
<g clip-path="url(#cp38)">
<path transform="matrix(1,0,0,-1,0,300)" d="M 157.1312 144.3808 L 175.9026 144.3808 L 175.9026 154.3808 L 157.1312 154.3808 Z " fill-opacity="0"/>
<text xml:space="preserve" transform="matrix(1 0 -0 1 159 153)" font-size="9" font-family="LinLibertineOB" font-weight="bold"><tspan y="0" x="0 5.2110006 10.791">PBJ</tspan></text>
</g>
</g>
<clipPath id="cp39">
<path transform="matrix(1,0,0,-1,0,300)" d="M 8 292.5 L 301.2506 292.5 L 301.2506 7.113861 L 8 7.113861 Z M 8 292.5 "/>
</clipPath>
<g clip-path="url(#cp39)">
<clipPath id="cp40">
<path transform="matrix(1,0,0,-1,0,300)" d="M 179.9026 149.9319 L 207.14258 149.9319 L 207.14258 173.38074 L 179.9026 173.38074 Z "/>
</clipPath>
<g clip-path="url(#cp40)">
<path transform="matrix(1,0,0,-1,0,300)" d="M 183.9026 150.3808 L 203.14258 150.3808 L 203.14258 166.3808 L 183.9026 166.3808 Z " fill-opacity="0"/>
<text xml:space="preserve" transform="matrix(1 0 -0 1 191 141)" font-size="9" font-family="LinLibertineOB" font-weight="bold"><tspan y="0" x="0">P</tspan></text>
</g>
</g>
<clipPath id="cp41">
<path transform="matrix(1,0,0,-1,0,300)" d="M 8 292.5 L 301.2506 292.5 L 301.2506 7.113861 L 8 7.113861 Z M 8 292.5 "/>
</clipPath>
<g clip-path="url(#cp41)">
<clipPath id="cp42">
<path transform="matrix(1,0,0,-1,0,300)" d="M 207.1426 149.9319 L 301.2506 149.9319 L 301.2506 173.38074 L 207.1426 173.38074 Z "/>
</clipPath>
<g clip-path="url(#cp42)">
<path transform="matrix(1,0,0,-1,0,300)" d="M 211.1426 150.3808 L 297.2506 150.3808 L 297.2506 166.3808 L 211.1426 166.3808 Z " fill-opacity="0"/>
<text xml:space="preserve" transform="matrix(1 0 -0 1 211 141)" font-size="9" font-family="LinLibertineO"><tspan y="0" x="0 6.2550008 10.728001 15.129001 19.152 22.518 27.342 31.41 35.964 38.214 42.993 46.269 50.292 55.026 59.562 63.009 65.448 68.292 70.731 75.267009">Governed Preposition</tspan></text>
</g>
</g>
<clipPath id="cp43">
<path transform="matrix(1,0,0,-1,0,300)" d="M 8 292.5 L 301.2506 292.5 L 301.2506 7.113861 L 8 7.113861 Z M 8 292.5 "/>
</clipPath>
<g clip-path="url(#cp43)">
<clipPath id="cp44">
<path transform="matrix(1,0,0,-1,0,300)" d="M 179.9026 126.2331 L 207.14258 126.2331 L 207.14258 149.68195 L 179.9026 149.68195 Z "/>
</clipPath>
<g clip-path="url(#cp44)">
<path transform="matrix(1,0,0,-1,0,300)" d="M 183.9026 126.6819 L 203.14258 126.6819 L 203.14258 142.6819 L 183.9026 142.6819 Z " fill-opacity="0"/>
<text xml:space="preserve" transform="matrix(1 0 -0 1 191 165)" font-size="9" font-family="LinLibertineOB" font-weight="bold"><tspan y="0" x="0">L</tspan></text>
</g>
</g>
<clipPath id="cp45">
<path transform="matrix(1,0,0,-1,0,300)" d="M 8 292.5 L 301.2506 292.5 L 301.2506 7.113861 L 8 7.113861 Z M 8 292.5 "/>
</clipPath>
<g clip-path="url(#cp45)">
<clipPath id="cp46">
<path transform="matrix(1,0,0,-1,0,300)" d="M 207.1426 126.2331 L 301.2506 126.2331 L 301.2506 149.68195 L 207.1426 149.68195 Z "/>
</clipPath>
<g clip-path="url(#cp46)">
<path transform="matrix(1,0,0,-1,0,300)" d="M 211.1426 126.6819 L 297.2506 126.6819 L 297.2506 142.6819 L 211.1426 142.6819 Z " fill-opacity="0"/>
<text xml:space="preserve" transform="matrix(1 0 -0 1 211 165)" font-size="9" font-family="LinLibertineO"><tspan y="0" x="0 6.3180005 10.755001 13.1310009 15.570001 20.025 24.138 26.982 31.518002 34.956 39.627004 41.877004 46.611005 51.210004 55.017004 59.13 61.974004 64.413 68.949008">Obligatory Location</tspan></text>
</g>
</g>
<clipPath id="cp47">
<path transform="matrix(1,0,0,-1,0,300)" d="M 8 292.5 L 301.2506 292.5 L 301.2506 7.113861 L 8 7.113861 Z M 8 292.5 "/>
</clipPath>
<g clip-path="url(#cp47)">
<clipPath id="cp48">
<path transform="matrix(1,0,0,-1,0,300)" d="M 95.57595 78.8354 L 153.1312 78.8354 L 153.1312 125.98309 L 95.57595 125.98309 Z "/>
</clipPath>
<g clip-path="url(#cp48)">
<path transform="matrix(1,0,0,-1,0,300)" d="M 99.57595 91.98309 L 149.1312 91.98309 L 149.1312 111.98309 L 99.57595 111.98309 Z " fill-opacity="0"/>
<text xml:space="preserve" transform="matrix(1 0 -0 1 100 196)" font-size="9" font-family="LinLibertineO"><tspan y="0" x="0 5.283">Re</tspan></text>
<text xml:space="preserve" transform="matrix(1 0 -0 1 100 196)" font-size="9" font-family="LinLibertineO"><tspan y="0" x="9.306">&#xfb02;</tspan></text>
<text xml:space="preserve" transform="matrix(1 0 -0 1 100 196)" font-size="9" font-family="LinLibertineO"><tspan y="0" x="14.166 18.126002 22.536002 24.975003 29.376002 33.399003">exive </tspan></text>
<text xml:space="preserve" transform="matrix(1 0 -0 1 100 196)" font-size="32" font-family="LinLibertineO"><tspan y="0" x="35.649"> </tspan></text>
<text xml:space="preserve" transform="matrix(1 0 -0 1 100 206)" font-size="9" font-family="LinLibertineO"><tspan y="0" x="0 6.3180005 10.755001 13.203001 17.289002 21.096 23.94">Objects</tspan></text>
</g>
</g>
<clipPath id="cp49">
<path transform="matrix(1,0,0,-1,0,300)" d="M 8 292.5 L 301.2506 292.5 L 301.2506 7.113861 L 8 7.113861 Z M 8 292.5 "/>
</clipPath>
<g clip-path="url(#cp49)">
<clipPath id="cp50">
<path transform="matrix(1,0,0,-1,0,300)" d="M 179.9026 102.5342 L 207.14258 102.5342 L 207.14258 125.98304 L 179.9026 125.98304 Z "/>
</clipPath>
<g clip-path="url(#cp50)">
<path transform="matrix(1,0,0,-1,0,300)" d="M 183.9026 102.9831 L 203.14258 102.9831 L 203.14258 118.9831 L 183.9026 118.9831 Z " fill-opacity="0"/>
<text xml:space="preserve" transform="matrix(1 0 -0 1 191 189)" font-size="9" font-family="LinLibertineOB" font-weight="bold"><tspan y="0" x="0">a</tspan></text>
</g>
</g>
<clipPath id="cp51">
<path transform="matrix(1,0,0,-1,0,300)" d="M 8 292.5 L 301.2506 292.5 L 301.2506 7.113861 L 8 7.113861 Z M 8 292.5 "/>
</clipPath>
<g clip-path="url(#cp51)">
<clipPath id="cp52">
<path transform="matrix(1,0,0,-1,0,300)" d="M 207.1426 102.5342 L 301.2506 102.5342 L 301.2506 125.98304 L 207.1426 125.98304 Z "/>
</clipPath>
<g clip-path="url(#cp52)">
<path transform="matrix(1,0,0,-1,0,300)" d="M 209.1426 102.9831 L 299.2506 102.9831 L 299.2506 123.9831 L 209.1426 123.9831 Z " fill-opacity="0"/>
<text xml:space="preserve" transform="matrix(1 0 -0 1 213 184)" font-size="9" font-family="LinLibertineO"><tspan y="0" x="0 6.147001 9.954 13.761001 18.486 21.933 26.046002 28.890002 31.329003 35.730005 39.753004 42.003004 47.286005 51.309003 54.099004 58.122 61.398004 65.421009 70.245 73.089008 75.52801 79.64101 82.017009">Accusative Referential </tspan></text>
<text xml:space="preserve" transform="matrix(1 0 -0 1 219 194)" font-size="9" font-family="LinLibertineO"><tspan y="0" x="0 5.283">Re</tspan></text>
<text xml:space="preserve" transform="matrix(1 0 -0 1 219 194)" font-size="9" font-family="LinLibertineO"><tspan y="0" x="9.306">&#xfb02;</tspan></text>
<text xml:space="preserve" transform="matrix(1 0 -0 1 219 194)" font-size="9" font-family="LinLibertineO"><tspan y="0" x="14.166 18.126002 22.536002 24.975003 29.376002 33.399003 35.649003 40.428 43.704004 48.24 53.064004 57.600004 62.325006">exive Pronoun</tspan></text>
</g>
</g>
<clipPath id="cp53">
<path transform="matrix(1,0,0,-1,0,300)" d="M 8 292.5 L 301.2506 292.5 L 301.2506 7.113861 L 8 7.113861 Z M 8 292.5 "/>
</clipPath>
<g clip-path="url(#cp53)">
<clipPath id="cp54">
<path transform="matrix(1,0,0,-1,0,300)" d="M 179.9026 78.8354 L 207.14258 78.8354 L 207.14258 102.28424 L 179.9026 102.28424 Z "/>
</clipPath>
<g clip-path="url(#cp54)">
<path transform="matrix(1,0,0,-1,0,300)" d="M 183.9026 79.28424 L 203.14258 79.28424 L 203.14258 95.28424 L 183.9026 95.28424 Z " fill-opacity="0"/>
<text xml:space="preserve" transform="matrix(1 0 -0 1 191 213)" font-size="9" font-family="LinLibertineOB" font-weight="bold"><tspan y="0" x="0">d</tspan></text>
</g>
</g>
<clipPath id="cp55">
<path transform="matrix(1,0,0,-1,0,300)" d="M 8 292.5 L 301.2506 292.5 L 301.2506 7.113861 L 8 7.113861 Z M 8 292.5 "/>
</clipPath>
<g clip-path="url(#cp55)">
<clipPath id="cp56">
<path transform="matrix(1,0,0,-1,0,300)" d="M 207.1426 78.8354 L 301.2506 78.8354 L 301.2506 102.28424 L 207.1426 102.28424 Z "/>
</clipPath>
<g clip-path="url(#cp56)">
<path transform="matrix(1,0,0,-1,0,300)" d="M 209.1426 79.28424 L 299.2506 79.28424 L 299.2506 100.28424 L 209.1426 100.28424 Z " fill-opacity="0"/>
<text xml:space="preserve" transform="matrix(1 0 -0 1 213 208)" font-size="9" font-family="LinLibertineO"><tspan y="0" x="0 6.3540008 10.467001 13.311001 15.750001 20.151001 24.174002 26.424002 31.707 35.73 38.52 42.543 45.819 49.842 54.666 57.510004 59.949 64.062007 66.438">Dative Referential </tspan></text>
<text xml:space="preserve" transform="matrix(1 0 -0 1 219 218)" font-size="9" font-family="LinLibertineO"><tspan y="0" x="0 5.283">Re</tspan></text>
<text xml:space="preserve" transform="matrix(1 0 -0 1 219 218)" font-size="9" font-family="LinLibertineO"><tspan y="0" x="9.306">&#xfb02;</tspan></text>
<text xml:space="preserve" transform="matrix(1 0 -0 1 219 218)" font-size="9" font-family="LinLibertineO"><tspan y="0" x="14.166 18.126002 22.536002 24.975003 29.376002 33.399003 35.649003 40.428 43.704004 48.24 53.064004 57.600004 62.325006">exive Pronoun</tspan></text>
</g>
</g>
<clipPath id="cp57">
<path transform="matrix(1,0,0,-1,0,300)" d="M 8 292.5 L 301.2506 292.5 L 301.2506 7.113861 L 8 7.113861 Z M 8 292.5 "/>
</clipPath>
<g clip-path="url(#cp57)">
<clipPath id="cp58">
<path transform="matrix(1,0,0,-1,0,300)" d="M 8 8.113861 L 58.26878 8.113861 L 58.26878 78.58539 L 8 78.58539 Z "/>
</clipPath>
<g clip-path="url(#cp58)">
<path transform="matrix(1,0,0,-1,0,300)" d="M 12 38.5854 L 54.26878 38.5854 L 54.26878 48.5854 L 12 48.5854 Z " fill-opacity="0"/>
<text xml:space="preserve" transform="matrix(1 0 -0 1 12 259)" font-size="9" font-family="LinLibertineO"><tspan y="0" x="0 6.147001 10.701001 13.149001 17.874 22.698002 26.505002 29.349">Adjuncts</tspan></text>
</g>
</g>
<clipPath id="cp59">
<path transform="matrix(1,0,0,-1,0,300)" d="M 8 292.5 L 301.2506 292.5 L 301.2506 7.113861 L 8 7.113861 Z M 8 292.5 "/>
</clipPath>
<g clip-path="url(#cp59)">
<clipPath id="cp60">
<path transform="matrix(1,0,0,-1,0,300)" d="M 58.26878 31.43771 L 153.1312 31.43771 L 153.1312 78.5854 L 58.26878 78.5854 Z "/>
</clipPath>
<g clip-path="url(#cp60)">
<path transform="matrix(1,0,0,-1,0,300)" d="M 62.26878 49.5854 L 149.1312 49.5854 L 149.1312 59.5854 L 62.26878 59.5854 Z " fill-opacity="0"/>
<text xml:space="preserve" transform="matrix(1 0 -0 1 62 248)" font-size="9" font-family="LinLibertineO"><tspan y="0" x="0 4.941 9.351 14.022 17.298 21.321002 24.768002 28.215003 32.283 36.837">Expressed </tspan></text>
</g>
</g>
<clipPath id="cp61">
<path transform="matrix(1,0,0,-1,0,300)" d="M 8 292.5 L 301.2506 292.5 L 301.2506 7.113861 L 8 7.113861 Z M 8 292.5 "/>
</clipPath>
<g clip-path="url(#cp61)">
<clipPath id="cp62">
<path transform="matrix(1,0,0,-1,0,300)" d="M 153.1312 31.43771 L 179.9026 31.43771 L 179.9026 78.5854 L 153.1312 78.5854 Z "/>
</clipPath>
<g clip-path="url(#cp62)">
<path transform="matrix(1,0,0,-1,0,300)" d="M 157.1312 49.5854 L 175.9026 49.5854 L 175.9026 59.5854 L 157.1312 59.5854 Z " fill-opacity="0"/>
<text xml:space="preserve" transform="matrix(1 0 -0 1 158 248)" font-size="9" font-family="LinLibertineOB" font-weight="bold"><tspan y="0" x="0 6.2910006 12.753">ADJ</tspan></text>
</g>
</g>
<clipPath id="cp63">
<path transform="matrix(1,0,0,-1,0,300)" d="M 8 292.5 L 301.2506 292.5 L 301.2506 7.113861 L 8 7.113861 Z M 8 292.5 "/>
</clipPath>
<g clip-path="url(#cp63)">
<clipPath id="cp64">
<path transform="matrix(1,0,0,-1,0,300)" d="M 179.9026 55.13655 L 207.14258 55.13655 L 207.14258 78.58539 L 179.9026 78.58539 Z "/>
</clipPath>
<g clip-path="url(#cp64)">
<path transform="matrix(1,0,0,-1,0,300)" d="M 183.9026 55.5854 L 203.14258 55.5854 L 203.14258 71.5854 L 183.9026 71.5854 Z " fill-opacity="0"/>
<text xml:space="preserve" transform="matrix(1 0 -0 1 191 236)" font-size="9" font-family="LinLibertineOB" font-weight="bold"><tspan y="0" x="0">p</tspan></text>
</g>
</g>
<clipPath id="cp65">
<path transform="matrix(1,0,0,-1,0,300)" d="M 8 292.5 L 301.2506 292.5 L 301.2506 7.113861 L 8 7.113861 Z M 8 292.5 "/>
</clipPath>
<g clip-path="url(#cp65)">
<clipPath id="cp66">
<path transform="matrix(1,0,0,-1,0,300)" d="M 207.1426 55.13655 L 301.2506 55.13655 L 301.2506 78.58539 L 207.1426 78.58539 Z "/>
</clipPath>
<g clip-path="url(#cp66)">
<path transform="matrix(1,0,0,-1,0,300)" d="M 209.1426 55.5854 L 299.2506 55.5854 L 299.2506 76.5854 L 209.1426 76.5854 Z " fill-opacity="0"/>
<text xml:space="preserve" transform="matrix(1 0 -0 1 213 231)" font-size="9" font-family="LinLibertineO"><tspan y="0" x="0 6.2910006 10.827001 15.651001 18.693 23.058 27.531002 31.932002 35.955 39.321004 44.145006 48.213 52.767004">Non-governed </tspan></text>
<text xml:space="preserve" transform="matrix(1 0 -0 1 219 241)" font-size="9" font-family="LinLibertineO"><tspan y="0" x="0 4.7790005 8.055001 12.078001 16.812 21.348 24.795 27.234002 30.078001 32.517004 37.053">Preposition</tspan></text>
</g>
</g>
<clipPath id="cp67">
<path transform="matrix(1,0,0,-1,0,300)" d="M 8 292.5 L 301.2506 292.5 L 301.2506 7.113861 L 8 7.113861 Z M 8 292.5 "/>
</clipPath>
<g clip-path="url(#cp67)">
<clipPath id="cp68">
<path transform="matrix(1,0,0,-1,0,300)" d="M 179.9026 31.43771 L 207.14258 31.43771 L 207.14258 54.88655 L 179.9026 54.88655 Z "/>
</clipPath>
<g clip-path="url(#cp68)">
<path transform="matrix(1,0,0,-1,0,300)" d="M 183.9026 31.88655 L 203.14258 31.88655 L 203.14258 47.88655 L 183.9026 47.88655 Z " fill-opacity="0"/>
<text xml:space="preserve" transform="matrix(1 0 -0 1 191 260)" font-size="9" font-family="LinLibertineOB" font-weight="bold"><tspan y="0" x="0">g</tspan></text>
</g>
</g>
<clipPath id="cp69">
<path transform="matrix(1,0,0,-1,0,300)" d="M 8 292.5 L 301.2506 292.5 L 301.2506 7.113861 L 8 7.113861 Z M 8 292.5 "/>
</clipPath>
<g clip-path="url(#cp69)">
<clipPath id="cp70">
<path transform="matrix(1,0,0,-1,0,300)" d="M 207.1426 31.43771 L 301.2506 31.43771 L 301.2506 54.88655 L 207.1426 54.88655 Z "/>
</clipPath>
<g clip-path="url(#cp70)">
<path transform="matrix(1,0,0,-1,0,300)" d="M 211.1426 31.88655 L 297.2506 31.88655 L 297.2506 47.88655 L 211.1426 47.88655 Z " fill-opacity="0"/>
<text xml:space="preserve" transform="matrix(1 0 -0 1 211 260)" font-size="9" font-family="LinLibertineO"><tspan y="0" x="0 6.147001 10.701001 15.525002 20.061 27.081002 29.52 34.344 38.457 40.833 43.083 49.338 53.361 58.185 60.624 63.468004 65.907009 70.30801">Adnominal Genitive</tspan></text>
</g>
</g>
<clipPath id="cp71">
<path transform="matrix(1,0,0,-1,0,300)" d="M 8 292.5 L 301.2506 292.5 L 301.2506 7.113861 L 8 7.113861 Z M 8 292.5 "/>
</clipPath>
<g clip-path="url(#cp71)">
<clipPath id="cp72">
<path transform="matrix(1,0,0,-1,0,300)" d="M 58.26878 8.113861 L 153.1312 8.113861 L 153.1312 31.1877 L 58.26878 31.1877 Z "/>
</clipPath>
<g clip-path="url(#cp72)">
<path transform="matrix(1,0,0,-1,0,300)" d="M 62.26878 8.187706 L 149.1312 8.187706 L 149.1312 24.187706 L 62.26878 24.187706 Z " fill-opacity="0"/>
<text xml:space="preserve" transform="matrix(1 0 -0 1 62 284)" font-size="9" font-family="LinLibertineO"><tspan y="0" x="0 5.9490005 10.773001 14.733002 19.143002 23.814003 27.090003 31.113003 34.56 38.007 42.074998">Unexpressed</tspan></text>
</g>
</g>
<clipPath id="cp73">
<path transform="matrix(1,0,0,-1,0,300)" d="M 8 292.5 L 301.2506 292.5 L 301.2506 7.113861 L 8 7.113861 Z M 8 292.5 "/>
</clipPath>
<g clip-path="url(#cp73)">
<clipPath id="cp74">
<path transform="matrix(1,0,0,-1,0,300)" d="M 153.1312 8.113861 L 179.9026 8.113861 L 179.9026 31.1877 L 153.1312 31.1877 Z "/>
</clipPath>
<g clip-path="url(#cp74)">
<path transform="matrix(1,0,0,-1,0,300)" d="M 157.1312 8.187706 L 175.9026 8.187706 L 175.9026 24.187706 L 157.1312 24.187706 Z " fill-opacity="0"/>
<text xml:space="preserve" transform="matrix(1 0 -0 1 163 284)" font-size="9" font-family="LinLibertineOB" font-weight="bold"><tspan y="0" x="0">&#x00d8;</tspan></text>
</g>
</g>
<clipPath id="cp75">
<path transform="matrix(1,0,0,-1,0,300)" d="M 8 292.5 L 301.2506 292.5 L 301.2506 7.113861 L 8 7.113861 Z M 8 292.5 "/>
</clipPath>
<g clip-path="url(#cp75)">
<clipPath id="cp76">
<path transform="matrix(1,0,0,-1,0,300)" d="M 179.9026 8.113861 L 207.14258 8.113861 L 207.14258 31.1877 L 179.9026 31.1877 Z "/>
</clipPath>
<g clip-path="url(#cp76)">
<path transform="matrix(1,0,0,-1,0,300)" d="M 183.9026 8.187706 L 203.14258 8.187706 L 203.14258 24.187706 L 183.9026 24.187706 Z " fill-opacity="0"/>
<text xml:space="preserve" transform="matrix(1 0 -0 1 191 284)" font-size="9" font-family="LinLibertineOB" font-weight="bold"><tspan y="0" x="0">&#x2013;</tspan></text>
</g>
</g>
<clipPath id="cp77">
<path transform="matrix(1,0,0,-1,0,300)" d="M 8 292.5 L 301.2506 292.5 L 301.2506 7.113861 L 8 7.113861 Z M 8 292.5 "/>
</clipPath>
<g clip-path="url(#cp77)">
<clipPath id="cp78">
<path transform="matrix(1,0,0,-1,0,300)" d="M 207.1426 8.113861 L 301.2506 8.113861 L 301.2506 31.1877 L 207.1426 31.1877 Z "/>
</clipPath>
<g clip-path="url(#cp78)">
<path transform="matrix(1,0,0,-1,0,300)" d="M 211.1426 8.187706 L 297.2506 8.187706 L 297.2506 24.187706 L 211.1426 24.187706 Z " fill-opacity="0"/>
<text xml:space="preserve" transform="matrix(1 0 -0 1 211 284)" font-size="9" font-family="LinLibertineO"><tspan y="0" x="0 6.3180005 13.338001">Omi</tspan></text>
<text xml:space="preserve" transform="matrix(1 0 -0 1 211 284)" font-size="9" font-family="LinLibertineO"><tspan y="0" x="15.777001 18.54">tt</tspan></text>
<text xml:space="preserve" transform="matrix(1 0 -0 1 211 284)" font-size="9" font-family="LinLibertineO"><tspan y="0" x="21.303002 25.371003">ed</tspan></text>
</g>
</g>
<clipPath id="cp79">
<path transform="matrix(1,0,0,-1,0,300)" d="M 8 292.5 L 301.2506 292.5 L 301.2506 7.113861 L 8 7.113861 Z M 8 292.5 "/>
</clipPath>
<g clip-path="url(#cp79)">
<clipPath id="cp80">
<path transform="matrix(1,0,0,-1,0,300)" d="M 0 0 L 310 0 L 310 300 L 0 300 Z "/>
</clipPath>
<g clip-path="url(#cp80)">
<path transform="matrix(1,0,0,1,7,6)" stroke-width="1" stroke-linecap="butt" stroke-miterlimit="4" stroke-linejoin="miter" fill="none" stroke="#000000" d="M 1 25.69884 L 294.2506 25.69884 "/>
<path transform="matrix(1,0,0,1,7,6)" stroke-width=".25" stroke-linecap="butt" stroke-miterlimit="4" stroke-linejoin="miter" fill="none" stroke="#bfbfbf" d="M 51.26878 49.39769 L 294.2506 49.39769 "/>
<path transform="matrix(1,0,0,1,7,6)" stroke-width=".25" stroke-linecap="butt" stroke-miterlimit="4" stroke-linejoin="miter" fill="none" stroke="#bfbfbf" d="M 172.9026 73.09653 L 294.2506 73.09653 "/>
<path transform="matrix(1,0,0,1,7,6)" stroke-width=".25" stroke-linecap="butt" stroke-miterlimit="4" stroke-linejoin="miter" fill="none" stroke="#bfbfbf" d="M 172.9026 96.79538 L 294.2506 96.79538 "/>
<path transform="matrix(1,0,0,1,7,6)" stroke-width=".25" stroke-linecap="butt" stroke-miterlimit="4" stroke-linejoin="miter" fill="none" stroke="#bfbfbf" d="M 88.57595 120.4942 L 146.1312 120.4942 "/>
<path transform="matrix(1,0,0,1,7,6)" stroke-width=".25" stroke-linecap="butt" stroke-miterlimit="4" stroke-linejoin="miter" fill="none" stroke="#bfbfbf" d="M 146.1312 120.4942 L 294.2506 120.4942 "/>
<path transform="matrix(1,0,0,1,7,6)" stroke-width=".25" stroke-linecap="butt" stroke-miterlimit="4" stroke-linejoin="miter" fill="none" stroke="#bfbfbf" d="M 172.9026 144.1931 L 294.2506 144.1931 "/>
<path transform="matrix(1,0,0,1,7,6)" stroke-width=".25" stroke-linecap="butt" stroke-miterlimit="4" stroke-linejoin="miter" fill="none" stroke="#bfbfbf" d="M 88.57595 167.8919 L 146.1312 167.8919 "/>
<path transform="matrix(1,0,0,1,7,6)" stroke-width=".25" stroke-linecap="butt" stroke-miterlimit="4" stroke-linejoin="miter" fill="none" stroke="#bfbfbf" d="M 146.1312 167.8919 L 294.2506 167.8919 "/>
<path transform="matrix(1,0,0,1,7,6)" stroke-width=".25" stroke-linecap="butt" stroke-miterlimit="4" stroke-linejoin="miter" fill="none" stroke="#bfbfbf" d="M 172.9026 191.5908 L 294.2506 191.5908 "/>
<path transform="matrix(1,0,0,1,7,6)" stroke-width=".25" stroke-linecap="butt" stroke-miterlimit="4" stroke-linejoin="miter" fill="none" stroke="#bfbfbf" d="M 1 215.2896 L 88.57595 215.2896 "/>
<path transform="matrix(1,0,0,1,7,6)" stroke-width=".25" stroke-linecap="butt" stroke-miterlimit="4" stroke-linejoin="miter" fill="none" stroke="#bfbfbf" d="M 88.57595 215.2896 L 146.1312 215.2896 "/>
<path transform="matrix(1,0,0,1,7,6)" stroke-width=".25" stroke-linecap="butt" stroke-miterlimit="4" stroke-linejoin="miter" fill="none" stroke="#bfbfbf" d="M 146.1312 215.2896 L 294.2506 215.2896 "/>
<path transform="matrix(1,0,0,1,7,6)" stroke-width=".25" stroke-linecap="butt" stroke-miterlimit="4" stroke-linejoin="miter" fill="none" stroke="#bfbfbf" d="M 172.9026 238.9884 L 294.2506 238.9884 "/>
<path transform="matrix(1,0,0,1,7,6)" stroke-width=".25" stroke-linecap="butt" stroke-miterlimit="4" stroke-linejoin="miter" fill="none" stroke="#bfbfbf" d="M 51.26878 262.6873 L 294.2506 262.6873 "/>
<path transform="matrix(1,0,0,1,7,6)" stroke-width="1" stroke-linecap="butt" stroke-miterlimit="4" stroke-linejoin="miter" fill="none" stroke="#000000" d="M 1 2 L 294.2506 2 "/>
<path transform="matrix(1,0,0,1,7,6)" stroke-width="1" stroke-linecap="butt" stroke-miterlimit="4" stroke-linejoin="miter" fill="none" stroke="#000000" d="M 1 286.3861 L 294.2506 286.3861 "/>
</g>
</g>
</g>
</svg>
